{"accessors":[{"bufferView":3,"componentType":5126,"count":2347,"max":[0.6220243573188782,1.5642229318618774,0.23122914135456085],"min":[-0.5903778076171875,-0.000015419866031152196,-0.18222461640834808],"type":"VEC3"},{"bufferView":3,"byteOffset":28164,"componentType":5126,"count":2347,"max":[0.9998365640640259,0.9999426007270813,0.9999431371688843],"min":[-0.9997032880783081,-0.9999971985816956,-0.9999706745147705],"type":"VEC3"},{"bufferView":4,"componentType":5126,"count":2347,"max":[0.999968945980072,0.9988903403282166,0.9995641708374023,1],"min":[-0.9999881386756897,-0.9999800324440002,-0.9999838471412659,-1],"type":"VEC4"},{"bufferView":2,"componentType":5126,"count":2347,"max":[2.9140625,0.9990234375],"min":[0.0019931793212890625,0.00569915771484375],"type":"VEC2"},{"bufferView":1,"componentType":5125,"count":11088,"type":"SCALAR"},{"bufferView":3,"byteOffset":56328,"componentType":5126,"count":4302,"max":[0.677833616733551,1.0639569759368896,0.08314026892185211],"min":[-0.677833616733551,0.8979056477546692,-0.08262114226818085],"type":"VEC3"},{"bufferView":3,"byteOffset":107952,"componentType":5126,"count":4302,"max":[0.998765230178833,0.958057701587677,0.9999628067016602],"min":[-0.9987645149230957,-0.9984186291694641,-0.999934732913971],"type":"VEC3"},{"bufferView":4,"byteOffset":37552,"componentType":5126,"count":4302,"max":[0.9997522234916687,0.9997987151145935,0.7132246494293213,1],"min":[-0.9997938275337219,-0.979990541934967,-0.9991623759269714,-1],"type":"VEC4"},{"bufferView":2,"byteOffset":18776,"componentType":5126,"count":4302,"max":[0.99853515625,0.54931640625],"min":[0.7216796875,0.00727081298828125],"type":"VEC2"},{"bufferView":1,"byteOffset":44352,"componentType":5125,"count":22920,"type":"SCALAR"},{"bufferView":3,"byteOffset":159576,"componentType":5126,"count":14,"max":[0.06288409978151321,1.1496626138687134,0.22389160096645355],"min":[-0.06425999850034714,1.1194430589675903,0.2030537873506546],"type":"VEC3"},{"bufferView":3,"byteOffset":159744,"componentType":5126,"count":14,"max":[0.24791289865970612,0.31599754095077515,0.9721502661705017],"min":[-0.2780821919441223,0.16841676831245422,0.9175041317939758],"type":"VEC3"},{"bufferView":4,"byteOffset":106384,"componentType":5126,"count":14,"max":[0.9888109564781189,0.38624683022499084,0.31704965233802795,1],"min":[0.8505865931510925,-0.2221630960702896,-0.3568134009838104,1],"type":"VEC4"},{"bufferView":2,"byteOffset":53192,"componentType":5126,"count":14,"max":[0.31787109375,0.99072265625],"min":[0.007843017578125,0.96923828125],"type":"VEC2"},{"bufferView":1,"byteOffset":136032,"componentType":5125,"count":36,"type":"SCALAR"},{"bufferView":3,"byteOffset":159912,"componentType":5126,"count":632,"max":[0.08614437282085419,1.7368054389953613,0.1071271151304245],"min":[-0.08556418120861053,1.552425503730774,-0.08090242743492126],"type":"VEC3"},{"bufferView":3,"byteOffset":167496,"componentType":5126,"count":632,"max":[0.9996951222419739,0.9973248243331909,0.6404703259468079],"min":[-0.9999212026596069,-0.6321512460708618,-0.9956659078598022],"type":"VEC3"},{"bufferView":4,"byteOffset":106608,"componentType":5126,"count":632,"max":[0.6164916157722473,0.999971330165863,0.998541533946991,1],"min":[-0.8575607538223267,-0.720865786075592,-0.7953541874885559,1],"type":"VEC4"},{"bufferView":2,"byteOffset":53304,"componentType":5126,"count":632,"max":[0.982421875,0.984375],"min":[0.01137542724609375,0.0122528076171875],"type":"VEC2"},{"bufferView":1,"byteOffset":136176,"componentType":5125,"count":3540,"type":"SCALAR"},{"bufferView":3,"byteOffset":175080,"componentType":5126,"count":173,"max":[0.04974456503987312,1.6366369724273682,0.120315320789814],"min":[-0.04674727842211723,1.6207441091537476,0.10639166086912155],"type":"VEC3"},{"bufferView":3,"byteOffset":177156,"componentType":5126,"count":173,"max":[0.5301780700683594,0.8601341843605042,0.9491713047027588],"min":[-0.5913034081459045,-0.9836508631706238,0.1360064446926117],"type":"VEC3"},{"bufferView":4,"byteOffset":116720,"componentType":5126,"count":173,"max":[0.9933463931083679,0.37387949228286743,0.5630158185958862,1],"min":[-0.9909606575965881,-0.8643808364868164,-0.8045976758003235,-1],"type":"VEC4"},{"bufferView":2,"byteOffset":58360,"componentType":5126,"count":173,"max":[0.6727269887924194,0.9963579773902893],"min":[0.005127999931573868,0.8102229833602905],"type":"VEC2"},{"bufferView":1,"byteOffset":150336,"componentType":5125,"count":639,"type":"SCALAR"},{"bufferView":3,"byteOffset":179232,"componentType":5126,"count":4179,"max":[0.08784683048725128,1.7364689111709595,0.15430088341236115],"min":[-0.0876586064696312,1.4851534366607666,-0.06320820748806],"type":"VEC3"},{"bufferView":3,"byteOffset":229380,"componentType":5126,"count":4179,"max":[0.9995214343070984,0.9993561506271362,0.9997091293334961],"min":[-0.9997202157974243,-0.9984176754951477,-0.9998409152030945],"type":"VEC3"},{"bufferView":4,"byteOffset":119488,"componentType":5126,"count":4179,"max":[0.9999920129776001,0.8597756028175354,0.9996988773345947,1],"min":[-0.9997660517692566,-0.9837880730628967,-0.999733030796051,-1],"type":"VEC4"},{"bufferView":2,"byteOffset":59744,"componentType":5126,"count":4179,"max":[0.7907699942588806,0.9930649995803833],"min":[0.0025279999244958162,0.12589100003242493],"type":"VEC2"},{"bufferView":1,"byteOffset":152892,"componentType":5125,"count":24396,"type":"SCALAR"},{"bufferView":3,"byteOffset":279528,"componentType":5126,"count":146,"max":[-0.016378428786993027,1.5686546564102173,0.19929583370685577],"min":[-0.03730880841612816,1.5386892557144165,0.1148742288351059],"type":"VEC3"},{"bufferView":3,"byteOffset":281280,"componentType":5126,"count":146,"max":[0.9986321926116943,0.9964323043823242,0.9957232475280762],"min":[-0.9987636804580688,-0.9924201965332031,-0.7775623202323914],"type":"VEC3"},{"bufferView":4,"byteOffset":186352,"componentType":5126,"count":146,"max":[0.9992846846580505,0.9240314960479736,0.4795747697353363,1],"min":[-0.9968154430389404,-0.9939038753509521,-0.9980496764183044,-1],"type":"VEC4"},{"bufferView":2,"byteOffset":93176,"componentType":5126,"count":146,"max":[0.541015625,0.6494140625],"min":[0.41552734375,0.59375],"type":"VEC2"},{"bufferView":2,"byteOffset":94344,"componentType":5126,"count":146,"max":[0.541015625,0.6494140625],"min":[0.41552734375,0.59375],"type":"VEC2"},{"bufferView":2,"byteOffset":95512,"componentType":5126,"count":146,"max":[0.541015625,0.6494140625],"min":[0.41552734375,0.59375],"type":"VEC2"},{"bufferView":1,"byteOffset":250476,"componentType":5125,"count":738,"type":"SCALAR"},{"bufferView":3,"byteOffset":283032,"componentType":5126,"count":514,"max":[0.04576556384563446,1.643153429031372,0.11381848901510239],"min":[0.018322665244340897,1.6156909465789795,0.08589000254869461],"type":"VEC3"},{"bufferView":3,"byteOffset":289200,"componentType":5126,"count":514,"max":[0.9976582527160645,0.9967769384384155,0.9958732724189758],"min":[-0.9976581335067749,-0.9967753291130066,-0.995872437953949],"type":"VEC3"},{"bufferView":4,"byteOffset":188688,"componentType":5126,"count":514,"max":[0.9999657273292542,0.20899175107479095,0.998734176158905,1],"min":[-0.9999994039535522,-0.18525470793247223,-0.9996664524078369,1],"type":"VEC4"},{"bufferView":2,"byteOffset":96680,"componentType":5126,"count":514,"max":[0.9821892380714417,0.9816974401473999],"min":[0.8336696028709412,0.8648859262466431],"type":"VEC2"},{"bufferView":2,"byteOffset":100792,"componentType":5126,"count":514,"max":[0.9821892380714417,0.9816974401473999],"min":[0.8336696028709412,0.8648859262466431],"type":"VEC2"},{"bufferView":2,"byteOffset":104904,"componentType":5126,"count":514,"max":[0.9821892380714417,0.9816974401473999],"min":[0.8336696028709412,0.8648859262466431],"type":"VEC2"},{"bufferView":1,"byteOffset":253428,"componentType":5125,"count":2880,"type":"SCALAR"},{"bufferView":3,"byteOffset":295368,"componentType":5126,"count":514,"max":[-0.015617995522916317,1.6429717540740967,0.11447080969810486],"min":[-0.04306088387966156,1.615509271621704,0.08654233813285828],"type":"VEC3"},{"bufferView":3,"byteOffset":301536,"componentType":5126,"count":514,"max":[0.9992039799690247,0.9967769384384155,0.9972261786460876],"min":[-0.9992039799690247,-0.9967659711837769,-0.9972277283668518],"type":"VEC3"},{"bufferView":4,"byteOffset":196912,"componentType":5126,"count":514,"max":[0.9998493194580078,0.20631985366344452,0.9999572038650513,1],"min":[-0.9999474883079529,-0.18515124917030334,-0.9997907876968384,1],"type":"VEC4"},{"bufferView":2,"byteOffset":109016,"componentType":5126,"count":514,"max":[0.9821892380714417,0.9816974401473999],"min":[0.8336696028709412,0.8648859262466431],"type":"VEC2"},{"bufferView":2,"byteOffset":113128,"componentType":5126,"count":514,"max":[0.9821892380714417,0.9816974401473999],"min":[0.8336696028709412,0.8648859262466431],"type":"VEC2"},{"bufferView":2,"byteOffset":117240,"componentType":5126,"count":514,"max":[0.9821892380714417,0.9816974401473999],"min":[0.8336696028709412,0.8648859262466431],"type":"VEC2"},{"bufferView":1,"byteOffset":264948,"componentType":5125,"count":2880,"type":"SCALAR"},{"bufferView":3,"byteOffset":307704,"componentType":5126,"count":1492,"max":[0.1435287892818451,1.7844632863998413,0.18795187771320343],"min":[-0.1369648575782776,1.6272753477096558,-0.14390085637569427],"type":"VEC3"},{"bufferView":3,"byteOffset":325608,"componentType":5126,"count":1492,"max":[0.9987067580223083,0.999989926815033,0.9670981764793396],"min":[-0.991219162940979,-0.9998618364334106,-0.9982041716575623],"type":"VEC3"},{"bufferView":4,"byteOffset":205136,"componentType":5126,"count":1492,"max":[0.9992012977600098,0.9607850909233093,0.9924481511116028,1],"min":[-0.9995073676109314,-0.9284911155700684,-0.9997696280479431,-1],"type":"VEC4"},{"bufferView":2,"byteOffset":121352,"componentType":5126,"count":1492,"max":[0.994140625,0.99072265625],"min":[0.006072998046875,0.00702667236328125],"type":"VEC2"},{"bufferView":2,"byteOffset":133288,"componentType":5126,"count":1492,"max":[0.994140625,0.99072265625],"min":[0.006072998046875,0.00702667236328125],"type":"VEC2"},{"bufferView":2,"byteOffset":145224,"componentType":5126,"count":1492,"max":[0.994140625,0.99072265625],"min":[0.006072998046875,0.00702667236328125],"type":"VEC2"},{"bufferView":1,"byteOffset":276468,"componentType":5125,"count":7818,"type":"SCALAR"},{"bufferView":3,"byteOffset":343512,"componentType":5126,"count":2328,"max":[0.03721039742231369,1.5854051113128662,0.1238696426153183],"min":[-0.029908429831266403,1.543670654296875,0.05500521883368492],"type":"VEC3"},{"bufferView":3,"byteOffset":371448,"componentType":5126,"count":2328,"max":[0.9998598098754883,0.999984085559845,0.9997654557228088],"min":[-0.9990562796592712,-0.9998344779014587,-0.9994770884513855],"type":"VEC3"},{"bufferView":4,"byteOffset":229008,"componentType":5126,"count":2328,"max":[0.999942421913147,0.9966115355491638,0.9915266633033752,1],"min":[-0.9999999403953552,-0.9997411370277405,-0.9992181658744812,-1],"type":"VEC4"},{"bufferView":2,"byteOffset":157160,"componentType":5126,"count":2328,"max":[0.9939029812812805,0.99788498878479],"min":[0.002067999914288521,0.0023539999965578318],"type":"VEC2"},{"bufferView":2,"byteOffset":175784,"componentType":5126,"count":2328,"max":[0.9939029812812805,0.99788498878479],"min":[0.002067999914288521,0.0023539999965578318],"type":"VEC2"},{"bufferView":2,"byteOffset":194408,"componentType":5126,"count":2328,"max":[0.9939029812812805,0.99788498878479],"min":[0.002067999914288521,0.0023539999965578318],"type":"VEC2"},{"bufferView":1,"byteOffset":307740,"componentType":5125,"count":11943,"type":"SCALAR"},{"bufferView":5,"componentType":5126,"count":63,"max":[100,0.8082827925682068,1,0,1.0000061988830566,100,0.9295278191566467,0,0.9871357083320618,0.9980970025062561,100,0,0.8930540680885315,1.085034966468811,1.3626714944839478,1],"min":[-0.9208682179450989,-0.2570032775402069,-0.9916060566902161,0,-1.0000001192092896,-0.9995800852775574,-0.9295276403427124,0,-0.9871372580528259,-0.9980576634407043,-0.5350902676582336,0,-1.4712803363800049,-1.0850365161895752,-1.3626716136932373,1],"type":"MAT4"},{"bufferView":0,"componentType":5123,"count":2347,"type":"VEC4"},{"bufferView":4,"byteOffset":266256,"componentType":5126,"count":2347,"max":[1,0.4993407428264618,0.3095409870147705,0.12843389809131622],"min":[0.3534816801548004,0,0,0],"type":"VEC4"},{"bufferView":0,"byteOffset":18776,"componentType":5123,"count":4302,"type":"VEC4"},{"bufferView":4,"byteOffset":303808,"componentType":5126,"count":4302,"max":[1,0.5,0.317658007144928,0.10305789858102798],"min":[0.3543680012226105,0,0,0],"type":"VEC4"},{"bufferView":0,"byteOffset":53192,"componentType":5123,"count":14,"type":"VEC4"},{"bufferView":4,"byteOffset":372640,"componentType":5126,"count":14,"max":[0.4294019937515259,0.3359430134296417,0.32706400752067566,0],"min":[0.33846500515937805,0.29795101284980774,0.2726469933986664,0],"type":"VEC4"},{"bufferView":0,"byteOffset":53304,"componentType":5123,"count":632,"type":"VEC4"},{"bufferView":4,"byteOffset":372864,"componentType":5126,"count":632,"max":[1,0.4904663860797882,0.02554599940776825,0.010904988273978233],"min":[0.5095335841178894,0,0,0],"type":"VEC4"},{"bufferView":0,"byteOffset":58360,"componentType":5123,"count":173,"type":"VEC4"},{"bufferView":4,"byteOffset":382976,"componentType":5126,"count":173,"max":[1,0,0,0],"min":[1,0,0,0],"type":"VEC4"},{"bufferView":0,"byteOffset":59744,"componentType":5123,"count":4179,"type":"VEC4"},{"bufferView":4,"byteOffset":385744,"componentType":5126,"count":4179,"max":[1,0.3950946033000946,0.3009139895439148,0],"min":[0.35574498772621155,0,0,0],"type":"VEC4"}],"asset":{"extras":{"author":"Zorg_Sinister (https://sketchfab.com/4130ff15fe394c239cc064b5286c43)","license":"CC-BY-4.0 (http://creativecommons.org/licenses/by/4.0/)","source":"https://sketchfab.com/3d-models/empire-of-sin-al-capone-97275cfeda5e47e7aba092ba21bdc0ae","title":"Empire of Sin: Al-Capone"},"generator":"Sketchfab-17.15.0","version":"2.0"},"bufferViews":[{"buffer":0,"byteLength":93176,"byteStride":8,"name":"shortBufferViews","target":34962},{"buffer":0,"byteLength":355512,"byteOffset":93176,"name":"floatBufferViews","target":34963},{"buffer":0,"byteLength":213032,"byteOffset":448688,"byteStride":8,"name":"floatBufferViews","target":34962},{"buffer":0,"byteLength":399384,"byteOffset":661720,"byteStride":12,"name":"floatBufferViews","target":34962},{"buffer":0,"byteLength":452608,"byteOffset":1061104,"byteStride":16,"name":"floatBufferViews","target":34962},{"buffer":0,"byteLength":4032,"byteOffset":1513712,"name":"floatBufferViews"}],"buffers":[{"byteLength":1517744,"uri":"scene.bin"}],"extensionsUsed":["KHR_materials_specular"],"images":[{"uri":"textures/Al-Capone_Suit_baseColor.webp","mimeType":"image/webp"},{"uri":"textures/Al-Capone_Suit_metallicRoughness.webp","mimeType":"image/webp"},{"uri":"textures/Al-Capone_Suit_normal.webp","mimeType":"image/webp"},{"uri":"textures/Al-Capone_Head_baseColor.webp","mimeType":"image/webp"},{"uri":"textures/Al-Capone_Head_metallicRoughness.webp","mimeType":"image/webp"},{"uri":"textures/Al-Capone_Head_normal.webp","mimeType":"image/webp"},{"uri":"textures/Al-Capone_Head_specularf0.webp","mimeType":"image/webp"},{"uri":"textures/Al-Capone_Chain_baseColor.webp","mimeType":"image/webp"},{"uri":"textures/Al-Capone_Chain_metallicRoughness.webp","mimeType":"image/webp"},{"uri":"textures/Al-Capone_Chain_normal.webp","mimeType":"image/webp"},{"uri":"textures/Al-Capone_Chain_specularf0.webp","mimeType":"image/webp"},{"uri":"textures/Al-Capone_Hair_metallicRoughness.webp","mimeType":"image/webp"},{"uri":"textures/Al-Capone_Hat_baseColor.webp","mimeType":"image/webp"},{"uri":"textures/Al-Capone_Hat_metallicRoughness.webp","mimeType":"image/webp"},{"uri":"textures/Al-Capone_Hat_normal.webp","mimeType":"image/webp"}],"materials":[{"doubleSided":true,"extensions":{"KHR_materials_specular":{"specularColorFactor":[1,1,1],"specularFactor":1}},"name":"Al-Capone_Suit","normalTexture":{"index":2},"pbrMetallicRoughness":{"baseColorTexture":{"index":0},"metallicRoughnessTexture":{"index":1}}},{"doubleSided":true,"extensions":{"KHR_materials_specular":{"specularColorFactor":[1,1,1],"specularFactor":1,"specularTexture":{"index":6}}},"name":"Al-Capone_Head","normalTexture":{"index":5},"pbrMetallicRoughness":{"baseColorTexture":{"index":3},"metallicRoughnessTexture":{"index":4}}},{"alphaMode":"BLEND","doubleSided":true,"extensions":{"KHR_materials_specular":{"specularColorFactor":[1,1,1],"specularFactor":1,"specularTexture":{"index":10}}},"name":"Al-Capone_Chain","normalTexture":{"index":9},"pbrMetallicRoughness":{"baseColorTexture":{"index":7},"metallicRoughnessTexture":{"index":8}}},{"alphaMode":"BLEND","doubleSided":true,"extensions":{"KHR_materials_specular":{"specularColorFactor":[1,1,1],"specularFactor":1}},"name":"Al-Capone_Hair","normalTexture":{"index":9},"pbrMetallicRoughness":{"baseColorTexture":{"index":7},"metallicRoughnessTexture":{"index":11}}},{"doubleSided":true,"extensions":{"KHR_materials_specular":{"specularColorFactor":[1,1,1],"specularFactor":1}},"name":"Al-Capone_Hat","normalTexture":{"index":14},"pbrMetallicRoughness":{"baseColorTexture":{"index":12},"metallicRoughnessTexture":{"index":13}}}],"meshes":[{"name":"RegularCoat_Al-Capone Suit_0","primitives":[{"attributes":{"JOINTS_0":66,"NORMAL":1,"POSITION":0,"TANGENT":2,"TEXCOORD_0":3,"TEXCOORD_1":3,"TEXCOORD_2":3,"WEIGHTS_0":67},"indices":4,"material":0,"mode":4}]},{"name":"RegularCoat_Al-Capone Head_0","primitives":[{"attributes":{"JOINTS_0":68,"NORMAL":6,"POSITION":5,"TANGENT":7,"TEXCOORD_0":8,"TEXCOORD_1":8,"TEXCOORD_2":8,"WEIGHTS_0":69},"indices":9,"material":1,"mode":4}]},{"name":"hair_Al-Capone Chain_0","primitives":[{"attributes":{"JOINTS_0":70,"NORMAL":11,"POSITION":10,"TANGENT":12,"TEXCOORD_0":13,"TEXCOORD_1":13,"TEXCOORD_2":13,"WEIGHTS_0":71},"indices":14,"material":2,"mode":4}]},{"name":"hair_Al-Capone Hair_0","primitives":[{"attributes":{"JOINTS_0":72,"NORMAL":16,"POSITION":15,"TANGENT":17,"TEXCOORD_0":18,"TEXCOORD_1":18,"TEXCOORD_2":18,"WEIGHTS_0":73},"indices":19,"material":3,"mode":4}]},{"name":"0","primitives":[{"attributes":{"JOINTS_0":74,"NORMAL":21,"POSITION":20,"TANGENT":22,"TEXCOORD_0":23,"TEXCOORD_1":23,"TEXCOORD_2":23,"WEIGHTS_0":75},"indices":24,"material":3,"mode":4}]},{"name":"1","primitives":[{"attributes":{"JOINTS_0":76,"NORMAL":26,"POSITION":25,"TANGENT":27,"TEXCOORD_0":28,"TEXCOORD_1":28,"TEXCOORD_2":28,"WEIGHTS_0":77},"indices":29,"material":1,"mode":4}]},{"name":"cigar_Al-Capone Suit_0","primitives":[{"attributes":{"NORMAL":31,"POSITION":30,"TANGENT":32,"TEXCOORD_0":33,"TEXCOORD_1":34,"TEXCOORD_2":35},"indices":36,"material":0,"mode":4}]},{"name":"eye_l_Al-Capone Head_0","primitives":[{"attributes":{"NORMAL":38,"POSITION":37,"TANGENT":39,"TEXCOORD_0":40,"TEXCOORD_1":41,"TEXCOORD_2":42},"indices":43,"material":1,"mode":4}]},{"name":"eye_r_Al-Capone Head_0","primitives":[{"attributes":{"NORMAL":45,"POSITION":44,"TANGENT":46,"TEXCOORD_0":47,"TEXCOORD_1":48,"TEXCOORD_2":49},"indices":50,"material":1,"mode":4}]},{"name":"hat_Al-Capone Hat_0","primitives":[{"attributes":{"NORMAL":52,"POSITION":51,"TANGENT":53,"TEXCOORD_0":54,"TEXCOORD_1":55,"TEXCOORD_2":56},"indices":57,"material":4,"mode":4}]},{"name":"2","primitives":[{"attributes":{"NORMAL":59,"POSITION":58,"TANGENT":60,"TEXCOORD_0":61,"TEXCOORD_1":62,"TEXCOORD_2":63},"indices":64,"material":1,"mode":4}]}],"nodes":[{"children":[1],"matrix":[1,0,0,0,0,2.220446049250313e-16,-1,0,0,1,2.220446049250313e-16,0,0,0,0,1],"name":"Sketchfab_model"},{"children":[2],"matrix":[0.009999999776482582,0,0,0,0,0,0.009999999776482582,0,0,-0.009999999776482582,0,0,0,0,0,1],"name":"7bdf2f02036c4516ab68762bdcb9fa47.fbx"},{"children":[3,78,80,82,84,86,88,90],"name":"RootNode"},{"children":[4],"matrix":[100,0,0,0,0,99.99999999999972,-0.0000075497901264043296,0,0,0.0000075497901264043296,99.99999999999972,0,0,0,0,1],"name":"Armature"},{"children":[5,69,70,72,73,75,77,68,71,74,76],"name":"Object_4"},{"children":[6],"name":"_rootJoint"},{"children":[7],"name":"AlCapone_Cinematic_01","rotation":[8.3372870663089545e-16,0,0,1]},{"children":[8,14,62],"name":"Root_M_02","rotation":[0.4810431897640228,0.5182638168334961,0.4810433089733124,0.5182638764381409],"scale":[0.9999998807907104,0.9999998211860657,1],"translation":[-6.10674703130533e-16,0.9494999647140503,0.023008067160844803]},{"children":[9],"name":"Hip_R_03","rotation":[-0.05426158010959625,0.9964219331741333,-0.05063606798648834,0.04043520614504814],"scale":[0.9999998807907104,1,0.9999998807907104],"translation":[-0.05529242753982544,-0.007855148054659367,-0.08932971209287643]},{"children":[10],"name":"Knee_R_04","rotation":[-1.3796075393202045e-8,4.063147329702588e-8,-0.011122280731797218,0.9999382495880127],"scale":[1,0.9999998807907104,0.9999999403953552],"translation":[0.44306862354278564,-2.1047890186309814e-7,1.779699232429266e-8]},{"children":[11],"name":"Ankle_R_05","rotation":[0.0533050112426281,0.04071473702788353,0.024059806019067764,0.9974578022956848],"scale":[1.0000001192092896,1.0000001192092896,1.0000001192092896],"translation":[0.36963951587677,-8.89413058757782e-8,1.7695128917694092e-8]},{"children":[12],"name":"Toes_R_06","rotation":[-0.025978367775678635,0.011076771654188633,0.7139295339584351,0.699647843837738],"scale":[0.9999999403953552,0.9999998211860657,0.9999997615814209],"translation":[0.07265020161867142,0.15124215185642242,1.9386213523375773e-8]},{"children":[13],"name":"Toes_R_end_07","rotation":[8.731150247243136e-10,-7.705239113420248e-9,7.566996473862275e-10,1],"scale":[1,0.9999999403953552,0.9999999403953552],"translation":[3.259629011154175e-9,0.16778622567653656,6.05359673500061e-9]},{"name":"Toes_R_end_end_052","rotation":[8.673617379884035e-19,1.3877787807814457e-17,-1.2037062152420224e-35,1],"translation":[0,0.16778624057769775,-2.7755575615628914e-17]},{"children":[15],"name":"Spine1_M_08","rotation":[2.88842172402326e-9,1.1848733105779274e-9,-0.06433197855949402,0.9979285597801208],"scale":[0.9999999403953552,0.9999998211860657,1],"translation":[0.13531990349292755,-2.9802322387695312e-8,5.915033796100033e-9]},{"children":[16,35,43],"name":"Chest_M_09","rotation":[-3.216377164605433e-9,-5.879767228655908e-10,0.07069496810436249,0.9974979758262634],"scale":[1,1.0000001192092896,1],"translation":[0.1246989369392395,3.3527612686157227e-8,5.746889186752924e-9]},{"children":[17],"name":"Scapula_R_010","rotation":[-0.04230504855513573,0.8111650347709656,-0.1077757179737091,0.573241651058197],"scale":[1,1.0000001192092896,0.9999999403953552],"translation":[0.2412654310464859,0.02898390404880047,-0.04995258152484894]},{"children":[18],"name":"Shoulder_R_011","rotation":[0.0041711293160915375,0.22718673944473267,-0.017877433449029922,0.9736781716346741],"scale":[1,1,0.9999998807907104],"translation":[0.14511358737945557,-2.0489096641540527e-8,9.592622518539429e-8]},{"children":[19],"name":"Elbow_R_012","rotation":[1.292991242962671e-7,-9.22895821986458e-8,0.10943783819675446,0.9939936399459839],"scale":[1.0000001192092896,0.9999998211860657,1.0000001192092896],"translation":[0.2651909589767456,4.0978193283081055e-8,-2.7008354663848877e-8]},{"children":[20,25,30],"name":"Wrist_R_013","rotation":[-0.1305926889181137,-0.010795685462653637,-0.11188525706529617,0.9850435256958008],"scale":[0.9999999403953552,1,0.9999996423721313],"translation":[0.2734296917915344,-2.2351741790771484e-8,-1.5087425708770752e-7]},{"children":[21],"name":"MiddleFinger1_R_014","rotation":[0.0028851781971752644,0.03321840614080429,0.009962162002921104,0.9993942975997925],"scale":[1,1,1.0000001192092896],"translation":[0.0662030577659607,1.862645149230957e-8,-4.0403392631560564e-8]},{"children":[22],"name":"MiddleFinger2_R_015","rotation":[-0.0013817735016345978,0.023345736786723137,0.017467854544520378,0.9995738863945007],"scale":[0.9999997019767761,0.9999999403953552,0.9999997615814209],"translation":[0.03514237329363823,-2.2351741790771484e-8,6.600748747587204e-8]},{"children":[23],"name":"MiddleFinger3_R_016","rotation":[0.0020837141200900078,-0.020020317286252975,-0.03645304962992668,0.9991326332092285],"scale":[0.9999998807907104,1,0.9999997615814209],"translation":[0.030044158920645714,3.5390257835388184e-8,1.077714841812849e-7]},{"children":[24],"name":"MiddleFinger3_R_end_017","rotation":[5.820765647257531e-9,1.4726538211107254e-8,3.7252898543727042e-9,1],"scale":[1,1.0000001192092896,1],"translation":[-1.7171259969472885e-8,0.030043967068195343,-3.534296411089599e-8]},{"name":"MiddleFinger3_R_end_end_053","rotation":[-6.938893903907228e-18,2.1358782797964437e-17,-1.3877787807814457e-17,1],"translation":[-5.551115123125783e-17,0.030043959617614746,0]},{"children":[26],"name":"ThumbFinger1_R_018","rotation":[-0.5793066024780273,-0.3868487775325775,0.46428757905960083,0.5469816327095032],"scale":[0.9999998211860657,1,0.9999998807907104],"translation":[0.007599528878927231,0.026954222470521927,-0.0032344055362045765]},{"children":[27],"name":"ThumbFinger2_R_019","rotation":[0.04241021350026131,0.08011306077241898,0.030654460191726685,0.9954112768173218],"scale":[1.0000001192092896,0.9999995827674866,1],"translation":[0.02255306765437126,1.1944212019443512e-7,-1.6763806343078613e-8]},{"children":[28],"name":"ThumbFinger3_R_020","rotation":[-0.008726133033633232,-0.015295427292585373,0.000781335576903075,0.9998447299003601],"scale":[0.9999996423721313,0.9999999403953552,0.9999998211860657],"translation":[0.029777318239212036,-1.1222437024116516e-7,-1.30385160446167e-7]},{"children":[29],"name":"ThumbFinger3_R_end_021","rotation":[-1.3411047916633834e-7,-2.421438694000244e-8,-1.2852252950779075e-7,1],"scale":[1,0.9999998211860657,0.9999999403953552],"translation":[3.3527612686157227e-8,0.029777314513921738,-2.9802322387695312e-8]},{"name":"ThumbFinger3_R_end_end_054","rotation":[-4.85722573273506e-17,-5.551115123125783e-17,-6.938893903907228e-18,1],"translation":[-5.551115123125783e-17,0.029777225106954575,0]},{"children":[31],"name":"IndexFinger1_R_022","rotation":[-0.0822063460946083,-0.04310975223779678,0.14355970919132233,0.9852787852287292],"scale":[1.000000238418579,0.9999999403953552,1],"translation":[0.059104010462760925,0.03157748281955719,0.00783600565046072]},{"children":[32],"name":"IndexFinger2_R_023","rotation":[-0.0008844488766044378,0.03389343246817589,0.017583360895514488,0.9992703795433044],"scale":[0.9999998807907104,0.9999999403953552,0.9999999403953552],"translation":[0.03237585723400116,-1.862645149230957e-8,-1.417938619852066e-7]},{"children":[33],"name":"IndexFinger3_R_024","rotation":[-0.010256607085466385,-0.018887806683778763,-0.010076701641082764,0.9997183084487915],"scale":[0.9999999403953552,1.0000003576278687,0.9999999403953552],"translation":[0.030645519495010376,1.7695128917694092e-8,-7.2177499532699585e-9]},{"children":[34],"name":"IndexFinger3_R_end_025","rotation":[2.1886080503463745e-8,1.1827796697616577e-7,-3.4691765904426575e-8,1],"translation":[1.4901161193847656e-8,0.03064561076462269,-5.494803190231323e-8]},{"name":"IndexFinger3_R_end_end_055","rotation":[4.163336342344337e-17,2.42861286636753e-17,-1.0111132208032988e-33,1],"translation":[-2.7755575615628914e-17,0.03064561076462269,2.220446049250313e-16]},{"children":[36],"name":"Neck_M_026","rotation":[-8.579619681370332e-9,4.943584208660923e-9,0.1718488335609436,0.985123336315155],"scale":[1.0000001192092896,0.9999999403953552,1],"translation":[0.24486865103244781,5.774199607344599e-8,1.0996345167768595e-8]},{"children":[37,40],"name":"Head_M_027","rotation":[-9.2917840088802e-10,-2.981618729691604e-9,3.2782554626464844e-7,1],"scale":[0.9999998211860657,1.000000238418579,0.9999995827674866],"translation":[0.08595304936170578,1.655425876379013e-7,4.722576552040891e-9]},{"children":[38],"name":"Eye_R_028","rotation":[0.5656675100326538,0.4242880046367645,0.5656673312187195,-0.42428815364837646],"scale":[0.9999999403953552,0.9999997019767761,0.9999997615814209],"translation":[0.12094316631555557,0.07201264053583145,-0.029752757400274277]},{"children":[39],"name":"Eye_R_end_029","rotation":[3.3763143392206985e-8,1.2837241492036355e-8,4.57084681215747e-9,1],"translation":[-3.571097639820664e-9,0.14415901899337769,1.5128833297239908e-8]},{"name":"Eye_R_end_end_056","rotation":[0,2.6469779601696886e-23,-1.33867171261109e-23,1],"translation":[0,0.14415907859802246,0]},{"children":[41],"name":"Eye_L_030","rotation":[0.5656673908233643,0.42428815364837646,0.5656672716140747,-0.42428821325302124],"scale":[1.0000003576278687,1,1],"translation":[0.12094316631555557,0.07201265543699265,0.03244596719741821]},{"children":[42],"name":"Eye_L_end_031","rotation":[-1.0940365946510155e-8,4.52153114949283e-9,6.55124487991543e-9,1],"translation":[1.1511107622652617e-9,0.14415901899337769,-4.06481603931752e-9]},{"name":"Eye_L_end_end_057","rotation":[-5.293955920339377e-23,-2.6469779601696886e-23,6.932206712494647e-24,1],"translation":[-6.938893903907228e-18,0.14415907859802246,0]},{"children":[44],"name":"Scapula_L_032","rotation":[0.8111652135848999,0.042305100709199905,-0.5732415914535522,-0.1077757179737091],"scale":[0.9999998807907104,0.9999999403953552,1.0000001192092896],"translation":[0.2412654161453247,0.028983907774090767,0.049952611327171326]},{"children":[45],"name":"Shoulder_L_033","rotation":[0.004171107430011034,0.22718627750873566,-0.01787738874554634,0.9736782908439636],"scale":[0.9999998211860657,1,0.9999998211860657],"translation":[-0.14511357247829437,-9.313225746154785e-9,2.0815059542655945e-7]},{"children":[46],"name":"Elbow_L_034","rotation":[-3.37302274999729e-8,1.630293695598084e-7,0.10943777114152908,0.9939937591552734],"scale":[1.000000238418579,0.9999999403953552,0.9999998211860657],"translation":[-0.2651910185813904,-2.60770320892334e-8,6.51925802230835e-8]},{"children":[47,52,57],"name":"Wrist_L_035","rotation":[-0.13059288263320923,-0.010795420035719872,-0.11188468337059021,0.9850436449050903],"scale":[0.9999997019767761,0.9999998211860657,1],"translation":[-0.2734295427799225,-1.5273690223693848e-7,-3.0640512704849243e-7]},{"children":[48],"name":"MiddleFinger1_L_036","rotation":[0.0028856126591563225,0.03321821615099907,0.00996151939034462,0.999394416809082],"scale":[1,1.0000001192092896,1.000000238418579],"translation":[-0.06620276719331741,3.5390257835388184e-8,-5.7480065152049065e-8]},{"children":[49],"name":"MiddleFinger2_L_037","rotation":[-0.0013818605802953243,0.023345304653048515,0.01746843196451664,0.9995738863945007],"scale":[1,1,0.9999997615814209],"translation":[-0.03514257073402405,3.725290298461914e-9,-9.831273928284645e-8]},{"children":[50],"name":"MiddleFinger3_L_038","rotation":[0.002083053346723318,-0.0200200192630291,-0.03645337373018265,0.9991326332092285],"scale":[0.9999996423721313,0.9999997019767761,0.9999998211860657],"translation":[-0.030044227838516235,-1.30385160446167e-8,1.360895112156868e-7]},{"children":[51],"name":"MiddleFinger3_L_end_039","rotation":[-1.1408699762682772e-8,6.123445217554035e-8,-3.5390254282674505e-8,1],"scale":[1.0000001192092896,1.0000001192092896,1.0000001192092896],"translation":[2.0489096641540527e-8,0.030044332146644592,8.32369551062584e-9]},{"name":"MiddleFinger3_L_end_end_058","rotation":[-1.214306433183765e-17,1.0679391398982219e-16,1.2968053678271476e-33,1],"translation":[5.551115123125783e-17,0.03004431538283825,0]},{"children":[53],"name":"ThumbFinger1_L_040","rotation":[-0.5793068408966064,-0.3868500590324402,0.4642861783504486,0.546981692314148],"scale":[1.000000238418579,0.9999999403953552,0.9999999403953552],"translation":[-0.007599563803523779,-0.026954285800457,0.003234372241422534]},{"children":[54],"name":"ThumbFinger2_L_041","rotation":[0.04241048917174339,0.08011332899332047,0.030654853209853172,0.995411217212677],"scale":[0.9999996423721313,1,0.9999998807907104],"translation":[-0.022552983835339546,2.7474015951156616e-8,9.872019290924072e-8]},{"children":[55],"name":"ThumbFinger3_L_042","rotation":[-0.008724954910576344,-0.015295215882360935,0.0007819425081834197,0.9998446702957153],"scale":[1,1,0.9999997615814209],"translation":[-0.029777340590953827,-1.6158446669578552e-7,3.725290298461914e-9]},{"children":[56],"name":"ThumbFinger3_L_end_043","rotation":[-4.5634809708872126e-8,-3.469447613698104e-17,7.450580152834618e-9,1],"scale":[1,0.9999999403953552,1],"translation":[-2.2351741790771484e-8,0.02977735921740532,6.146728992462158e-8]},{"name":"ThumbFinger3_L_end_end_059","rotation":[2.7755575615628914e-17,-1.925929944387236e-34,-6.938893903907228e-18,1],"translation":[-5.551115123125783e-17,0.029777439311146736,-5.551115123125783e-17]},{"children":[58],"name":"IndexFinger1_L_044","rotation":[-0.08220618963241577,-0.04310876131057739,0.14355915784835815,0.9852789044380188],"scale":[1.0000001192092896,1.000000238418579,1],"translation":[-0.0591040775179863,-0.0315774604678154,-0.007836127653717995]},{"children":[59],"name":"IndexFinger2_L_045","rotation":[-0.0008845928823575377,0.033893194049596786,0.01758361980319023,0.9992703795433044],"scale":[0.9999999403953552,0.9999999403953552,0.9999999403953552],"translation":[-0.032375726848840714,5.681067705154419e-8,-1.9790606931024968e-9]},{"children":[60],"name":"IndexFinger3_L_046","rotation":[-0.01025579683482647,-0.0188896544277668,-0.010076387785375118,0.999718189239502],"scale":[1,1.0000001192092896,1],"translation":[-0.030645504593849182,5.21540641784668e-8,-2.2561289370059967e-7]},{"children":[61],"name":"IndexFinger3_L_end_047","rotation":[1.1408701539039612e-8,-2.1420420992512845e-8,1.1641533959050321e-8,1],"scale":[0.9999998807907104,0.9999999403953552,1],"translation":[-3.655441105365753e-8,0.030645381659269333,-1.2433156371116638e-7]},{"name":"IndexFinger3_L_end_end_060","rotation":[1.3877787807814457e-17,1.3877787807814457e-17,4.163336342344337e-17,1],"translation":[8.326672684688674e-17,0.03064536862075329,2.220446049250313e-16]},{"children":[63],"name":"Hip_L_048","rotation":[0.9964216947555542,0.05426187440752983,-0.04044095799326897,-0.05063636973500252],"scale":[0.9999946355819702,0.9999999403953552,0.9999943971633911],"translation":[-0.05529245734214783,-0.007855125702917576,0.08932971954345703]},{"children":[64],"name":"Knee_L_00","rotation":[-1.940182130510948e-7,-1.1525831844494405e-8,-0.011122328229248524,0.9999382495880127],"scale":[1.0000001192092896,0.9999999403953552,1.0000001192092896],"translation":[-0.4430709481239319,2.4586915969848633e-7,0.000007387352525256574]},{"children":[65],"name":"Ankle_L_049","rotation":[0.05330568552017212,0.04071495309472084,0.024059653282165527,0.99745774269104],"scale":[0.9999998211860657,0.9999998807907104,0.9999999403953552],"translation":[-0.3696412742137909,3.627501428127289e-7,0.000006189337000250816]},{"children":[66],"name":"Toes_L_050","rotation":[-0.025975631549954414,0.011085404083132744,0.7139286398887634,0.6996486783027649],"scale":[0.9999998211860657,0.9999998211860657,0.9999998807907104],"translation":[-0.07265061140060425,-0.15124203264713287,0.0000011405612667658716]},{"children":[67],"name":"Toes_L_end_051","rotation":[3.213063237694769e-8,-5.904440314452586e-8,1.053558751351602e-8,1],"scale":[0.9999999403953552,0.9999999403953552,0.9999999403953552],"translation":[2.468004822731018e-8,0.16778723895549774,1.1175870895385742e-8]},{"name":"Toes_L_end_end_061","rotation":[-2.168404344971009e-18,3.76158192263132e-36,-1.734723475976807e-18,1],"translation":[0,0.16778624057769775,2.7755575615628914e-17]},{"matrix":[100,0,0,0,0,100,-0.0000075497900979826235,0,0,0.0000075497900979826235,100,0,0,0,0,1],"name":"Object_68"},{"mesh":0,"name":"Object_69","skin":0},{"mesh":1,"name":"Object_70","skin":0},{"matrix":[100,0,0,0,0,100,-0.0000075497900979826235,0,0,0.0000075497900979826235,100,0,0,0,0,1],"name":"Object_71"},{"mesh":2,"name":"Object_72","skin":0},{"mesh":3,"name":"Object_73","skin":0},{"matrix":[100,0,0,0,0,100,-0.0000075497900979826235,0,0,0.0000075497900979826235,100,0,0,0,0,1],"name":"Object_74"},{"mesh":4,"name":"Object_75","skin":0},{"matrix":[100,0,0,0,0,100,-0.0000075497900979826235,0,0,0.0000075497900979826235,100,0,0,0,0,1],"name":"Object_76"},{"mesh":5,"name":"Object_77","skin":0},{"children":[79],"matrix":[-65.1558127516791,-44.52713915455176,-61.417049289096546,0,-32.401349332924404,89.53957282709818,-30.5420854760369,0,68.59207001076241,0.000008666908837178815,-72.76761921184274,0,735.88916015625,495.8309326171875,692.5791015625,1],"name":"Camera"},{"name":"Object_79"},{"children":[81],"matrix":[-65.15581043470905,-44.52713187381178,-61.41704460334755,0,-32.401348512179524,89.53958158969567,-30.54208563756837,0,68.5920742782876,0.0000072469902884231274,-72.76762567379689,0,735.88916015625,495.8309326171875,692.5791015625,1],"name":"Camera.001"},{"name":"Object_81"},{"children":[83],"matrix":[100,0,0,0,0,99.9999999999999,0.000004371138828673792,0,0,-0.000004371138828673792,99.9999999999999,0,0,0,0,1],"name":"cigar"},{"mesh":6,"name":"cigar_Al-Capone Suit_0"},{"children":[85],"matrix":[100,0,0,0,0,99.9999999999999,0.000004371138828673792,0,0,-0.000004371138828673792,99.9999999999999,0,0,0,0,1],"name":"eye_l"},{"mesh":7,"name":"eye_l_Al-Capone Head_0"},{"children":[87],"matrix":[100,0,0,0,0,99.9999999999999,0.000004371138828673792,0,0,-0.000004371138828673792,99.9999999999999,0,0,0,0,1],"name":"eye_r"},{"mesh":8,"name":"eye_r_Al-Capone Head_0"},{"children":[89],"matrix":[100,0,0,0,0,99.9999999999999,0.000004371138828673792,0,0,-0.000004371138828673792,99.9999999999999,0,0,0,0,1],"name":"hat"},{"mesh":9,"name":"hat_Al-Capone Hat_0"},{"children":[91],"matrix":[100,0,0,0,0,99.9999999999999,0.000004371138828673792,0,0,-0.000004371138828673792,99.9999999999999,0,0,0,0,1],"name":"mouth"},{"mesh":10,"name":"2"}],"samplers":[{"magFilter":9729,"minFilter":9987,"wrapS":10497,"wrapT":10497}],"scene":0,"scenes":[{"name":"Sketchfab_Scene","nodes":[0]}],"skins":[{"inverseBindMatrices":65,"joints":[5,6,7,8,9,10,11,12,13,14,15,16,17,18,19,20,21,22,23,24,25,26,27,28,29,30,31,32,33,34,35,36,37,38,39,40,41,42,43,44,45,46,47,48,49,50,51,52,53,54,55,56,57,58,59,60,61,62,63,64,65,66,67],"skeleton":5}],"textures":[{"sampler":0,"source":0},{"sampler":0,"source":1},{"sampler":0,"source":2},{"sampler":0,"source":3},{"sampler":0,"source":4},{"sampler":0,"source":5},{"sampler":0,"source":6},{"sampler":0,"source":7},{"sampler":0,"source":8},{"sampler":0,"source":9},{"sampler":0,"source":10},{"sampler":0,"source":11},{"sampler":0,"source":12},{"sampler":0,"source":13},{"sampler":0,"source":14}],"extensionsRequired":[]}