{"accessors":[{"bufferView":2,"componentType":5126,"count":24,"max":[2.5851194858551025,0.4393270015716553,0.24921831488609314],"min":[2.5208678245544434,-0.32540643215179443,0.11468611657619476],"type":"VEC3"},{"bufferView":2,"byteOffset":288,"componentType":5126,"count":24,"max":[0.9173542857170105,0.0760592669248581,0.4123290479183197],"min":[0.9099065661430359,-0.07605918496847153,0.39339980483055115],"type":"VEC3"},{"bufferView":1,"componentType":5126,"count":24,"max":[0.30749619007110596,0.2978069484233856],"min":[0.037927791476249695,0.22343936562538147],"type":"VEC2"},{"bufferView":0,"componentType":5125,"count":66,"type":"SCALAR"},{"bufferView":2,"byteOffset":576,"componentType":5126,"count":3543,"max":[3.754585027694702,0.7934908270835876,0.44386622309684753],"min":[-0.43677449226379395,-0.6795702576637268,-0.8785572052001953],"type":"VEC3"},{"bufferView":2,"byteOffset":43092,"componentType":5126,"count":3543,"max":[1,1,0.9999999403953552],"min":[-1,-1,-1],"type":"VEC3"},{"bufferView":1,"byteOffset":192,"componentType":5126,"count":3543,"max":[0.9665273427963257,0.9887771606445312],"min":[0.1787930428981781,0.016535799950361252],"type":"VEC2"},{"bufferView":1,"byteOffset":28536,"componentType":5126,"count":3543,"max":[0.9665273427963257,0.9887771606445312],"min":[0.1787930428981781,0.016535799950361252],"type":"VEC2"},{"bufferView":0,"byteOffset":264,"componentType":5125,"count":11952,"type":"SCALAR"},{"bufferView":2,"byteOffset":85608,"componentType":5126,"count":584,"max":[1.1339930295944214,0.5821409225463867,0.040146686136722565],"min":[-0.061586976051330566,-0.4690563678741455,-0.627090573310852],"type":"VEC3"},{"bufferView":2,"byteOffset":92616,"componentType":5126,"count":584,"max":[0.9952369928359985,0.9868369698524475,0.7953065633773804],"min":[-0.9903417825698853,-0.9868369698524475,-0.9995971918106079],"type":"VEC3"},{"bufferView":1,"byteOffset":56880,"componentType":5126,"count":584,"max":[0.5580681562423706,0.8183245658874512],"min":[0.010516111738979816,0.28982508182525635],"type":"VEC2"},{"bufferView":1,"byteOffset":61552,"componentType":5126,"count":584,"max":[0.5580681562423706,0.8183245658874512],"min":[0.010516111738979816,0.28982508182525635],"type":"VEC2"},{"bufferView":1,"byteOffset":66224,"componentType":5126,"count":584,"max":[0.5580681562423706,0.8183245658874512],"min":[0.010516111738979816,0.28982508182525635],"type":"VEC2"},{"bufferView":0,"byteOffset":48072,"componentType":5125,"count":1632,"type":"SCALAR"},{"bufferView":2,"byteOffset":99624,"componentType":5126,"count":1659,"max":[0.8289902806282043,0.6752943992614746,0.5784346461296082],"min":[-0.7956128716468811,-0.6763361692428589,-0.6276306509971619],"type":"VEC3"},{"bufferView":2,"byteOffset":119532,"componentType":5126,"count":1659,"max":[1,0.9999999403953552,1],"min":[-0.9996808171272278,-0.9999999403953552,-0.9997969269752502],"type":"VEC3"},{"bufferView":1,"byteOffset":70896,"componentType":5126,"count":1659,"max":[0.49874407052993774,0.8708963990211487],"min":[0.0942525863647461,0.5285966992378235],"type":"VEC2"},{"bufferView":1,"byteOffset":84168,"componentType":5126,"count":1659,"max":[0.49874407052993774,0.8708963990211487],"min":[0.0942525863647461,0.5285966992378235],"type":"VEC2"},{"bufferView":0,"byteOffset":54600,"componentType":5125,"count":5082,"type":"SCALAR"},{"bufferView":2,"byteOffset":139440,"componentType":5126,"count":22,"max":[0.1466616839170456,0.4384068548679352,0.0917295590043068],"min":[0.13884258270263672,-0.4404187500476837,0.019585251808166504],"type":"VEC3"},{"bufferView":2,"byteOffset":139704,"componentType":5126,"count":22,"max":[0.9997912049293518,0.1827782392501831,0.19401481747627258],"min":[0.9793848395347595,-0.18277837336063385,-0.15359295904636383],"type":"VEC3"},{"bufferView":1,"byteOffset":97440,"componentType":5126,"count":22,"max":[0.5665618181228638,0.17112207412719727],"min":[0.5072792768478394,0.11539097130298615],"type":"VEC2"},{"bufferView":0,"byteOffset":74928,"componentType":5125,"count":60,"type":"SCALAR"},{"bufferView":2,"byteOffset":139968,"componentType":5126,"count":28,"max":[1.3425703048706055,0.5744293332099915,0.2759822905063629],"min":[1.2658045291900635,-0.4605087637901306,0.025740288197994232],"type":"VEC3"},{"bufferView":2,"byteOffset":140304,"componentType":5126,"count":28,"max":[-0.9071286916732788,0.27894526720046997,0.31575196981430054],"min":[-0.9593903422355652,-0.2789444923400879,0.27441394329071045],"type":"VEC3"},{"bufferView":1,"byteOffset":97616,"componentType":5126,"count":28,"max":[0.29673662781715393,0.434685617685318],"min":[0.04106157273054123,0.3707781136035919],"type":"VEC2"},{"bufferView":0,"byteOffset":75168,"componentType":5125,"count":78,"type":"SCALAR"},{"bufferView":2,"byteOffset":140640,"componentType":5126,"count":22,"max":[0.6115884184837341,1.232755184173584,0.46928495168685913],"min":[-0.20495696365833282,1.127595067024231,0.18477946519851685],"type":"VEC3"},{"bufferView":2,"byteOffset":140904,"componentType":5126,"count":22,"max":[-0.07750293612480164,0.9969921708106995,0.004252065904438496],"min":[-0.2750190198421478,0.9614294767379761,-0.060685425996780396],"type":"VEC3"},{"bufferView":1,"byteOffset":97840,"componentType":5126,"count":22,"max":[0.18118664622306824,0.1335509568452835],"min":[0.02537286840379238,0.06161632761359215],"type":"VEC2"},{"bufferView":0,"byteOffset":75480,"componentType":5125,"count":60,"type":"SCALAR"},{"bufferView":2,"byteOffset":141168,"componentType":5126,"count":624,"max":[1.1339930295944214,0.5821409225463867,0.0426773838698864],"min":[-0.061586976051330566,-0.4690563678741455,-0.627090573310852],"type":"VEC3"},{"bufferView":2,"byteOffset":148656,"componentType":5126,"count":624,"max":[0.18556441366672516,0.9862251281738281,0.9997450709342957],"min":[-0.8206831216812134,-0.9862251281738281,-0.8171451091766357],"type":"VEC3"},{"bufferView":1,"byteOffset":98016,"componentType":5126,"count":624,"max":[0.38966062664985657,0.9459550976753235],"min":[0.0949552059173584,0.3459590673446655],"type":"VEC2"},{"bufferView":1,"byteOffset":103008,"componentType":5126,"count":624,"max":[0.38966062664985657,0.9459550976753235],"min":[0.0949552059173584,0.3459590673446655],"type":"VEC2"},{"bufferView":0,"byteOffset":75720,"componentType":5125,"count":1788,"type":"SCALAR"},{"bufferView":2,"byteOffset":156144,"componentType":5126,"count":99,"max":[3.5097575187683105,0.5290961861610413,0.06119394302368164],"min":[2.753044605255127,-0.4151756167411804,-0.42743396759033203],"type":"VEC3"},{"bufferView":2,"byteOffset":157332,"componentType":5126,"count":99,"max":[0.8639512658119202,0.31346210837364197,0.9998787045478821],"min":[-0.09834534674882889,-0.3134620785713196,0.4995359778404236],"type":"VEC3"},{"bufferView":1,"byteOffset":108000,"componentType":5126,"count":99,"max":[0.9098538756370544,0.7143453359603882],"min":[0.7801359295845032,0.5777707695960999],"type":"VEC2"},{"bufferView":1,"byteOffset":108792,"componentType":5126,"count":99,"max":[0.9098538756370544,0.7143453359603882],"min":[0.7801359295845032,0.5777707695960999],"type":"VEC2"},{"bufferView":0,"byteOffset":82872,"componentType":5125,"count":492,"type":"SCALAR"},{"bufferView":2,"byteOffset":158520,"componentType":5126,"count":99,"max":[3.5097575187683105,0.5290961861610413,0.059194933623075485],"min":[2.753044605255127,-0.4151756167411804,-0.42743396759033203],"type":"VEC3"},{"bufferView":2,"byteOffset":159708,"componentType":5126,"count":99,"max":[0.9990524053573608,0.9966064095497131,0.9923992156982422],"min":[-0.7879438996315002,-0.999096691608429,-0.9938264489173889],"type":"VEC3"},{"bufferView":1,"byteOffset":109584,"componentType":5126,"count":99,"max":[0.9025098085403442,0.9178277254104614],"min":[0.37299537658691406,0.39944398403167725],"type":"VEC2"},{"bufferView":1,"byteOffset":110376,"componentType":5126,"count":99,"max":[0.9025098085403442,0.9178277254104614],"min":[0.37299537658691406,0.39944398403167725],"type":"VEC2"},{"bufferView":1,"byteOffset":111168,"componentType":5126,"count":99,"max":[0.9025098085403442,0.9178277254104614],"min":[0.37299537658691406,0.39944398403167725],"type":"VEC2"},{"bufferView":0,"byteOffset":84840,"componentType":5125,"count":357,"type":"SCALAR"},{"bufferView":2,"byteOffset":160896,"componentType":5126,"count":1481,"max":[3.7468998432159424,0.7297260165214539,0.059194933623075485],"min":[-0.2688845992088318,-0.615805447101593,-0.8785572052001953],"type":"VEC3"},{"bufferView":2,"byteOffset":178668,"componentType":5126,"count":1481,"max":[0.9999531507492065,1,1],"min":[-0.9999780654907227,-1,-1],"type":"VEC3"},{"bufferView":1,"byteOffset":111960,"componentType":5126,"count":1481,"max":[0.998062014579773,0.9983172416687012],"min":[0.0010986288543790579,0.06605955958366394],"type":"VEC2"},{"bufferView":1,"byteOffset":123808,"componentType":5126,"count":1481,"max":[0.998062014579773,0.9983172416687012],"min":[0.0010986288543790579,0.06605955958366394],"type":"VEC2"},{"bufferView":1,"byteOffset":135656,"componentType":5126,"count":1481,"max":[0.998062014579773,0.9983172416687012],"min":[0.0010986288543790579,0.06605955958366394],"type":"VEC2"},{"bufferView":0,"byteOffset":86268,"componentType":5125,"count":5118,"type":"SCALAR"},{"bufferView":2,"byteOffset":196440,"componentType":5126,"count":44,"max":[1.7028316259384155,-0.21555417776107788,0.7971352338790894],"min":[1.682989478111267,-1.1487278938293457,0.5964686870574951],"type":"VEC3"},{"bufferView":2,"byteOffset":196968,"componentType":5126,"count":44,"max":[-0.9481905102729797,0.3112749755382538,0.3140004575252533],"min":[-0.9999629855155945,-0.3112752139568329,-0.31753629446029663],"type":"VEC3"},{"bufferView":1,"byteOffset":147504,"componentType":5126,"count":44,"max":[0.7311739325523376,0.12659591436386108],"min":[0.6163782477378845,0.011388220824301243],"type":"VEC2"},{"bufferView":0,"byteOffset":106740,"componentType":5125,"count":168,"type":"SCALAR"},{"bufferView":2,"byteOffset":197496,"componentType":5126,"count":1047,"max":[3.8327338695526123,0.9502063989639282,-0.17913037538528442],"min":[-0.3393232822418213,-0.8383879065513611,-0.8852696418762207],"type":"VEC3"},{"bufferView":2,"byteOffset":210060,"componentType":5126,"count":1047,"max":[0.9999998807907104,0.9999997615814209,0.9999937415122986],"min":[-0.9982508420944214,-0.9999935626983643,-0.9999916553497314],"type":"VEC3"},{"bufferView":1,"byteOffset":147856,"componentType":5126,"count":1047,"max":[0.9526153802871704,0.8226556181907654],"min":[0.00244153686799109,0.058319803327322006],"type":"VEC2"},{"bufferView":1,"byteOffset":156232,"componentType":5126,"count":1047,"max":[0.9526153802871704,0.8226556181907654],"min":[0.00244153686799109,0.058319803327322006],"type":"VEC2"},{"bufferView":1,"byteOffset":164608,"componentType":5126,"count":1047,"max":[0.9526153802871704,0.8226556181907654],"min":[0.00244153686799109,0.058319803327322006],"type":"VEC2"},{"bufferView":0,"byteOffset":107412,"componentType":5125,"count":3546,"type":"SCALAR"},{"bufferView":2,"byteOffset":222624,"componentType":5126,"count":1238,"max":[3.843113422393799,0.9526498317718506,-0.2620142102241516],"min":[-0.35408926010131836,-0.8386483192443848,-0.8821244239807129],"type":"VEC3"},{"bufferView":2,"byteOffset":237480,"componentType":5126,"count":1238,"max":[0.9999907612800598,0.9999997615814209,0.9998914003372192],"min":[-0.9999998807907104,-0.9999954104423523,-0.999987006187439],"type":"VEC3"},{"bufferView":1,"byteOffset":172984,"componentType":5126,"count":1238,"max":[0.9932453632354736,0.9411367177963257],"min":[0.061140939593315125,0.35171014070510864],"type":"VEC2"},{"bufferView":1,"byteOffset":182888,"componentType":5126,"count":1238,"max":[0.9932453632354736,0.9411367177963257],"min":[0.061140939593315125,0.35171014070510864],"type":"VEC2"},{"bufferView":0,"byteOffset":121596,"componentType":5125,"count":5328,"type":"SCALAR"},{"bufferView":2,"byteOffset":252336,"componentType":5126,"count":2105,"max":[3.823146104812622,0.46173787117004395,-0.01878511905670166],"min":[-0.04300758242607117,-0.3685916066169739,-0.8929101824760437],"type":"VEC3"},{"bufferView":2,"byteOffset":277596,"componentType":5126,"count":2105,"max":[1,1,1],"min":[-1,-1,-1],"type":"VEC3"},{"bufferView":1,"byteOffset":192792,"componentType":5126,"count":2105,"max":[0.9927698969841003,0.9426215291023254],"min":[-0.0009816399542614818,0.01232462003827095],"type":"VEC2"},{"bufferView":1,"byteOffset":209632,"componentType":5126,"count":2105,"max":[0.9927698969841003,0.9426215291023254],"min":[-0.0009816399542614818,0.01232462003827095],"type":"VEC2"},{"bufferView":1,"byteOffset":226472,"componentType":5126,"count":2105,"max":[0.9927698969841003,0.9426215291023254],"min":[-0.0009816399542614818,0.01232462003827095],"type":"VEC2"},{"bufferView":0,"byteOffset":142908,"componentType":5125,"count":6246,"type":"SCALAR"},{"bufferView":2,"byteOffset":302856,"componentType":5126,"count":354,"max":[1.1339930295944214,0.5821409225463867,0.042635563760995865],"min":[-0.061586976051330566,-0.47016358375549316,-0.6268914937973022],"type":"VEC3"},{"bufferView":2,"byteOffset":307104,"componentType":5126,"count":354,"max":[0.9999893307685852,0.9862251281738281,0.9997567534446716],"min":[-0.9915710687637329,-0.9862251281738281,-0.9999908208847046],"type":"VEC3"},{"bufferView":1,"byteOffset":243312,"componentType":5126,"count":354,"max":[0.8309701085090637,0.945927619934082],"min":[0.1767747849225998,0.23187270760536194],"type":"VEC2"},{"bufferView":1,"byteOffset":246144,"componentType":5126,"count":354,"max":[0.8309701085090637,0.945927619934082],"min":[0.1767747849225998,0.23187270760536194],"type":"VEC2"},{"bufferView":0,"byteOffset":167892,"componentType":5125,"count":1188,"type":"SCALAR"},{"bufferView":2,"byteOffset":311352,"componentType":5126,"count":204,"max":[1.1339930295944214,0.5821409225463867,0.040146686136722565],"min":[-0.061586976051330566,-0.4690563678741455,-0.626891553401947],"type":"VEC3"},{"bufferView":2,"byteOffset":313800,"componentType":5126,"count":204,"max":[0.9952369928359985,0.9788959622383118,0.2110777646303177],"min":[-0.9903417825698853,-0.978895902633667,-0.9987676739692688],"type":"VEC3"},{"bufferView":1,"byteOffset":248976,"componentType":5126,"count":204,"max":[0.11374050378799438,0.8183245658874512],"min":[0.010516111738979816,0.7301013469696045],"type":"VEC2"},{"bufferView":1,"byteOffset":250608,"componentType":5126,"count":204,"max":[0.11374050378799438,0.8183245658874512],"min":[0.010516111738979816,0.7301013469696045],"type":"VEC2"},{"bufferView":1,"byteOffset":252240,"componentType":5126,"count":204,"max":[0.11374050378799438,0.8183245658874512],"min":[0.010516111738979816,0.7301013469696045],"type":"VEC2"},{"bufferView":0,"byteOffset":172644,"componentType":5125,"count":600,"type":"SCALAR"},{"bufferView":2,"byteOffset":316248,"componentType":5126,"count":22,"max":[0.6115884184837341,0.03860008716583252,0.46928492188453674],"min":[-0.2049569934606552,-0.06655991077423096,0.18477946519851685],"type":"VEC3"},{"bufferView":2,"byteOffset":316512,"componentType":5126,"count":22,"max":[-0.07750208675861359,-0.9614279270172119,0.004253483843058348],"min":[-0.2750241160392761,-0.9969921708106995,-0.06067982316017151],"type":"VEC3"},{"bufferView":1,"byteOffset":253872,"componentType":5126,"count":22,"max":[0.18118667602539062,0.13355103135108948],"min":[0.025372890755534172,0.06161638721823692],"type":"VEC2"},{"bufferView":0,"byteOffset":175044,"componentType":5125,"count":60,"type":"SCALAR"},{"bufferView":2,"byteOffset":316776,"componentType":5126,"count":159,"max":[-0.0948554277420044,-0.07797083258628845,0.15309396386146545],"min":[-0.2768109440803528,-0.3982643485069275,-0.12752296030521393],"type":"VEC3"},{"bufferView":2,"byteOffset":318684,"componentType":5126,"count":159,"max":[0.9880841374397278,0.9848095178604126,0.9543596506118774],"min":[-0.9049713611602783,-0.9848092198371887,-0.8628156185150146],"type":"VEC3"},{"bufferView":1,"byteOffset":254048,"componentType":5126,"count":159,"max":[0.49922919273376465,0.998812198638916],"min":[0.39449137449264526,0.8285669088363647],"type":"VEC2"},{"bufferView":1,"byteOffset":255320,"componentType":5126,"count":159,"max":[0.49922919273376465,0.998812198638916],"min":[0.39449137449264526,0.8285669088363647],"type":"VEC2"},{"bufferView":0,"byteOffset":175284,"componentType":5125,"count":771,"type":"SCALAR"},{"bufferView":2,"byteOffset":320592,"componentType":5126,"count":30,"max":[-0.0679071843624115,0.5244665145874023,-0.1847711205482483],"min":[-0.09371592104434967,-0.4087073802947998,-0.38526856899261475],"type":"VEC3"},{"bufferView":2,"byteOffset":320952,"componentType":5126,"count":30,"max":[-0.9673833250999451,0.206154003739357,0.25331705808639526],"min":[-0.9990524053573608,-0.20615382492542267,-0.16832266747951508],"type":"VEC3"},{"bufferView":1,"byteOffset":256592,"componentType":5126,"count":30,"max":[0.7993664145469666,0.11796175688505173],"min":[0.7347991466522217,0.05390922352671623],"type":"VEC2"},{"bufferView":0,"byteOffset":178368,"componentType":5125,"count":84,"type":"SCALAR"},{"bufferView":2,"byteOffset":321312,"componentType":5126,"count":854,"max":[0.34999996423721313,0.15129370987415314,0.34999990463256836],"min":[-0.34999993443489075,-0.1509244292974472,-0.3500000834465027],"type":"VEC3"},{"bufferView":2,"byteOffset":331560,"componentType":5126,"count":854,"max":[1,1,1],"min":[-1,-1,-1],"type":"VEC3"},{"bufferView":1,"byteOffset":256832,"componentType":5126,"count":854,"max":[0.9929771423339844,0.9927381277084351],"min":[0.015149518847465515,0.007186064030975103],"type":"VEC2"},{"bufferView":1,"byteOffset":263664,"componentType":5126,"count":854,"max":[0.9929771423339844,0.9927381277084351],"min":[0.015149518847465515,0.007186064030975103],"type":"VEC2"},{"bufferView":0,"byteOffset":178704,"componentType":5125,"count":3129,"type":"SCALAR"},{"bufferView":2,"byteOffset":341808,"componentType":5126,"count":854,"max":[0.34999996423721313,0.15129370987415314,0.34999990463256836],"min":[-0.34999993443489075,-0.1509244292974472,-0.3500000834465027],"type":"VEC3"},{"bufferView":2,"byteOffset":352056,"componentType":5126,"count":854,"max":[1,1,1],"min":[-1,-1,-1],"type":"VEC3"},{"bufferView":1,"byteOffset":270496,"componentType":5126,"count":854,"max":[0.9929771423339844,0.9927381277084351],"min":[0.015149518847465515,0.007186064030975103],"type":"VEC2"},{"bufferView":1,"byteOffset":277328,"componentType":5126,"count":854,"max":[0.9929771423339844,0.9927381277084351],"min":[0.015149518847465515,0.007186064030975103],"type":"VEC2"},{"bufferView":0,"byteOffset":191220,"componentType":5125,"count":3129,"type":"SCALAR"},{"bufferView":2,"byteOffset":362304,"componentType":5126,"count":854,"max":[0.34999996423721313,0.15129370987415314,0.34999990463256836],"min":[-0.34999993443489075,-0.1509244292974472,-0.3500000834465027],"type":"VEC3"},{"bufferView":2,"byteOffset":372552,"componentType":5126,"count":854,"max":[1,1,1],"min":[-1,-1,-1],"type":"VEC3"},{"bufferView":1,"byteOffset":284160,"componentType":5126,"count":854,"max":[0.9929771423339844,0.9927381277084351],"min":[0.015149518847465515,0.007186064030975103],"type":"VEC2"},{"bufferView":1,"byteOffset":290992,"componentType":5126,"count":854,"max":[0.9929771423339844,0.9927381277084351],"min":[0.015149518847465515,0.007186064030975103],"type":"VEC2"},{"bufferView":0,"byteOffset":203736,"componentType":5125,"count":3129,"type":"SCALAR"},{"bufferView":2,"byteOffset":382800,"componentType":5126,"count":854,"max":[0.34999996423721313,0.15129370987415314,0.34999990463256836],"min":[-0.34999993443489075,-0.1509244292974472,-0.3500000834465027],"type":"VEC3"},{"bufferView":2,"byteOffset":393048,"componentType":5126,"count":854,"max":[1,1,1],"min":[-1,-1,-1],"type":"VEC3"},{"bufferView":1,"byteOffset":297824,"componentType":5126,"count":854,"max":[0.9929771423339844,0.9927381277084351],"min":[0.015149518847465515,0.007186064030975103],"type":"VEC2"},{"bufferView":1,"byteOffset":304656,"componentType":5126,"count":854,"max":[0.9929771423339844,0.9927381277084351],"min":[0.015149518847465515,0.007186064030975103],"type":"VEC2"},{"bufferView":0,"byteOffset":216252,"componentType":5125,"count":3129,"type":"SCALAR"},{"bufferView":2,"byteOffset":403296,"componentType":5126,"count":2254,"max":[3.1635520458221436,0.3939768970012665,0.43117639422416687],"min":[-1.0222537517547607,-0.0790846198797226,-1.337628960609436],"type":"VEC3"},{"bufferView":2,"byteOffset":430344,"componentType":5126,"count":2254,"max":[1,1,1],"min":[-1,-1,-1],"type":"VEC3"},{"bufferView":1,"byteOffset":311488,"componentType":5126,"count":2254,"max":[0.7137959003448486,0.985822856426239],"min":[0.003271625144407153,0.04717109724879265],"type":"VEC2"},{"bufferView":1,"byteOffset":329520,"componentType":5126,"count":2254,"max":[0.7137959003448486,0.985822856426239],"min":[0.003271625144407153,0.04717109724879265],"type":"VEC2"},{"bufferView":1,"byteOffset":347552,"componentType":5126,"count":2254,"max":[0.7137959003448486,0.985822856426239],"min":[0.003271625144407153,0.04717109724879265],"type":"VEC2"},{"bufferView":0,"byteOffset":228768,"componentType":5125,"count":6372,"type":"SCALAR"},{"bufferView":2,"byteOffset":457392,"componentType":5126,"count":96,"max":[-0.3421662151813507,0.5598644614219666,0.004290614277124405],"min":[-0.642166256904602,0.4098644554615021,0],"type":"VEC3"},{"bufferView":2,"byteOffset":458544,"componentType":5126,"count":96,"max":[0.8277473449707031,0.8206135630607605,1],"min":[-0.8277504444122314,-0.820611298084259,-1],"type":"VEC3"},{"bufferView":1,"byteOffset":365584,"componentType":5126,"count":96,"max":[0.9990516901016235,1],"min":[0.19564086198806763,0.183744877576828],"type":"VEC2"},{"bufferView":1,"byteOffset":366352,"componentType":5126,"count":96,"max":[0.9990516901016235,1],"min":[0.19564086198806763,0.183744877576828],"type":"VEC2"},{"bufferView":0,"byteOffset":254256,"componentType":5125,"count":240,"type":"SCALAR"},{"bufferView":2,"byteOffset":459696,"componentType":5126,"count":34,"max":[1.9545303583145142,-1.6410915851593018,0.00001468988830310991],"min":[1.7940536737442017,-1.8700380325317383,-0.000039577120332978666],"type":"VEC3"},{"bufferView":2,"byteOffset":460104,"componentType":5126,"count":34,"max":[0,0,1],"min":[0,0,1],"type":"VEC3"},{"bufferView":1,"byteOffset":367120,"componentType":5126,"count":34,"max":[0.9322834610939026,1],"min":[0.0957026332616806,0.12153748422861099],"type":"VEC2"},{"bufferView":1,"byteOffset":367392,"componentType":5126,"count":34,"max":[0.9322834610939026,1],"min":[0.0957026332616806,0.12153748422861099],"type":"VEC2"},{"bufferView":1,"byteOffset":367664,"componentType":5126,"count":34,"max":[0.9322834610939026,1],"min":[0.0957026332616806,0.12153748422861099],"type":"VEC2"},{"bufferView":0,"byteOffset":255216,"componentType":5125,"count":60,"type":"SCALAR"},{"bufferView":2,"byteOffset":460512,"componentType":5126,"count":137,"max":[-0.35826852917671204,0.29301899671554565,0.014441519975662231],"min":[-0.6241661906242371,-0.179098442196846,-0.8541834950447083],"type":"VEC3"},{"bufferView":2,"byteOffset":462156,"componentType":5126,"count":137,"max":[-0.2876307964324951,0.8655276894569397,0.9559807777404785],"min":[-0.9892405271530151,-0.8655266761779785,-0.9053436517715454],"type":"VEC3"},{"bufferView":1,"byteOffset":367936,"componentType":5126,"count":137,"max":[0.2993132472038269,0.2760334610939026],"min":[0.24473312497138977,0.17279455065727234],"type":"VEC2"},{"bufferView":1,"byteOffset":369032,"componentType":5126,"count":137,"max":[0.2993132472038269,0.2760334610939026],"min":[0.24473312497138977,0.17279455065727234],"type":"VEC2"},{"bufferView":0,"byteOffset":255456,"componentType":5125,"count":492,"type":"SCALAR"}],"asset":{"extras":{"author":"Daniel Zhabotinsky (https://sketchfab.com/DanielZhabotinsky)","license":"CC-BY-4.0 (http://creativecommons.org/licenses/by/4.0/)","source":"https://sketchfab.com/3d-models/coupe-33-hot-rod-3-low-poly-model-cb5b519024c7472895ef10a8663fb533","title":"Coupe '33 Hot Rod #3 - Low Poly Model"},"generator":"Sketchfab-16.74.0","version":"2.0"},"bufferViews":[{"buffer":0,"byteLength":257424,"name":"floatBufferViews","target":34963},{"buffer":0,"byteLength":370128,"byteOffset":257424,"byteStride":8,"name":"floatBufferViews","target":34962},{"buffer":0,"byteLength":463800,"byteOffset":627552,"byteStride":12,"name":"floatBufferViews","target":34962}],"buffers":[{"byteLength":1091352,"uri":"scene.bin"}],"extensionsUsed":["KHR_texture_transform","KHR_materials_specular"],"images":[{"uri":"textures/UCB_Lights_and_Glass_Transperent_baseColor.webp","mimeType":"image/webp"},{"uri":"textures/HOTROD_33_bodymat_metallicRoughness.webp","mimeType":"image/webp"},{"uri":"textures/HOTROD_33_bodymat_specularf0.webp","mimeType":"image/webp"},{"uri":"textures/UCB_BOTTOM_baseColor.webp","mimeType":"image/webp"},{"uri":"textures/UCB_BOTTOM_metallicRoughness.webp","mimeType":"image/webp"},{"uri":"textures/UCB_BOTTOM_specularf0.webp","mimeType":"image/webp"},{"uri":"textures/UCB_Interiors_2_baseColor.webp","mimeType":"image/webp"},{"uri":"textures/UCB_Interiors_2_metallicRoughness.webp","mimeType":"image/webp"},{"uri":"textures/RB1c_Tire_1k_baseColor.webp","mimeType":"image/webp"},{"uri":"textures/RB1c_Tire_1k_metallicRoughness.webp","mimeType":"image/webp"},{"uri":"textures/RB1c_Tire_1k_specularf0.webp","mimeType":"image/webp"},{"uri":"textures/Numberplates_Misk_U_baseColor.webp","mimeType":"image/webp"},{"uri":"textures/Carbadges_misc_U_baseColor.webp","mimeType":"image/webp"}],"materials":[{"alphaMode":"BLEND","doubleSided":true,"name":"UCB_Lights_and_Glass_Transperent","pbrMetallicRoughness":{"baseColorFactor":[1,1,1,0.8],"baseColorTexture":{"index":0},"metallicFactor":0,"roughnessFactor":0.06042642820938637}},{"doubleSided":true,"extensions":{"KHR_materials_specular":{"specularColorFactor":[1,1,1],"specularFactor":1,"specularTexture":{"index":2}}},"name":"HOTROD_33_bodymat","occlusionTexture":{"index":1},"pbrMetallicRoughness":{"baseColorFactor":[1,0.533276404010505,0.012983032342173012,1],"metallicRoughnessTexture":{"extensions":{"KHR_texture_transform":{"scale":[20.000000000000004,20.000000000000004]}},"index":1},"roughnessFactor":0.17690762518707168}},{"doubleSided":true,"extensions":{"KHR_materials_specular":{"specularColorFactor":[1,1,1],"specularFactor":1,"specularTexture":{"index":5}}},"name":"UCB_BOTTOM","occlusionTexture":{"index":4},"pbrMetallicRoughness":{"baseColorTexture":{"index":3},"metallicRoughnessTexture":{"index":4}}},{"doubleSided":true,"name":"UCB_Interiors_2","pbrMetallicRoughness":{"baseColorTexture":{"index":6},"metallicRoughnessTexture":{"index":7}}},{"doubleSided":true,"name":"UCB_Lights_and_Glass","pbrMetallicRoughness":{"baseColorTexture":{"index":0},"metallicFactor":0,"roughnessFactor":0.06042642820938637}},{"doubleSided":true,"extensions":{"KHR_materials_specular":{"specularColorFactor":[1,1,1],"specularFactor":1,"specularTexture":{"index":10}}},"name":"RB1c_Tire_1k","occlusionTexture":{"index":9},"pbrMetallicRoughness":{"baseColorTexture":{"index":8},"metallicFactor":0.8,"metallicRoughnessTexture":{"index":9}}},{"alphaMode":"BLEND","doubleSided":true,"name":"Numberplates_Misk_U","pbrMetallicRoughness":{"baseColorTexture":{"index":11},"metallicFactor":0,"roughnessFactor":0.09157309832869233}},{"alphaMode":"BLEND","doubleSided":true,"name":"Carbadges_misc_U","pbrMetallicRoughness":{"baseColorTexture":{"index":12},"metallicFactor":0.710238468558463,"roughnessFactor":0.10702864035024488}}],"meshes":[{"name":"HOTROD_33A_Rear_window_UCB_Lights_and_Glass_Transperent_0","primitives":[{"attributes":{"NORMAL":1,"POSITION":0,"TEXCOORD_0":2},"indices":3,"material":0,"mode":4}]},{"name":"HOTROD_33A_body_HOTROD_33_bodymat_0","primitives":[{"attributes":{"NORMAL":5,"POSITION":4,"TEXCOORD_0":6,"TEXCOORD_1":7},"indices":8,"material":1,"mode":4}]},{"name":"HOTROD_33A_hoodStock_inner_UCB_BOTTOM_0","primitives":[{"attributes":{"NORMAL":10,"POSITION":9,"TEXCOORD_0":11,"TEXCOORD_1":12,"TEXCOORD_2":13},"indices":14,"material":2,"mode":4}]},{"name":"HOTROD_33A_interior_UCB_Interiors_2_0","primitives":[{"attributes":{"NORMAL":16,"POSITION":15,"TEXCOORD_0":17,"TEXCOORD_1":18},"indices":19,"material":3,"mode":4}]},{"name":"HOTROD_33A_Brakelights_UCB_Lights_and_Glass_0","primitives":[{"attributes":{"NORMAL":21,"POSITION":20,"TEXCOORD_0":22},"indices":23,"material":4,"mode":4}]},{"name":"HOTROD_33A_Windshield_UCB_Lights_and_Glass_Transperent_0","primitives":[{"attributes":{"NORMAL":25,"POSITION":24,"TEXCOORD_0":26},"indices":27,"material":0,"mode":4}]},{"name":"HOTROD_33A_Glass_Passanger_UCB_Lights_and_Glass_Transperent_0","primitives":[{"attributes":{"NORMAL":29,"POSITION":28,"TEXCOORD_0":30},"indices":31,"material":0,"mode":4}]},{"name":"HOTROD_33A_HoodStock_HOTROD_33_bodymat_0","primitives":[{"attributes":{"NORMAL":33,"POSITION":32,"TEXCOORD_0":34,"TEXCOORD_1":35},"indices":36,"material":1,"mode":4}]},{"name":"HOTROD_33A_Trunkdoor_HOTROD_33_bodymat_0","primitives":[{"attributes":{"NORMAL":38,"POSITION":37,"TEXCOORD_0":39,"TEXCOORD_1":40},"indices":41,"material":1,"mode":4}]},{"name":"HOTROD_33A_Trunkdoor_inner_UCB_BOTTOM_0","primitives":[{"attributes":{"NORMAL":43,"POSITION":42,"TEXCOORD_0":44,"TEXCOORD_1":45,"TEXCOORD_2":46},"indices":47,"material":2,"mode":4}]},{"name":"HOTROD_33A_Bottom_UCB_BOTTOM_0","primitives":[{"attributes":{"NORMAL":49,"POSITION":48,"TEXCOORD_0":50,"TEXCOORD_1":51,"TEXCOORD_2":52},"indices":53,"material":2,"mode":4}]},{"name":"HOTROD_33B_Headlights_Glass_UCB_Lights_and_Glass_Transperent_0","primitives":[{"attributes":{"NORMAL":55,"POSITION":54,"TEXCOORD_0":56},"indices":57,"material":0,"mode":4}]},{"name":"HOTROD_33B_Trim_UCB_BOTTOM_0","primitives":[{"attributes":{"NORMAL":59,"POSITION":58,"TEXCOORD_0":60,"TEXCOORD_1":61,"TEXCOORD_2":62},"indices":63,"material":2,"mode":4}]},{"name":"HOTROD_33B_Sideskirts_HOTROD_33_bodymat_0","primitives":[{"attributes":{"NORMAL":65,"POSITION":64,"TEXCOORD_0":66,"TEXCOORD_1":67},"indices":68,"material":1,"mode":4}]},{"name":"HOTROD_33A_EngineStock_UCB_BOTTOM_0","primitives":[{"attributes":{"NORMAL":70,"POSITION":69,"TEXCOORD_0":71,"TEXCOORD_1":72,"TEXCOORD_2":73},"indices":74,"material":2,"mode":4}]},{"name":"HOTROD_33A_HoodCutted_HOTROD_33_bodymat_0","primitives":[{"attributes":{"NORMAL":76,"POSITION":75,"TEXCOORD_0":77,"TEXCOORD_1":78},"indices":79,"material":1,"mode":4}]},{"name":"HOTROD_33A_hoodCutted_inner_UCB_BOTTOM_0","primitives":[{"attributes":{"NORMAL":81,"POSITION":80,"TEXCOORD_0":82,"TEXCOORD_1":83,"TEXCOORD_2":84},"indices":85,"material":2,"mode":4}]},{"name":"HOTROD_33A_Glass_Driver_UCB_Lights_and_Glass_Transperent_0","primitives":[{"attributes":{"NORMAL":87,"POSITION":86,"TEXCOORD_0":88},"indices":89,"material":0,"mode":4}]},{"name":"HOTROD_33A_Steering_Wheel_UCB_Interiors_2_0","primitives":[{"attributes":{"NORMAL":91,"POSITION":90,"TEXCOORD_0":92,"TEXCOORD_1":93},"indices":94,"material":3,"mode":4}]},{"name":"HOTROD_33B_Headlights_UCB_Lights_and_Glass_0","primitives":[{"attributes":{"NORMAL":96,"POSITION":95,"TEXCOORD_0":97},"indices":98,"material":4,"mode":4}]},{"name":"HOTROD_33_WheelBlades_FL_RB1c_Tire_1k_0","primitives":[{"attributes":{"NORMAL":100,"POSITION":99,"TEXCOORD_0":101,"TEXCOORD_1":102},"indices":103,"material":5,"mode":4}]},{"name":"HOTROD_33_WheelBlades_RL_RB1c_Tire_1k_0","primitives":[{"attributes":{"NORMAL":105,"POSITION":104,"TEXCOORD_0":106,"TEXCOORD_1":107},"indices":108,"material":5,"mode":4}]},{"name":"HOTROD_33_WheelBlades_RR_RB1c_Tire_1k_0","primitives":[{"attributes":{"NORMAL":110,"POSITION":109,"TEXCOORD_0":111,"TEXCOORD_1":112},"indices":113,"material":5,"mode":4}]},{"name":"HOTROD_33_WheelBlades_FR_RB1c_Tire_1k_0","primitives":[{"attributes":{"NORMAL":115,"POSITION":114,"TEXCOORD_0":116,"TEXCOORD_1":117},"indices":118,"material":5,"mode":4}]},{"name":"HOTROD_33B_suspension_UCB_BOTTOM_0","primitives":[{"attributes":{"NORMAL":120,"POSITION":119,"TEXCOORD_0":121,"TEXCOORD_1":122,"TEXCOORD_2":123},"indices":124,"material":2,"mode":4}]},{"name":"HOTROD_33B_Numberplate_Numberplates_Misk_U_0","primitives":[{"attributes":{"NORMAL":126,"POSITION":125,"TEXCOORD_0":127,"TEXCOORD_1":128},"indices":129,"material":6,"mode":4}]},{"name":"HOTROD_33A_body_Badges_Carbadges_misc_U_0","primitives":[{"attributes":{"NORMAL":131,"POSITION":130,"TEXCOORD_0":132,"TEXCOORD_1":133,"TEXCOORD_2":134},"indices":135,"material":7,"mode":4}]},{"name":"HOTROD_33B_Grill_HOTROD_33_bodymat_0","primitives":[{"attributes":{"NORMAL":137,"POSITION":136,"TEXCOORD_0":138,"TEXCOORD_1":139},"indices":140,"material":1,"mode":4}]}],"nodes":[{"children":[1],"matrix":[1,0,0,0,0,2.220446049250313e-16,-1,0,0,1,2.220446049250313e-16,0,0,0,0,1],"name":"Sketchfab_model"},{"children":[2],"matrix":[1,0,0,0,0,0,1,0,0,-1,0,0,0,0,0,1],"name":"f3e7e3ba637b4d6f84d2d0d9da4faf2b.fbx"},{"children":[3,6,9,12,15,18,21,24,27,30,33,36,39,42,45,48,51,54,57,60,63,66,69,72,75,78,81,84],"name":"RootNode"},{"children":[4],"matrix":[-0.9987443573849379,0.05009699184307112,1.5080619968077524e-7,0,1.5099579643226835e-7,0,0.9999999999999887,0,0.050096991843070544,0.9987443573849493,-7.564435078322163e-9,0,-0.8030986785888672,1.333878755569458,0.0009745502611622214,1],"name":"HOTROD_33A_Rear_window"},{"children":[5],"matrix":[1,0,0,0,0,1,0,0,0,0,1,0,-2.5529937744140625,-0.05696028470993042,-0.18195219337940216,1],"name":"Object_4"},{"mesh":0,"name":"HOTROD_33A_Rear_window_UCB_Lights_and_Glass_Transperent_0"},{"children":[7],"matrix":[-0.9987443573849379,0.05009699184307112,1.5080619968077524e-7,0,1.5099579643226835e-7,0,0.9999999999999887,0,0.050096991843070544,0.9987443573849493,-7.564435078322163e-9,0,0.06986361742019653,0.8902912735939026,-0.0002615475677885115,1],"name":"HOTROD_33A_body"},{"children":[8],"matrix":[1,0,0,0,0,1,0,0,0,0,1,0,-1.658905267715454,-0.05696028470993042,0.2173454761505127,1],"name":"Object_7"},{"mesh":1,"name":"HOTROD_33A_body_HOTROD_33_bodymat_0"},{"children":[10],"matrix":[-0.9987443573849379,0.05009699184307112,1.5080619968077524e-7,0,1.5099579643226835e-7,0,0.9999999999999887,0,0.050096991843070544,0.9987443573849493,-7.564435078322163e-9,0,1.187342643737793,0.7580166459083557,0.0005563427694141865,1],"name":"HOTROD_33A_hoodStock_inner"},{"children":[11],"matrix":[1,0,0,0,0,1,0,0,0,0,1,0,-0.536203145980835,-0.056542277336120605,0.2934718728065491,1],"name":"Object_10"},{"mesh":2,"name":"HOTROD_33A_hoodStock_inner_UCB_BOTTOM_0"},{"children":[13],"matrix":[-0.9999999999999887,-1.2246469849340659e-16,1.5099580265055077e-7,0,1.5099580265055077e-7,-4.440892098500626e-16,0.9999999999999887,0,-1.2246464555384738e-16,1,3.3306690738754696e-16,0,-0.0012439191341400146,0.9376055598258972,0.0004535440239124,1],"name":"HOTROD_33A_interior"},{"children":[14],"matrix":[1,0,0,0,0,1,0,0,0,0,1,0,-0.01668870449066162,0.0005208849906921387,0.024598002433776855,1],"name":"Object_13"},{"mesh":3,"name":"HOTROD_33A_interior_UCB_Interiors_2_0"},{"children":[16],"matrix":[-0.9998017673169826,0.019910451271022145,1.509658761212479e-7,0,1.5099580841920757e-7,-2.220446049250313e-16,0.9999999999999887,0,0.019910451271021916,0.9998017673169939,-3.006394688753744e-9,0,-2.003904104232788,0.6961308121681213,-0.0002616083947941661,1],"name":"HOTROD_33A_Brakelights"},{"children":[17],"matrix":[1,0,0,0,0,1,0,0,0,0,1,0,-0.14275214076042175,0.0010059475898742676,-0.05565740540623665,1],"name":"Object_16"},{"mesh":4,"name":"HOTROD_33A_Brakelights_UCB_Lights_and_Glass_0"},{"children":[19],"matrix":[-0.9987443573849379,0.05009699184307112,1.5080619968077524e-7,0,1.5099579643226835e-7,0,0.9999999999999887,0,0.050096991843070544,0.9987443573849493,-7.564435078322163e-9,0,0.4425821900367737,1.2402653694152832,0.0009744414128363132,1],"name":"HOTROD_33A_Windshield"},{"children":[20],"matrix":[1,0,0,0,0,1,0,0,0,0,1,0,-1.3041874170303345,-0.05696028470993042,-0.1508612185716629,1],"name":"Object_19"},{"mesh":5,"name":"HOTROD_33A_Windshield_UCB_Lights_and_Glass_Transperent_0"},{"children":[22],"matrix":[-0.9998022417557235,0.019886613090401663,1.5096594686847542e-7,0,1.5099580753970276e-7,1.1102230246251565e-16,0.9999999999999887,0,0.019886613090401437,0.9998022417557348,-3.0027955677525142e-9,0,-0.03455013781785965,1.2543680667877197,0.5975309610366821,1],"name":"HOTROD_33A_Glass_Passanger"},{"children":[23],"matrix":[1,0,0,0,0,1,0,0,0,0,1,0,-0.20331573486328125,-1.1801750659942627,-0.3270322382450104,1],"name":"Object_22"},{"mesh":6,"name":"HOTROD_33A_Glass_Passanger_UCB_Lights_and_Glass_Transperent_0"},{"children":[25],"matrix":[-0.9987443573849379,0.05009699184307112,1.5080619968077524e-7,0,1.5099579643226835e-7,0,0.9999999999999887,0,0.050096991843070544,0.9987443573849493,-7.564435078322163e-9,0,1.187406063079834,0.759280264377594,0.0005563427694141865,1],"name":"HOTROD_33A_HoodStock"},{"children":[26],"matrix":[1,0,0,0,0,1,0,0,0,0,1,0,-0.5362030863761902,-0.056542277336120605,0.2922065556049347,1],"name":"Object_25"},{"mesh":7,"name":"HOTROD_33A_HoodStock_HOTROD_33_bodymat_0"},{"children":[28],"matrix":[-0.9987443573849379,0.05009699184307112,1.5080619968077524e-7,0,1.5099579643226835e-7,0,0.9999999999999887,0,0.050096991843070544,0.9987443573849493,-7.564435078322163e-9,0,-1.3990685939788818,0.9982412457466125,-0.0002614191034808755,1],"name":"HOTROD_33A_Trunkdoor"},{"children":[29],"matrix":[1,0,0,0,0,1,0,0,0,0,1,0,-3.1314010620117188,-0.05696028470993042,0.18312005698680878,1],"name":"Object_28"},{"mesh":8,"name":"HOTROD_33A_Trunkdoor_HOTROD_33_bodymat_0"},{"children":[31],"matrix":[-0.9987443573849379,0.05009699184307112,1.5080619968077524e-7,0,1.5099579643226835e-7,0,0.9999999999999887,0,0.050096991843070544,0.9987443573849493,-7.564435078322163e-9,0,-1.3991189002990723,0.9972429871559143,-0.0002614191034808755,1],"name":"HOTROD_33A_Trunkdoor_inner"},{"children":[32],"matrix":[1,0,0,0,0,1,0,0,0,0,1,0,-3.1314010620117188,-0.05696028470993042,0.1841195821762085,1],"name":"Object_31"},{"mesh":9,"name":"HOTROD_33A_Trunkdoor_inner_UCB_BOTTOM_0"},{"children":[34],"matrix":[-0.9987443573849379,0.05009699184307112,1.5080619968077524e-7,0,1.5099579643226835e-7,0,0.9999999999999887,0,0.050096991843070544,0.9987443573849493,-7.564435078322163e-9,0,-0.019773542881011963,0.7022098898887634,-0.0002615397097542882,1],"name":"HOTROD_33A_Bottom"},{"children":[35],"matrix":[1,0,0,0,0,1,0,0,0,0,1,0,-1.739007592201233,-0.05696028470993042,0.40968120098114014,1],"name":"Object_34"},{"mesh":10,"name":"HOTROD_33A_Bottom_UCB_BOTTOM_0"},{"children":[37],"matrix":[-0.9999999999999887,-1.2246469849340659e-16,1.5099580265055077e-7,0,1.5099580265055077e-7,-4.440892098500626e-16,0.9999999999999887,0,-1.2246464555384738e-16,1,3.3306690738754696e-16,0,1.821791648864746,0.7351115345954895,0.0006574885919690132,1],"name":"HOTROD_33B_Headlights_Glass"},{"children":[38],"matrix":[1,0,0,0,0,1,0,0,0,0,1,0,-1.6929106712341309,0.6821410655975342,-0.6968019604682922,1],"name":"Object_37"},{"mesh":11,"name":"HOTROD_33B_Headlights_Glass_UCB_Lights_and_Glass_Transperent_0"},{"children":[40],"matrix":[-0.9987443573849379,0.05009699184307112,1.5080619968077524e-7,0,1.5099579643226835e-7,0,0.9999999999999887,0,0.050096991843070544,0.9987443573849493,-7.564435078322163e-9,0,-0.03360027074813843,0.5802307724952698,-0.0013126106932759285,1],"name":"HOTROD_33B_Trim"},{"children":[41],"matrix":[1,0,0,0,0,1,0,0,0,0,1,0,-1.7467052936553955,-0.05590924620628357,0.5321999788284302,1],"name":"Object_40"},{"mesh":12,"name":"HOTROD_33B_Trim_UCB_BOTTOM_0"},{"children":[43],"matrix":[-0.9987443573849379,0.05009699184307112,1.5080619968077524e-7,0,1.5099579643226835e-7,0,0.9999999999999887,0,0.050096991843070544,0.9987443573849493,-7.564435078322163e-9,0,-0.03340631723403931,0.5403016209602356,-0.00022110051941126585,1],"name":"HOTROD_33B_Sideskirts"},{"children":[44],"matrix":[1,0,0,0,0,1,0,0,0,0,1,0,-1.7445120811462402,-0.05700075626373291,0.5720692873001099,1],"name":"Object_43"},{"mesh":13,"name":"HOTROD_33B_Sideskirts_HOTROD_33_bodymat_0"},{"children":[46],"matrix":[-0.9987443573849379,0.05009699184307112,1.5080619968077524e-7,0,1.5099579643226835e-7,0,0.9999999999999887,0,0.050096991843070544,0.9987443573849493,-7.564435078322163e-9,0,-0.17295831441879272,0.6636691689491272,-0.010648678988218307,1],"name":"HOTROD_33A_EngineStock"},{"children":[47],"matrix":[1,0,0,0,0,1,0,0,0,0,1,0,-1.8900692462921143,-0.046573132276535034,0.45584768056869507,1],"name":"Object_46"},{"mesh":14,"name":"HOTROD_33A_EngineStock_UCB_BOTTOM_0"},{"matrix":[-0.9987443573849379,0.05009699184307112,1.5080619968077524e-7,0,1.5099579643226835e-7,0,0.9999999999999887,0,0.050096991843070544,0.9987443573849493,-7.564435078322163e-9,0,1.1893911361694336,0.759358823299408,0.000002734691406658385,1],"name":"HOTROD_33A_HoodCutted"},{"children":[50],"matrix":[1,0,0,0,0,1,0,0,0,0,1,0,-0.5362029671669006,-0.05598866939544678,0.29212793707847595,1],"name":"Object_49"},{"name":"HOTROD_33A_HoodCutted_HOTROD_33_bodymat_0"},{"matrix":[-0.9987443573849379,0.05009699184307112,1.5080619968077524e-7,0,1.5099579643226835e-7,0,0.9999999999999887,0,0.050096991843070544,0.9987443573849493,-7.564435078322163e-9,0,1.189328908920288,0.7581159472465515,0.0005563426529988647,1],"name":"HOTROD_33A_hoodCutted_inner"},{"children":[53],"matrix":[1,0,0,0,0,1,0,0,0,0,1,0,-0.5362029671669006,-0.056542277336120605,0.29337239265441895,1],"name":"Object_52"},{"name":"HOTROD_33A_hoodCutted_inner_UCB_BOTTOM_0"},{"children":[55],"matrix":[-0.9998022417557235,0.019886613090401663,1.5096594686847542e-7,0,1.5099580753970276e-7,1.1102230246251565e-16,0.9999999999999887,0,0.019886613090401437,0.9998022417557348,-3.0027955677525142e-9,0,-0.03455021232366562,1.2543680667877197,-0.5966240167617798,1],"name":"HOTROD_33A_Glass_Driver"},{"children":[56],"matrix":[1,0,0,0,0,1,0,0,0,0,1,0,-0.20331570506095886,0.013979911804199219,-0.3270322382450104,1],"name":"Object_55"},{"mesh":17,"name":"HOTROD_33A_Glass_Driver_UCB_Lights_and_Glass_Transperent_0"},{"children":[58],"matrix":[-0.9999999999999887,-1.2246469849340659e-16,1.5099580265055077e-7,0,1.5099580265055077e-7,-4.440892098500626e-16,0.9999999999999887,0,-1.2246464555384738e-16,1,3.3306690738754696e-16,0,0.201277956366539,0.9749889969825745,-0.2371431589126587,1],"name":"HOTROD_33A_Steering_Wheel"},{"children":[59],"matrix":[1,0,0,0,0,1,0,0,0,0,1,0,0.1858331859111786,0.23811759054660797,-0.012785494327545166,1],"name":"Object_58"},{"mesh":18,"name":"HOTROD_33A_Steering_Wheel_UCB_Interiors_2_0"},{"children":[61],"matrix":[-0.9987443573849379,0.05009699184307112,1.5080619968077524e-7,0,1.5099579643226835e-7,0,0.9999999999999887,0,0.050096991843070544,0.9987443573849493,-7.564435078322163e-9,0,1.8040049076080322,0.7355474829673767,0.0006575498264282942,1],"name":"HOTROD_33B_Headlights"},{"children":[62],"matrix":[1,0,0,0,0,1,0,0,0,0,1,0,0.08081161975860596,-0.05787956714630127,0.28501981496810913,1],"name":"Object_61"},{"mesh":19,"name":"HOTROD_33B_Headlights_UCB_Lights_and_Glass_0"},{"children":[64],"matrix":[-0.8319339752197171,-1.01882543441705e-16,1.256185335376783e-7,0,1.1796319829765121e-7,-3.469380248109018e-16,0.7812349796295077,0,-1.0188249939948707e-16,0.8319339752197266,2.7708967627706246e-16,0,1.5825929641723633,0.32878515124320984,-0.7525027990341187,1],"name":"HOTROD_33_WheelBlades_FL"},{"children":[65],"matrix":[1,0,0,0,0,1,0,0,0,0,1,0,1.525878978725359e-8,-0.00018466223264113069,7.164586435237652e-8,1],"name":"Object_64"},{"mesh":20,"name":"HOTROD_33_WheelBlades_FL_RB1c_Tire_1k_0"},{"children":[67],"matrix":[-0.9526690244674575,-1.1666832484541628e-16,1.438490185098721e-7,0,1.5124614229143004e-7,-4.448254932394634e-16,1.001657962799061,0,-1.1666827441153806e-16,0.9526690244674683,3.1730252574329096e-16,0,-1.3280534744262695,0.3728313148021698,-0.7420052289962769,1],"name":"HOTROD_33_WheelBlades_RL"},{"children":[68],"matrix":[1,0,0,0,0,1,0,0,0,0,1,0,1.525878978725359e-8,-0.00018463825108483434,9.384896060282699e-8,1],"name":"Object_67"},{"mesh":21,"name":"HOTROD_33_WheelBlades_RL_RB1c_Tire_1k_0"},{"children":[70],"matrix":[-0.9526690244674573,-1.1666833745388584e-16,1.4384901850987206e-7,0,-1.5124614229140598e-7,5.651954470825129e-7,-1.0016579627989013,0,-8.105156805437064e-14,-0.9526690244673165,-5.375529523021609e-7,0,-1.3280534744262695,0.3728314936161041,0.742194414138794,1],"name":"HOTROD_33_WheelBlades_RR"},{"children":[71],"matrix":[1,0,0,0,0,1,0,0,0,0,1,0,1.525878978725359e-8,-0.00018463825108483434,9.377475862493156e-8,1],"name":"Object_70"},{"mesh":22,"name":"HOTROD_33_WheelBlades_RR_RB1c_Tire_1k_0"},{"children":[73],"matrix":[-0.8319339752197169,-1.0188255445225948e-16,1.2561853353767829e-7,0,-1.1796319829763246e-7,4.4081961565091335e-7,-0.7812349796293833,0,-7.077962570752928e-14,-0.831933975219594,-4.694270285143869e-7,0,1.5825929641723633,0.3287852704524994,0.7523719072341919,1],"name":"HOTROD_33_WheelBlades_FR"},{"children":[74],"matrix":[1,0,0,0,0,1,0,0,0,0,1,0,1.525878978725359e-8,-0.00018466223264113069,7.157959203141218e-8,1],"name":"Object_73"},{"mesh":23,"name":"HOTROD_33_WheelBlades_FR_RB1c_Tire_1k_0"},{"children":[76],"matrix":[-0.8524348765408689,0.034481979364126954,1.287140914211815e-7,0,0.03448197936407209,0.8524348765408097,-3.4760203218277703e-7,0,-1.4265832880983272e-7,-3.4211561105737675e-7,-0.8531320095061453,0,-0.0752367377281189,0.38993483781814575,-0.00026147899916395545,1],"name":"HOTROD_33B_suspension"},{"children":[77],"matrix":[1,0,0,0,0,1,0,0,0,0,1,0,-1.0706491470336914,-0.15744614601135254,0.4532262682914734,1],"name":"Object_76"},{"mesh":24,"name":"HOTROD_33B_suspension_UCB_BOTTOM_0"},{"children":[79],"matrix":[3.1391647348222307e-7,-5.551115123125783e-17,0.9999999999999507,0,0.8408871274629068,0.5412105310016717,-2.6396832158992467e-7,0,-0.5412105310016451,0.8408871274629481,1.6989490136953833e-7,0,-2.0135726928710938,0.5815184712409973,0.0000029476477720891126,1],"name":"HOTROD_33B_Numberplate"},{"children":[80],"matrix":[1,0,0,0,0,1,0,0,0,0,1,0,0.4921662211418152,-0.48486435413360596,-0.0021453932859003544,1],"name":"Object_79"},{"mesh":25,"name":"HOTROD_33B_Numberplate_Numberplates_Misk_U_0"},{"children":[82],"matrix":[2.1164294581016663e-8,-7.320066671105544e-17,0.659332990646362,0,0.33290659228745895,0.35597514286789844,-1.0686152981706397e-8,0,-0.35597514286789833,0.3329065922874591,1.1426643149420413e-8,0,-1.8536930084228516,0.709311306476593,-0.00012539513409137726,1],"name":"HOTROD_33A_body_Badges"},{"children":[83],"matrix":[1,0,0,0,0,1,0,0,0,0,1,0,-1.8742921352386475,1.75556480884552,-0.00001044337113853544,1],"name":"Object_82"},{"mesh":26,"name":"HOTROD_33A_body_Badges_Carbadges_misc_U_0"},{"children":[85],"matrix":[-0.9987443573849379,0.05009699184307112,1.5080619968077524e-7,0,1.5099579643226835e-7,0,0.9999999999999887,0,0.050096991843070544,0.9987443573849493,-7.564435078322163e-9,0,1.8645081520080566,0.580305278301239,-0.00026171188801527023,1],"name":"HOTROD_33B_Grill"},{"children":[86],"matrix":[1,0,0,0,0,1,0,0,0,0,1,0,0.49121761322021484,-0.05696027725934982,0.4198710322380066,1],"name":"Object_85"},{"mesh":27,"name":"HOTROD_33B_Grill_HOTROD_33_bodymat_0"}],"samplers":[{"magFilter":9729,"minFilter":9987,"wrapS":10497,"wrapT":10497}],"scene":0,"scenes":[{"name":"Sketchfab_Scene","nodes":[0]}],"textures":[{"sampler":0,"source":0},{"sampler":0,"source":1},{"sampler":0,"source":2},{"sampler":0,"source":3},{"sampler":0,"source":4},{"sampler":0,"source":5},{"sampler":0,"source":6},{"sampler":0,"source":7},{"sampler":0,"source":8},{"sampler":0,"source":9},{"sampler":0,"source":10},{"sampler":0,"source":11},{"sampler":0,"source":12}],"extensionsRequired":[]}