{"accessors":[{"bufferView":2,"componentType":5126,"count":768,"max":[0.12521299719810486,0.125109001994133,1.3965879678726196],"min":[-0.13174499571323395,-0.1544879972934723,1.2802389860153198],"type":"VEC3"},{"bufferView":2,"byteOffset":9216,"componentType":5126,"count":768,"max":[0.9999634027481079,0.9965693354606628,0.9999967813491821],"min":[-0.9999730587005615,-0.9993561506271362,-0.9999861717224121],"type":"VEC3"},{"bufferView":3,"componentType":5126,"count":768,"max":[0.9999508261680603,0.9999410510063171,0.9263249039649963,1],"min":[-0.9999520182609558,-0.9947485327720642,-0.9966490268707275,-1],"type":"VEC4"},{"bufferView":1,"componentType":5126,"count":768,"max":[0.9987999796867371,-1.0188000202178955],"min":[0.018300000578165054,-1.9769999980926514],"type":"VEC2"},{"bufferView":0,"componentType":5125,"count":2898,"type":"SCALAR"},{"bufferView":2,"byteOffset":18432,"componentType":5126,"count":768,"max":[-0.14013999700546265,0.125109001994133,1.3965879678726196],"min":[-0.39709898829460144,-0.1544879972934723,1.2802389860153198],"type":"VEC3"},{"bufferView":2,"byteOffset":27648,"componentType":5126,"count":768,"max":[0.9999634027481079,0.9965693354606628,0.9999967813491821],"min":[-0.9999730587005615,-0.9993561506271362,-0.9999861717224121],"type":"VEC3"},{"bufferView":3,"byteOffset":12288,"componentType":5126,"count":768,"max":[0.9999508261680603,0.9999423623085022,0.9263249039649963,1],"min":[-0.9999520182609558,-0.9947472810745239,-0.9966490268707275,-1],"type":"VEC4"},{"bufferView":1,"byteOffset":6144,"componentType":5126,"count":768,"max":[0.9987999796867371,-1.0188000202178955],"min":[0.018300000578165054,-1.9769999980926514],"type":"VEC2"},{"bufferView":0,"byteOffset":11592,"componentType":5125,"count":2898,"type":"SCALAR"}],"asset":{"extras":{"author":"photon (that one larry) (https://sketchfab.com/Professor_E12)","license":"CC-BY-4.0 (http://creativecommons.org/licenses/by/4.0/)","source":"https://sketchfab.com/3d-models/fedoras-c456f905f8c04169b8864bd7be04b554","title":"fedoras"},"generator":"Sketchfab-17.15.0","version":"2.0"},"bufferViews":[{"buffer":0,"byteLength":23184,"name":"floatBufferViews","target":34963},{"buffer":0,"byteLength":12288,"byteOffset":23184,"byteStride":8,"name":"floatBufferViews","target":34962},{"buffer":0,"byteLength":36864,"byteOffset":35472,"byteStride":12,"name":"floatBufferViews","target":34962},{"buffer":0,"byteLength":24576,"byteOffset":72336,"byteStride":16,"name":"floatBufferViews","target":34962}],"buffers":[{"byteLength":96912,"uri":"scene.bin"}],"images":[{"uri":"textures/fedora_baseColor.webp","mimeType":"image/webp"},{"uri":"textures/fedora_normal.webp","mimeType":"image/webp"},{"uri":"textures/fedora1_baseColor.webp","mimeType":"image/webp"}],"materials":[{"doubleSided":true,"name":"fedora","normalTexture":{"index":1},"pbrMetallicRoughness":{"baseColorTexture":{"index":0},"metallicFactor":0,"roughnessFactor":0.016868518595771473}},{"doubleSided":true,"name":"fedora1","normalTexture":{"index":1},"pbrMetallicRoughness":{"baseColorTexture":{"index":2},"metallicFactor":0,"roughnessFactor":0}}],"meshes":[{"name":"Object_0","primitives":[{"attributes":{"NORMAL":1,"POSITION":0,"TANGENT":2,"TEXCOORD_0":3},"indices":4,"material":0,"mode":4}]},{"name":"Object_1","primitives":[{"attributes":{"NORMAL":6,"POSITION":5,"TANGENT":7,"TEXCOORD_0":8},"indices":9,"material":1,"mode":4}]}],"nodes":[{"children":[1],"matrix":[1,0,0,0,0,2.220446049250313e-16,-1,0,0,1,2.220446049250313e-16,0,0,0,0,1],"name":"Sketchfab_model"},{"children":[2,3],"name":"fedora.obj.cleaner.materialmerger.gles"},{"mesh":0,"name":"Object_2"},{"name":"Object_3"}],"samplers":[{"magFilter":9729,"minFilter":9987,"wrapS":10497,"wrapT":10497}],"scene":0,"scenes":[{"name":"Sketchfab_Scene","nodes":[0]}],"textures":[{"sampler":0,"source":0},{"sampler":0,"source":1},{"sampler":0,"source":2}],"extensionsRequired":[]}