{"accessors":[{"bufferView":2,"componentType":5126,"count":113,"max":[0.07747597992420197,-0.12226074188947678,0.17510353028774261],"min":[-0.14921922981739044,-0.24644070863723755,-0.051591672003269196],"type":"VEC3"},{"bufferView":2,"byteOffset":1356,"componentType":5126,"count":113,"max":[0.9982852935791016,-0.05850419029593468,0.9982870817184448],"min":[-0.9982852935791016,-1,-0.9982852935791016],"type":"VEC3"},{"bufferView":0,"componentType":5125,"count":624,"type":"SCALAR"},{"bufferView":2,"byteOffset":2712,"componentType":5126,"count":1495,"max":[2.5087387561798096,41.767051696777344,6.6639580726623535],"min":[-8.048725128173828,-50.241058349609375,-2.2363359928131104],"type":"VEC3"},{"bufferView":2,"byteOffset":20652,"componentType":5126,"count":1495,"max":[0.9942026138305664,0.9886310696601868,0.9997875690460205],"min":[-0.999222993850708,-0.9918718934059143,-0.9975143671035767],"type":"VEC3"},{"bufferView":3,"componentType":5126,"count":1495,"max":[0.9896326065063477,0.9999931454658508,0.999060869216919,1],"min":[-0.9992595911026001,-1,-0.998995840549469,1],"type":"VEC4"},{"bufferView":1,"componentType":5126,"count":1495,"max":[0.9871978163719177,0.9996318221092224],"min":[0.0003681599337141961,0.0003681599337141961],"type":"VEC2"},{"bufferView":1,"byteOffset":11960,"componentType":5126,"count":1495,"max":[0.9871978163719177,0.9996318221092224],"min":[0.0003681599337141961,0.0003681599337141961],"type":"VEC2"},{"bufferView":1,"byteOffset":23920,"componentType":5126,"count":1495,"max":[0.9871978163719177,0.9996318221092224],"min":[0.0003681599337141961,0.0003681599337141961],"type":"VEC2"},{"bufferView":1,"byteOffset":35880,"componentType":5126,"count":1495,"max":[0.9871978163719177,0.9996318221092224],"min":[0.0003681599337141961,0.0003681599337141961],"type":"VEC2"},{"bufferView":0,"byteOffset":2496,"componentType":5125,"count":6006,"type":"SCALAR"},{"bufferView":2,"byteOffset":38592,"componentType":5126,"count":15,"max":[0.9525454640388489,-0.011919364333152771,0.2879944443702698],"min":[-0.2614499032497406,-0.011984127573668957,-0.9525454640388489],"type":"VEC3"},{"bufferView":2,"byteOffset":38772,"componentType":5126,"count":15,"max":[-0.000016244401194853708,1,0.000005062642230768688],"min":[-0.000016244401194853708,1,0.000005062642230768688],"type":"VEC3"},{"bufferView":3,"byteOffset":23920,"componentType":5126,"count":15,"max":[0.9353789687156677,0.00001340428389084991,0.507474958896637,1],"min":[-0.05840996280312538,0.000004105164407519624,-1,-1],"type":"VEC4"},{"bufferView":1,"byteOffset":47840,"componentType":5126,"count":15,"max":[0.9999010562896729,0.9785079956054688],"min":[0.00009890478395391256,0.00009890478395391256],"type":"VEC2"},{"bufferView":1,"byteOffset":47960,"componentType":5126,"count":15,"max":[0.9999010562896729,0.9785079956054688],"min":[0.00009890478395391256,0.00009890478395391256],"type":"VEC2"},{"bufferView":1,"byteOffset":48080,"componentType":5126,"count":15,"max":[0.9999010562896729,0.9785079956054688],"min":[0.00009890478395391256,0.00009890478395391256],"type":"VEC2"},{"bufferView":1,"byteOffset":48200,"componentType":5126,"count":15,"max":[2.945359468460083,1.8422516584396362],"min":[-0.9222301244735718,-1.9425815343856812],"type":"VEC2"},{"bufferView":1,"byteOffset":48320,"componentType":5126,"count":15,"max":[0.9999010562896729,0.9785079956054688],"min":[0.00009890478395391256,0.00009890478395391256],"type":"VEC2"},{"bufferView":0,"byteOffset":26520,"componentType":5125,"count":39,"type":"SCALAR"},{"bufferView":2,"byteOffset":38952,"componentType":5126,"count":154,"max":[2.4421935081481934,0.009812279604375362,-1.3406404256820679],"min":[1.6037883758544922,-0.07942767441272736,-2.0368168354034424],"type":"VEC3"},{"bufferView":2,"byteOffset":40800,"componentType":5126,"count":154,"max":[0.10263591259717941,1,0.9885789752006531],"min":[-0.16766975820064545,0.14881178736686707,-0.279887318611145],"type":"VEC3"},{"bufferView":3,"byteOffset":24160,"componentType":5126,"count":154,"max":[0.8607642650604248,0.2375100702047348,0.9614744186401367,1],"min":[0.274894654750824,-0.8832401037216187,0.12704293429851532,1],"type":"VEC4"},{"bufferView":1,"byteOffset":48440,"componentType":5126,"count":154,"max":[0.8801451921463013,0.9989442825317383],"min":[0.07745310664176941,0.001055687665939331],"type":"VEC2"},{"bufferView":1,"byteOffset":49672,"componentType":5126,"count":154,"max":[0.9190442562103271,0.9987695813179016],"min":[0.07240942120552063,-0.0012303914409130812],"type":"VEC2"},{"bufferView":1,"byteOffset":50904,"componentType":5126,"count":154,"max":[0.8801451921463013,0.9989442825317383],"min":[0.07745310664176941,0.001055687665939331],"type":"VEC2"},{"bufferView":0,"byteOffset":26676,"componentType":5125,"count":780,"type":"SCALAR"},{"bufferView":2,"byteOffset":42648,"componentType":5126,"count":368,"max":[0.9870260953903198,0,0.322287380695343],"min":[-0.2964763045310974,-0.020263344049453735,-0.9880460500717163],"type":"VEC3"},{"bufferView":2,"byteOffset":47064,"componentType":5126,"count":368,"max":[1,0.9989426732063293,1],"min":[-1,-0.14554354548454285,-1],"type":"VEC3"},{"bufferView":3,"byteOffset":26624,"componentType":5126,"count":368,"max":[0.9984819889068604,0.9999880790710449,0.9802508354187012,1],"min":[-0.9944190382957458,-0.9999978542327881,-0.9991076588630676,1],"type":"VEC4"},{"bufferView":1,"byteOffset":52136,"componentType":5126,"count":368,"max":[0.912452220916748,0.9997155666351318],"min":[0.0002844247210305184,0.0002844247210305184],"type":"VEC2"},{"bufferView":1,"byteOffset":55080,"componentType":5126,"count":368,"max":[0.912452220916748,0.9997155666351318],"min":[0.0002844247210305184,0.0002844247210305184],"type":"VEC2"},{"bufferView":1,"byteOffset":58024,"componentType":5126,"count":368,"max":[0.912452220916748,0.9997155666351318],"min":[0.0002844247210305184,0.0002844247210305184],"type":"VEC2"},{"bufferView":1,"byteOffset":60968,"componentType":5126,"count":368,"max":[0.912452220916748,0.9997155666351318],"min":[0.0002844247210305184,0.0002844247210305184],"type":"VEC2"},{"bufferView":0,"byteOffset":29796,"componentType":5125,"count":1470,"type":"SCALAR"},{"bufferView":2,"byteOffset":51480,"componentType":5126,"count":8,"max":[2.601195812225342,0.038476064801216125,2.6743366718292236],"min":[-2.597470760345459,-4.821066856384277,-2.6627180576324463],"type":"VEC3"},{"bufferView":2,"byteOffset":51576,"componentType":5126,"count":8,"max":[-5.741175712614677e-8,4.328096991912389e-9,0.08332215249538422],"min":[-0.9965227246284485,0,-1],"type":"VEC3"},{"bufferView":3,"byteOffset":32512,"componentType":5126,"count":8,"max":[0.2439267337322235,0.9697937965393066,0.24307803809642792,1],"min":[0.02032446302473545,-0.9697936773300171,-1.4004262638422915e-8,1],"type":"VEC4"},{"bufferView":1,"byteOffset":63912,"componentType":5126,"count":8,"max":[0.9934906959533691,0.9911301136016846],"min":[0.004959045443683863,0.006352934055030346],"type":"VEC2"},{"bufferView":1,"byteOffset":63976,"componentType":5126,"count":8,"max":[0.9934906959533691,0.9911301136016846],"min":[0.004959045443683863,0.006352934055030346],"type":"VEC2"},{"bufferView":0,"byteOffset":35676,"componentType":5125,"count":12,"type":"SCALAR"},{"bufferView":2,"byteOffset":51672,"componentType":5126,"count":680,"max":[0.5107817053794861,0.30004701018333435,0.25993335247039795],"min":[-0.5108083486557007,-0.019364388659596443,-0.25993335247039795],"type":"VEC3"},{"bufferView":2,"byteOffset":59832,"componentType":5126,"count":680,"max":[1,1,1],"min":[-1,-1,-1],"type":"VEC3"},{"bufferView":3,"byteOffset":32640,"componentType":5126,"count":680,"max":[1,1,1,1],"min":[-1,-1,-1,1],"type":"VEC4"},{"bufferView":1,"byteOffset":64040,"componentType":5126,"count":680,"max":[1,1],"min":[0,0],"type":"VEC2"},{"bufferView":1,"byteOffset":69480,"componentType":5126,"count":680,"max":[1,1],"min":[0,0],"type":"VEC2"},{"bufferView":1,"byteOffset":74920,"componentType":5126,"count":680,"max":[1,1],"min":[0,0],"type":"VEC2"},{"bufferView":1,"byteOffset":80360,"componentType":5126,"count":680,"max":[1,1],"min":[0,0],"type":"VEC2"},{"bufferView":0,"byteOffset":35724,"componentType":5125,"count":1020,"type":"SCALAR"},{"bufferView":2,"byteOffset":67992,"componentType":5126,"count":543,"max":[1.1368950605392456,1.5346513986587524,1.1436890363693237],"min":[-1.1499392986297607,-1.1860843896865845,-1.1502288579940796],"type":"VEC3"},{"bufferView":2,"byteOffset":74508,"componentType":5126,"count":543,"max":[0.9949406385421753,0.9999347925186157,0.9999995231628418],"min":[-0.9949406385421753,-0.999303936958313,-0.9992005825042725],"type":"VEC3"},{"bufferView":3,"byteOffset":43520,"componentType":5126,"count":543,"max":[0.9701445698738098,0.8810585141181946,0.9740601181983948,1],"min":[-0.9998316168785095,-0.9999827146530151,-0.9154430627822876,1],"type":"VEC4"},{"bufferView":1,"byteOffset":85800,"componentType":5126,"count":543,"max":[0.997812807559967,0.9953938126564026],"min":[0.005602061748504639,0.0032102763652801514],"type":"VEC2"},{"bufferView":1,"byteOffset":90144,"componentType":5126,"count":543,"max":[0.997812807559967,0.9953938126564026],"min":[0.005602061748504639,0.0032102763652801514],"type":"VEC2"},{"bufferView":1,"byteOffset":94488,"componentType":5126,"count":543,"max":[0.997812807559967,0.9953938126564026],"min":[0.005602061748504639,0.0032102763652801514],"type":"VEC2"},{"bufferView":1,"byteOffset":98832,"componentType":5126,"count":543,"max":[0.997812807559967,0.9953938126564026],"min":[0.005602061748504639,0.0032102763652801514],"type":"VEC2"},{"bufferView":0,"byteOffset":39804,"componentType":5125,"count":2364,"type":"SCALAR"},{"bufferView":2,"byteOffset":81024,"componentType":5126,"count":680,"max":[0.5107817053794861,0.3042297959327698,0.25993335247039795],"min":[-0.5108083486557007,-0.015181614086031914,-0.25993335247039795],"type":"VEC3"},{"bufferView":2,"byteOffset":89184,"componentType":5126,"count":680,"max":[1,1,1],"min":[-1,-1,-1],"type":"VEC3"},{"bufferView":3,"byteOffset":52208,"componentType":5126,"count":680,"max":[1,1,1,1],"min":[-1,-1,-1,1],"type":"VEC4"},{"bufferView":1,"byteOffset":103176,"componentType":5126,"count":680,"max":[1,1],"min":[0,0],"type":"VEC2"},{"bufferView":1,"byteOffset":108616,"componentType":5126,"count":680,"max":[1,1],"min":[0,0],"type":"VEC2"},{"bufferView":1,"byteOffset":114056,"componentType":5126,"count":680,"max":[1,1],"min":[0,0],"type":"VEC2"},{"bufferView":1,"byteOffset":119496,"componentType":5126,"count":680,"max":[1,1],"min":[0,0],"type":"VEC2"},{"bufferView":0,"byteOffset":49260,"componentType":5125,"count":1020,"type":"SCALAR"}],"asset":{"extras":{"author":"Orzechu (https://sketchfab.com/Orzechu)","license":"CC-BY-4.0 (http://creativecommons.org/licenses/by/4.0/)","source":"https://sketchfab.com/3d-models/rainy-night-on-the-streets-of-1930s-new-york-c680e2ed95a04ec092d00fa30b96dc1b","title":"Rainy night on the streets of 1930s New York"},"generator":"Sketchfab-12.67.0","version":"2.0"},"bufferViews":[{"buffer":0,"byteLength":53340,"name":"floatBufferViews","target":34963},{"buffer":0,"byteLength":124936,"byteOffset":53340,"byteStride":8,"name":"floatBufferViews","target":34962},{"buffer":0,"byteLength":97344,"byteOffset":178276,"byteStride":12,"name":"floatBufferViews","target":34962},{"buffer":0,"byteLength":63088,"byteOffset":275620,"byteStride":16,"name":"floatBufferViews","target":34962}],"buffers":[{"byteLength":338708,"uri":"scene.bin"}],"images":[{"uri":"textures/LampBakeV2_baseColor.webp","mimeType":"image/webp"},{"uri":"textures/LampBakeV2_metallicRoughness.webp","mimeType":"image/webp"},{"uri":"textures/LampBakeV2_normal.webp","mimeType":"image/webp"},{"uri":"textures/GroundBaked_baseColor.webp","mimeType":"image/webp"},{"uri":"textures/GroundBaked_metallicRoughness.webp","mimeType":"image/webp"},{"uri":"textures/GroundBaked_normal.webp","mimeType":"image/webp"},{"uri":"textures/Newspaperbake_baseColor.webp","mimeType":"image/webp"},{"uri":"textures/Newspaperbake_normal.webp","mimeType":"image/webp"},{"uri":"textures/cornerbake_baseColor.webp","mimeType":"image/webp"},{"uri":"textures/cornerbake_metallicRoughness.webp","mimeType":"image/webp"},{"uri":"textures/cornerbake_normal.webp","mimeType":"image/webp"},{"uri":"textures/Rainbake_baseColor.webp","mimeType":"image/webp"},{"uri":"textures/Rainbake_normal.webp","mimeType":"image/webp"},{"uri":"textures/WoodenCrateBake_baseColor.webp","mimeType":"image/webp"},{"uri":"textures/WoodenCrateBake_metallicRoughness.webp","mimeType":"image/webp"},{"uri":"textures/WoodenCrateBake_normal.webp","mimeType":"image/webp"},{"uri":"textures/Trashbake_baseColor.webp","mimeType":"image/webp"},{"uri":"textures/Trashbake_metallicRoughness.webp","mimeType":"image/webp"},{"uri":"textures/Trashbake_normal.webp","mimeType":"image/webp"}],"materials":[{"doubleSided":true,"emissiveFactor":[1,1,1],"name":"LightEmission"},{"doubleSided":true,"name":"LampBakeV2","normalTexture":{"index":2},"pbrMetallicRoughness":{"baseColorTexture":{"index":0},"metallicFactor":0,"metallicRoughnessTexture":{"index":1},"roughnessFactor":0.4030014774820787}},{"doubleSided":true,"name":"GroundBaked","normalTexture":{"index":5,"texCoord":2},"pbrMetallicRoughness":{"baseColorTexture":{"index":3},"metallicRoughnessTexture":{"index":4,"texCoord":1},"roughnessFactor":0.7617316941186485}},{"alphaMode":"BLEND","doubleSided":true,"name":"Newspaperbake","normalTexture":{"index":7},"pbrMetallicRoughness":{"baseColorTexture":{"index":6},"metallicFactor":0,"roughnessFactor":0.46380320911539563}},{"doubleSided":true,"name":"cornerbake","normalTexture":{"index":10},"pbrMetallicRoughness":{"baseColorTexture":{"index":8},"metallicFactor":0,"metallicRoughnessTexture":{"index":9},"roughnessFactor":0.15371437778547933}},{"alphaMode":"BLEND","doubleSided":true,"name":"Rainbake","normalTexture":{"index":12},"pbrMetallicRoughness":{"baseColorFactor":[1,1,1,0.5063644212587175],"baseColorTexture":{"index":11},"metallicFactor":0}},{"doubleSided":true,"name":"WoodenCrateBake","normalTexture":{"index":15},"pbrMetallicRoughness":{"baseColorTexture":{"index":13},"metallicFactor":0,"metallicRoughnessTexture":{"index":14},"roughnessFactor":0.14763420462214766}},{"doubleSided":true,"name":"Trashbake","normalTexture":{"index":18},"pbrMetallicRoughness":{"baseColorTexture":{"index":16},"metallicFactor":0.8225334257519654,"metallicRoughnessTexture":{"index":17},"roughnessFactor":0.4820437286053907}}],"meshes":[{"name":"Object_0","primitives":[{"attributes":{"NORMAL":1,"POSITION":0},"indices":2,"material":0,"mode":4}]},{"name":"Object_1","primitives":[{"attributes":{"NORMAL":4,"POSITION":3,"TANGENT":5,"TEXCOORD_0":6,"TEXCOORD_1":7,"TEXCOORD_2":8,"TEXCOORD_3":9},"indices":10,"material":1,"mode":4}]},{"name":"Object_2","primitives":[{"attributes":{"NORMAL":12,"POSITION":11,"TANGENT":13,"TEXCOORD_0":14,"TEXCOORD_1":15,"TEXCOORD_2":16,"TEXCOORD_3":17,"TEXCOORD_4":18},"indices":19,"material":2,"mode":4}]},{"name":"Object_3","primitives":[{"attributes":{"NORMAL":21,"POSITION":20,"TANGENT":22,"TEXCOORD_0":23,"TEXCOORD_1":24,"TEXCOORD_2":25},"indices":26,"material":3,"mode":4}]},{"name":"Object_4","primitives":[{"attributes":{"NORMAL":28,"POSITION":27,"TANGENT":29,"TEXCOORD_0":30,"TEXCOORD_1":31,"TEXCOORD_2":32,"TEXCOORD_3":33},"indices":34,"material":4,"mode":4}]},{"name":"Object_5","primitives":[{"attributes":{"NORMAL":36,"POSITION":35,"TANGENT":37,"TEXCOORD_0":38,"TEXCOORD_1":39},"indices":40,"material":5,"mode":4}]},{"name":"Object_6","primitives":[{"attributes":{"NORMAL":42,"POSITION":41,"TANGENT":43,"TEXCOORD_0":44,"TEXCOORD_1":45,"TEXCOORD_2":46,"TEXCOORD_3":47},"indices":48,"material":6,"mode":4}]},{"name":"Object_7","primitives":[{"attributes":{"NORMAL":50,"POSITION":49,"TANGENT":51,"TEXCOORD_0":52,"TEXCOORD_1":53,"TEXCOORD_2":54,"TEXCOORD_3":55},"indices":56,"material":7,"mode":4}]},{"name":"Object_8","primitives":[{"attributes":{"NORMAL":58,"POSITION":57,"TANGENT":59,"TEXCOORD_0":60,"TEXCOORD_1":61,"TEXCOORD_2":62,"TEXCOORD_3":63},"indices":64,"material":6,"mode":4}]}],"nodes":[{"children":[1],"matrix":[1,0,0,0,0,2.220446049250313e-16,-1,0,0,1,2.220446049250313e-16,0,0,0,0,1],"name":"Sketchfab_model"},{"children":[2],"name":"root"},{"children":[3,5,7,9,11,13,15,17,19],"matrix":[1,0,0,0,0,2.220446049250313e-16,1,0,0,-1,2.220446049250313e-16,0,0,0,0,1],"name":"GLTF_SceneRootNode"},{"matrix":[1,0,0,0,0,1,0,0,0,0,1,0,0.49527958035469055,5.033369064331055,-0.9133708477020264,1],"name":"shadeBake_0"},{"mesh":0,"name":"Object_4"},{"children":[6],"matrix":[0.05232912970329614,0,0.039070036537595984,0,0,0.06530547887086868,0,0,-0.039070036537595984,0,0.05232912970329614,0,0.9803115129470825,3.2506754398345947,-0.8627892732620239,1],"name":"Lamp_1"},{"mesh":1,"name":"Object_6"},{"matrix":[2.4799959659576416,0,0,0,0,2.4799959659576416,0,0,0,0,2.4799959659576416,0,0,0.011343661695718765,0,1],"name":"Basebake_3"},{"mesh":2,"name":"Object_8"},{"children":[10],"matrix":[1,0,0,0,0,1,0,0,0,0,1,0,-0.3957839012145996,0,2.1626460552215576,1],"name":"Newspaperbake_4"},{"mesh":3,"name":"Object_10"},{"matrix":[2.4799959659576416,0,0,0,0,2.4799959659576416,0,0,0,0,2.4799959659576416,0,0,0.001270112581551075,0,1],"name":"CORNERBake_5"},{"mesh":4,"name":"Object_12"},{"matrix":[1,0,0,0,0,1,0,0,0,0,1,0,0.4594079256057739,4.811357498168945,-0.8516148924827576,1],"name":"Rainbake_6"},{"mesh":5,"name":"Object_14"},{"children":[16],"matrix":[0.9471494914310861,0,-0.3207925199904685,0,0,1,0,0,0.3207925199904685,0,0.9471494914310861,0,0.6311870217323303,0.00032318662852048874,-1.5448331832885742,1],"name":"crate low_7"},{"mesh":6,"name":"Object_16"},{"children":[18],"matrix":[0.23217380046844482,0,0,0,0,0.23217380046844482,0,0,0,0,0.23217380046844482,0,0.9807668924331665,0.2536714971065521,-0.44407129287719727,1],"name":"kosz lowbake_8"},{"mesh":7,"name":"Object_18"},{"children":[20],"matrix":[-0.9795460354802759,0,0.20122018878550416,0,0,1,0,0,-0.20122018878550416,0,-0.9795460354802759,0,0.6311870217323303,0.3158241808414459,-1.5448331832885742,1],"name":"crate low2_9"},{"mesh":8,"name":"Object_20"}],"samplers":[{"magFilter":9729,"minFilter":9987,"wrapS":10497,"wrapT":10497}],"scene":0,"scenes":[{"name":"Sketchfab_Scene","nodes":[0]}],"textures":[{"sampler":0,"source":0},{"sampler":0,"source":1},{"sampler":0,"source":2},{"sampler":0,"source":3},{"sampler":0,"source":4},{"sampler":0,"source":5},{"sampler":0,"source":6},{"sampler":0,"source":7},{"sampler":0,"source":8},{"sampler":0,"source":9},{"sampler":0,"source":10},{"sampler":0,"source":11},{"sampler":0,"source":12},{"sampler":0,"source":13},{"sampler":0,"source":14},{"sampler":0,"source":15},{"sampler":0,"source":16},{"sampler":0,"source":17},{"sampler":0,"source":18}],"extensionsRequired":[]}