{"accessors":[{"bufferView":2,"componentType":5126,"count":3106,"max":[17.54411506652832,10.849401473999023,1.8018931150436401],"min":[-2.316300868988037,-2.366809844970703,-21.24786376953125],"type":"VEC3"},{"bufferView":2,"byteOffset":37272,"componentType":5126,"count":3106,"max":[1,1,1],"min":[-1,-1,-1],"type":"VEC3"},{"bufferView":1,"componentType":5126,"count":3106,"max":[0.9985782504081726,0.9982265830039978],"min":[0.0021930786315351725,-0.05753611400723457],"type":"VEC2"},{"bufferView":0,"componentType":5125,"count":5400,"type":"SCALAR"},{"bufferView":2,"byteOffset":74544,"componentType":5126,"count":3029,"max":[7380.0234375,12296.015625,3585.1826171875],"min":[-18000.01171875,-6834.04638671875,-20414.85546875],"type":"VEC3"},{"bufferView":2,"byteOffset":110892,"componentType":5126,"count":3029,"max":[1,1,1],"min":[-1,-1,-1],"type":"VEC3"},{"bufferView":1,"byteOffset":24848,"componentType":5126,"count":3029,"max":[0.7448728680610657,0.9681976437568665],"min":[4.2929862331675395e-8,-0.000035882349038729444],"type":"VEC2"},{"bufferView":1,"byteOffset":49080,"componentType":5126,"count":3029,"max":[0.7448728680610657,0.9681976437568665],"min":[4.2929862331675395e-8,-0.000035882349038729444],"type":"VEC2"},{"bufferView":1,"byteOffset":73312,"componentType":5126,"count":3029,"max":[0.7448728680610657,0.9681976437568665],"min":[4.2929862331675395e-8,-0.000035882349038729444],"type":"VEC2"},{"bufferView":1,"byteOffset":97544,"componentType":5126,"count":3029,"max":[0.7448728680610657,0.9681976437568665],"min":[4.2929862331675395e-8,-0.000035882349038729444],"type":"VEC2"},{"bufferView":1,"byteOffset":121776,"componentType":5126,"count":3029,"max":[0.7448728680610657,0.9681976437568665],"min":[4.2929862331675395e-8,-0.000035882349038729444],"type":"VEC2"},{"bufferView":1,"byteOffset":146008,"componentType":5126,"count":3029,"max":[0.7448728680610657,0.9681976437568665],"min":[4.2929862331675395e-8,-0.000035882349038729444],"type":"VEC2"},{"bufferView":1,"byteOffset":170240,"componentType":5126,"count":3029,"max":[0.7448728680610657,0.9681976437568665],"min":[4.2929862331675395e-8,-0.000035882349038729444],"type":"VEC2"},{"bufferView":1,"byteOffset":194472,"componentType":5126,"count":3029,"max":[0.7448728680610657,0.9681976437568665],"min":[4.2929862331675395e-8,-0.000035882349038729444],"type":"VEC2"},{"bufferView":1,"byteOffset":218704,"componentType":5126,"count":3029,"max":[0.7448728680610657,0.9681976437568665],"min":[4.2929862331675395e-8,-0.000035882349038729444],"type":"VEC2"},{"bufferView":1,"byteOffset":242936,"componentType":5126,"count":3029,"max":[0.7448728680610657,0.9681976437568665],"min":[4.2929862331675395e-8,-0.000035882349038729444],"type":"VEC2"},{"bufferView":0,"byteOffset":21600,"componentType":5125,"count":5259,"type":"SCALAR"},{"bufferView":2,"byteOffset":147240,"componentType":5126,"count":1156,"max":[7277.2080078125,9375.466796875,4774.29248046875],"min":[-19182.58203125,-6834.044921875,-20312.041015625],"type":"VEC3"},{"bufferView":2,"byteOffset":161112,"componentType":5126,"count":1156,"max":[1,1,1],"min":[-1,-1,-1],"type":"VEC3"},{"bufferView":1,"byteOffset":267168,"componentType":5126,"count":1156,"max":[0.9985804557800293,0.9799014329910278],"min":[0.012115351855754852,0.0018402580171823502],"type":"VEC2"},{"bufferView":1,"byteOffset":276416,"componentType":5126,"count":1156,"max":[0.9985804557800293,0.9799014329910278],"min":[0.012115351855754852,0.0018402580171823502],"type":"VEC2"},{"bufferView":1,"byteOffset":285664,"componentType":5126,"count":1156,"max":[0.9985804557800293,0.9799014329910278],"min":[0.012115351855754852,0.0018402580171823502],"type":"VEC2"},{"bufferView":1,"byteOffset":294912,"componentType":5126,"count":1156,"max":[0.9985804557800293,0.9799014329910278],"min":[0.012115351855754852,0.0018402580171823502],"type":"VEC2"},{"bufferView":1,"byteOffset":304160,"componentType":5126,"count":1156,"max":[0.9985804557800293,0.9799014329910278],"min":[0.012115351855754852,0.0018402580171823502],"type":"VEC2"},{"bufferView":1,"byteOffset":313408,"componentType":5126,"count":1156,"max":[0.9985804557800293,0.9799014329910278],"min":[0.012115351855754852,0.0018402580171823502],"type":"VEC2"},{"bufferView":1,"byteOffset":322656,"componentType":5126,"count":1156,"max":[0.9985804557800293,0.9799014329910278],"min":[0.012115351855754852,0.0018402580171823502],"type":"VEC2"},{"bufferView":1,"byteOffset":331904,"componentType":5126,"count":1156,"max":[0.9985804557800293,0.9799014329910278],"min":[0.012115351855754852,0.0018402580171823502],"type":"VEC2"},{"bufferView":1,"byteOffset":341152,"componentType":5126,"count":1156,"max":[0.9985804557800293,0.9799014329910278],"min":[0.012115351855754852,0.0018402580171823502],"type":"VEC2"},{"bufferView":1,"byteOffset":350400,"componentType":5126,"count":1156,"max":[0.9985804557800293,0.9799014329910278],"min":[0.012115351855754852,0.0018402580171823502],"type":"VEC2"},{"bufferView":0,"byteOffset":42636,"componentType":5125,"count":2112,"type":"SCALAR"},{"bufferView":2,"byteOffset":174984,"componentType":5126,"count":2934,"max":[25.001346588134766,7.330923080444336,0.4587850570678711],"min":[-5.000000953674316,-15.43420696258545,-20],"type":"VEC3"},{"bufferView":2,"byteOffset":210192,"componentType":5126,"count":2934,"max":[1,1,1],"min":[-1,-1,-1],"type":"VEC3"},{"bufferView":1,"byteOffset":359648,"componentType":5126,"count":2934,"max":[0.9982879757881165,0.9923099279403687],"min":[-0.0005083380965515971,0],"type":"VEC2"},{"bufferView":0,"byteOffset":51084,"componentType":5125,"count":5430,"type":"SCALAR"},{"bufferView":2,"byteOffset":245400,"componentType":5126,"count":2658,"max":[25.00000762939453,1.6242485046386719,1.3824167251586914],"min":[-4.080387592315674,-15.4342041015625,-0.3036317825317383],"type":"VEC3"},{"bufferView":2,"byteOffset":277296,"componentType":5126,"count":2658,"max":[1,1,1],"min":[-1,-1,-1],"type":"VEC3"},{"bufferView":1,"byteOffset":383120,"componentType":5126,"count":2658,"max":[0.7260211706161499,0.999456524848938],"min":[0.0007382845506072044,0.002325932029634714],"type":"VEC2"},{"bufferView":0,"byteOffset":72804,"componentType":5125,"count":5220,"type":"SCALAR"},{"bufferView":2,"byteOffset":309192,"componentType":5126,"count":464,"max":[23.770320892333984,7.330924987792969,0.13004684448242188],"min":[-5.000000953674316,-15.434203147888184,-11.445720672607422],"type":"VEC3"},{"bufferView":2,"byteOffset":314760,"componentType":5126,"count":464,"max":[1,1,1],"min":[-1,-1,-1],"type":"VEC3"},{"bufferView":1,"byteOffset":404384,"componentType":5126,"count":464,"max":[0.998694121837616,0.9489586353302002],"min":[0.3612355589866638,0.34886521100997925],"type":"VEC2"},{"bufferView":0,"byteOffset":93684,"componentType":5125,"count":864,"type":"SCALAR"},{"bufferView":2,"byteOffset":320328,"componentType":5126,"count":248,"max":[17.2797908782959,1.2956390380859375,1.3431129455566406],"min":[2.740222930908203,-10.682424545288086,-0.02362060546875],"type":"VEC3"},{"bufferView":2,"byteOffset":323304,"componentType":5126,"count":248,"max":[1,1,0.9976370930671692],"min":[-1,-7.506978931814956e-7,-7.005951374594588e-7],"type":"VEC3"},{"bufferView":1,"byteOffset":408096,"componentType":5126,"count":248,"max":[1.5420079231262207,0.996220588684082],"min":[-0.29971039295196533,0.817650318145752],"type":"VEC2"},{"bufferView":1,"byteOffset":410080,"componentType":5126,"count":248,"max":[1.5420079231262207,0.996220588684082],"min":[-0.29971039295196533,0.817650318145752],"type":"VEC2"},{"bufferView":0,"byteOffset":97140,"componentType":5125,"count":420,"type":"SCALAR"},{"bufferView":2,"byteOffset":326280,"componentType":5126,"count":1728,"max":[23.390451431274414,10.000004768371582,20.991559982299805],"min":[-5.000001907348633,-10.479475021362305,-0.04663367569446564],"type":"VEC3"},{"bufferView":2,"byteOffset":347016,"componentType":5126,"count":1728,"max":[1,1,1],"min":[-1,-1,-1],"type":"VEC3"},{"bufferView":1,"byteOffset":412064,"componentType":5126,"count":1728,"max":[0.9980337023735046,1.0282832384109497],"min":[-0.00003652415034594014,-0.00915844738483429],"type":"VEC2"},{"bufferView":0,"byteOffset":98820,"componentType":5125,"count":3360,"type":"SCALAR"},{"bufferView":2,"byteOffset":367752,"componentType":5126,"count":248,"max":[16.589820861816406,-9.992027282714844,16.306903839111328],"min":[2.6448073387145996,-11.358759880065918,4.328841209411621],"type":"VEC3"},{"bufferView":2,"byteOffset":370728,"componentType":5126,"count":248,"max":[1,7.005957627370663e-7,1],"min":[-1,-0.9974205493927002,-7.50352228351403e-7],"type":"VEC3"},{"bufferView":1,"byteOffset":425888,"componentType":5126,"count":248,"max":[1.5420079231262207,0.996220588684082],"min":[-0.29971039295196533,0.817650318145752],"type":"VEC2"},{"bufferView":1,"byteOffset":427872,"componentType":5126,"count":248,"max":[1.5420079231262207,0.996220588684082],"min":[-0.29971039295196533,0.817650318145752],"type":"VEC2"},{"bufferView":0,"byteOffset":112260,"componentType":5125,"count":420,"type":"SCALAR"},{"bufferView":2,"byteOffset":373704,"componentType":5126,"count":2664,"max":[23.39043426513672,-9.717573165893555,16.827974319458008],"min":[-5.000001430511475,-11.398065567016602,-0.04663281515240669],"type":"VEC3"},{"bufferView":2,"byteOffset":405672,"componentType":5126,"count":2664,"max":[1,1,1],"min":[-1,-1,-1],"type":"VEC3"},{"bufferView":1,"byteOffset":429856,"componentType":5126,"count":2664,"max":[0.9987050890922546,0.94682377576828],"min":[0.07693624496459961,0.15032647550106049],"type":"VEC2"},{"bufferView":0,"byteOffset":113940,"componentType":5125,"count":4446,"type":"SCALAR"},{"bufferView":2,"byteOffset":437640,"componentType":5126,"count":4147,"max":[15.001348495483398,10.00000286102295,21.134977340698242],"min":[-5,-11.205243110656738,-0.04663360118865967],"type":"VEC3"},{"bufferView":2,"byteOffset":487404,"componentType":5126,"count":4147,"max":[1,1,1],"min":[-1,-1,-1],"type":"VEC3"},{"bufferView":1,"byteOffset":451168,"componentType":5126,"count":4147,"max":[0.9982147812843323,0.9980360865592957],"min":[0.0005343949887901545,0.0014857786009088159],"type":"VEC2"},{"bufferView":0,"byteOffset":131724,"componentType":5125,"count":7740,"type":"SCALAR"},{"bufferView":2,"byteOffset":537168,"componentType":5126,"count":1418,"max":[15,-9.788006782531738,16.27401351928711],"min":[-5.000001430511475,-11.44541072845459,-0.04663388431072235],"type":"VEC3"},{"bufferView":2,"byteOffset":554184,"componentType":5126,"count":1418,"max":[1,1,1],"min":[-1,-1,-1],"type":"VEC3"},{"bufferView":1,"byteOffset":484344,"componentType":5126,"count":1418,"max":[0.9980093240737915,0.889528214931488],"min":[0.0010976477060467005,0.0017406269907951355],"type":"VEC2"},{"bufferView":0,"byteOffset":162684,"componentType":5125,"count":2829,"type":"SCALAR"},{"bufferView":2,"byteOffset":571200,"componentType":5126,"count":124,"max":[7.296594142913818,-10.039369583129883,15.533064842224121],"min":[2.7367067337036133,-11.406103134155273,3.9617769718170166],"type":"VEC3"},{"bufferView":2,"byteOffset":572688,"componentType":5126,"count":124,"max":[1,3.805519668276247e-7,1],"min":[-1,-0.9976370930671692,0],"type":"VEC3"},{"bufferView":1,"byteOffset":495688,"componentType":5126,"count":124,"max":[1.5420079231262207,0.996220588684082],"min":[-0.29971039295196533,0.817650318145752],"type":"VEC2"},{"bufferView":1,"byteOffset":496680,"componentType":5126,"count":124,"max":[1.5420079231262207,0.996220588684082],"min":[-0.29971039295196533,0.817650318145752],"type":"VEC2"},{"bufferView":0,"byteOffset":174000,"componentType":5125,"count":210,"type":"SCALAR"},{"bufferView":2,"byteOffset":574176,"componentType":5126,"count":1220,"max":[5.001347064971924,10.00000286102295,20.99155616760254],"min":[-5,-10.36107063293457,-0.04663287475705147],"type":"VEC3"},{"bufferView":2,"byteOffset":588816,"componentType":5126,"count":1220,"max":[1,1,1],"min":[-1,-1,-1],"type":"VEC3"},{"bufferView":1,"byteOffset":497672,"componentType":5126,"count":1220,"max":[0.9990484118461609,0.9980832934379578],"min":[0.0013496362371370196,0.001660965383052826],"type":"VEC2"},{"bufferView":0,"byteOffset":174840,"componentType":5125,"count":2226,"type":"SCALAR"},{"bufferView":2,"byteOffset":603456,"componentType":5126,"count":197,"max":[5,-9.692237854003906,4.000000476837158],"min":[-5,-10.476715087890625,-0.046632904559373856],"type":"VEC3"},{"bufferView":2,"byteOffset":605820,"componentType":5126,"count":197,"max":[1,0.000009236084224539809,1],"min":[-1,-1,-1],"type":"VEC3"},{"bufferView":1,"byteOffset":507432,"componentType":5126,"count":197,"max":[0.8719653487205505,0.9979955554008484],"min":[0.0006495222914963961,0.017818894237279892],"type":"VEC2"},{"bufferView":0,"byteOffset":183744,"componentType":5125,"count":363,"type":"SCALAR"},{"bufferView":2,"byteOffset":608184,"componentType":5126,"count":3456,"max":[14.999998092651367,10.00000286102295,21.798377990722656],"min":[-5.000004291534424,-10.13004207611084,-0.04663241654634476],"type":"VEC3"},{"bufferView":2,"byteOffset":649656,"componentType":5126,"count":3456,"max":[1,1,1],"min":[-1,-1,-1],"type":"VEC3"},{"bufferView":1,"byteOffset":509008,"componentType":5126,"count":3456,"max":[0.9982895255088806,0.9976761937141418],"min":[0.000465290155261755,0.002510756254196167],"type":"VEC2"},{"bufferView":0,"byteOffset":185196,"componentType":5125,"count":6624,"type":"SCALAR"},{"bufferView":2,"byteOffset":691128,"componentType":5126,"count":1897,"max":[14.71056079864502,-9.631011962890625,16.60514259338379],"min":[-5.000001430511475,-11.471714973449707,-0.04663241654634476],"type":"VEC3"},{"bufferView":2,"byteOffset":713892,"componentType":5126,"count":1897,"max":[1,1,1],"min":[-1,-1,-1],"type":"VEC3"},{"bufferView":1,"byteOffset":536656,"componentType":5126,"count":1897,"max":[0.9785831570625305,0.9977455735206604],"min":[0.019248155876994133,0.0012331983307376504],"type":"VEC2"},{"bufferView":0,"byteOffset":211692,"componentType":5125,"count":3300,"type":"SCALAR"},{"bufferView":2,"byteOffset":736656,"componentType":5126,"count":124,"max":[7.381711959838867,-9.882377624511719,16.093286514282227],"min":[2.725566864013672,-11.249110221862793,4.115223407745361],"type":"VEC3"},{"bufferView":2,"byteOffset":738144,"componentType":5126,"count":124,"max":[1,7.005956490502285e-7,1],"min":[-1,-0.9977326989173889,-7.505571488763962e-7],"type":"VEC3"},{"bufferView":1,"byteOffset":551832,"componentType":5126,"count":124,"max":[1.5420079231262207,0.996220588684082],"min":[-0.29971039295196533,0.817650318145752],"type":"VEC2"},{"bufferView":1,"byteOffset":552824,"componentType":5126,"count":124,"max":[1.5420079231262207,0.996220588684082],"min":[-0.29971039295196533,0.817650318145752],"type":"VEC2"},{"bufferView":0,"byteOffset":224892,"componentType":5125,"count":210,"type":"SCALAR"},{"bufferView":2,"byteOffset":739632,"componentType":5126,"count":2500,"max":[25.001344680786133,6.877248287200928,21.49155616760254],"min":[-5.000001907348633,-13.602227210998535,0.4272750914096832],"type":"VEC3"},{"bufferView":2,"byteOffset":769632,"componentType":5126,"count":2500,"max":[1,1,1],"min":[-1,-1,-1],"type":"VEC3"},{"bufferView":1,"byteOffset":553816,"componentType":5126,"count":2500,"max":[0.9983329772949219,0.9024882912635803],"min":[0.0034795403480529785,0.002594237681478262],"type":"VEC2"},{"bufferView":0,"byteOffset":225732,"componentType":5125,"count":5208,"type":"SCALAR"},{"bufferView":2,"byteOffset":799632,"componentType":5126,"count":694,"max":[25,-12.704506874084473,4.615853309631348],"min":[-5.000002384185791,-14.102277755737305,0.4272744059562683],"type":"VEC3"},{"bufferView":2,"byteOffset":807960,"componentType":5126,"count":694,"max":[1,0.6773180961608887,1],"min":[-1,-1,-1],"type":"VEC3"},{"bufferView":1,"byteOffset":573816,"componentType":5126,"count":694,"max":[0.9779787659645081,0.995407223701477],"min":[0.0002449840249028057,0.23050905764102936],"type":"VEC2"},{"bufferView":0,"byteOffset":246564,"componentType":5125,"count":1332,"type":"SCALAR"},{"bufferView":2,"byteOffset":816288,"componentType":5126,"count":1632,"max":[25.001344680786133,6.877248764038086,13.899845123291016],"min":[-5.000001907348633,-13.602227210998535,0.4272750914096832],"type":"VEC3"},{"bufferView":2,"byteOffset":835872,"componentType":5126,"count":1632,"max":[1,1,1],"min":[-1,-1,-1],"type":"VEC3"},{"bufferView":1,"byteOffset":579368,"componentType":5126,"count":1632,"max":[0.9983329772949219,0.9024882912635803],"min":[0.0034795403480529785,0.002594237681478262],"type":"VEC2"},{"bufferView":0,"byteOffset":251892,"componentType":5125,"count":3582,"type":"SCALAR"},{"bufferView":2,"byteOffset":855456,"componentType":5126,"count":586,"max":[25,-12.704506874084473,4.500000476837158],"min":[-5.000001430511475,-13.296441078186035,0.4272744059562683],"type":"VEC3"},{"bufferView":2,"byteOffset":862488,"componentType":5126,"count":586,"max":[1,0.000018197368262917735,1],"min":[-1,-1,-1],"type":"VEC3"},{"bufferView":1,"byteOffset":592424,"componentType":5126,"count":586,"max":[0.5038429498672485,0.995407223701477],"min":[0.0002449840249028057,0.23089583218097687],"type":"VEC2"},{"bufferView":0,"byteOffset":266220,"componentType":5125,"count":1056,"type":"SCALAR"},{"bufferView":2,"byteOffset":869520,"componentType":5126,"count":3928,"max":[15.000005722045898,10,20.991655349731445],"min":[-5.000003814697266,-10.564301490783691,-0.046632565557956696],"type":"VEC3"},{"bufferView":2,"byteOffset":916656,"componentType":5126,"count":3928,"max":[1,1,1],"min":[-1,-1,-1],"type":"VEC3"},{"bufferView":1,"byteOffset":597112,"componentType":5126,"count":3928,"max":[0.9984975457191467,0.9984705448150635],"min":[0.0012753702467307448,0.0020893218461424112],"type":"VEC2"},{"bufferView":0,"byteOffset":270444,"componentType":5125,"count":7284,"type":"SCALAR"},{"bufferView":2,"byteOffset":963792,"componentType":5126,"count":124,"max":[7.5294036865234375,-10.039372444152832,16.56702423095703],"min":[2.5387749671936035,-11.406105041503906,3.988107681274414],"type":"VEC3"},{"bufferView":2,"byteOffset":965280,"componentType":5126,"count":124,"max":[1,0.0000019360377336852252,1],"min":[-1,-0.998023271560669,0],"type":"VEC3"},{"bufferView":1,"byteOffset":628536,"componentType":5126,"count":124,"max":[1.5420079231262207,0.996220588684082],"min":[-0.29971039295196533,0.817650318145752],"type":"VEC2"},{"bufferView":1,"byteOffset":629528,"componentType":5126,"count":124,"max":[1.5420079231262207,0.996220588684082],"min":[-0.29971039295196533,0.817650318145752],"type":"VEC2"},{"bufferView":0,"byteOffset":299580,"componentType":5125,"count":210,"type":"SCALAR"},{"bufferView":2,"byteOffset":966768,"componentType":5126,"count":1524,"max":[15.000001907348633,-9.49361515045166,16.961076736450195],"min":[-5.000001907348633,-11.445412635803223,-0.052052248269319534],"type":"VEC3"},{"bufferView":2,"byteOffset":985056,"componentType":5126,"count":1524,"max":[1,1,1],"min":[-1,-1,-1],"type":"VEC3"},{"bufferView":1,"byteOffset":630520,"componentType":5126,"count":1524,"max":[0.9981726408004761,0.9756201505661011],"min":[0.0015387414023280144,0.002325932029634714],"type":"VEC2"},{"bufferView":0,"byteOffset":300420,"componentType":5125,"count":2874,"type":"SCALAR"},{"bufferView":2,"byteOffset":1003344,"componentType":5126,"count":2214,"max":[15.000005722045898,10,13.399942398071289],"min":[-5.000004291534424,-10.564301490783691,-0.046632565557956696],"type":"VEC3"},{"bufferView":2,"byteOffset":1029912,"componentType":5126,"count":2214,"max":[1,1,1],"min":[-1,-1,-1],"type":"VEC3"},{"bufferView":1,"byteOffset":642712,"componentType":5126,"count":2214,"max":[0.9984975457191467,0.9984705448150635],"min":[0.0012753702467307448,0.0020893218461424112],"type":"VEC2"},{"bufferView":0,"byteOffset":311916,"componentType":5125,"count":4140,"type":"SCALAR"},{"bufferView":2,"byteOffset":1056480,"componentType":5126,"count":831,"max":[15.000001907348633,-9.49361515045166,11.459577560424805],"min":[-5.000001907348633,-11.433343887329102,-0.052052248269319534],"type":"VEC3"},{"bufferView":2,"byteOffset":1066452,"componentType":5126,"count":831,"max":[1,0.9999532699584961,1],"min":[-1,-1,-1],"type":"VEC3"},{"bufferView":1,"byteOffset":660424,"componentType":5126,"count":831,"max":[0.9981726408004761,0.9756201505661011],"min":[0.0015387414023280144,0.0015712683089077473],"type":"VEC2"},{"bufferView":0,"byteOffset":328476,"componentType":5125,"count":1428,"type":"SCALAR"},{"bufferView":2,"byteOffset":1076424,"componentType":5126,"count":712,"max":[5.00134801864624,10.00000286102295,20.99155616760254],"min":[-5,-10.479473114013672,-0.04663241654634476],"type":"VEC3"},{"bufferView":2,"byteOffset":1084968,"componentType":5126,"count":712,"max":[1,1,1],"min":[-1,-1,-1],"type":"VEC3"},{"bufferView":1,"byteOffset":667072,"componentType":5126,"count":712,"max":[0.9986026287078857,0.9987394213676453],"min":[0.0010950736468657851,0.0023926517460495234],"type":"VEC2"},{"bufferView":0,"byteOffset":334188,"componentType":5125,"count":1440,"type":"SCALAR"},{"bufferView":2,"byteOffset":1093512,"componentType":5126,"count":124,"max":[2.4948692321777344,-10.021918296813965,16.822084426879883],"min":[-2.4957594871520996,-11.388650894165039,4.243167877197266],"type":"VEC3"},{"bufferView":2,"byteOffset":1095000,"componentType":5126,"count":124,"max":[1,7.005951374594588e-7,1],"min":[-1,-0.9980232119560242,0],"type":"VEC3"},{"bufferView":1,"byteOffset":672768,"componentType":5126,"count":124,"max":[1.5420079231262207,0.996220588684082],"min":[-0.29971039295196533,0.817650318145752],"type":"VEC2"},{"bufferView":1,"byteOffset":673760,"componentType":5126,"count":124,"max":[1.5420079231262207,0.996220588684082],"min":[-0.29971039295196533,0.817650318145752],"type":"VEC2"},{"bufferView":0,"byteOffset":339948,"componentType":5125,"count":210,"type":"SCALAR"},{"bufferView":2,"byteOffset":1096488,"componentType":5126,"count":1250,"max":[4.999999523162842,-9.579216957092285,17.185550689697266],"min":[-5,-11.427948951721191,-0.046632662415504456],"type":"VEC3"},{"bufferView":2,"byteOffset":1111488,"componentType":5126,"count":1250,"max":[1,1,1],"min":[-1,-1,-1],"type":"VEC3"},{"bufferView":1,"byteOffset":674752,"componentType":5126,"count":1250,"max":[0.9995064735412598,1.0093321800231934],"min":[0.31762728095054626,0.002325932029634714],"type":"VEC2"},{"bufferView":0,"byteOffset":340788,"componentType":5125,"count":2451,"type":"SCALAR"},{"bufferView":2,"byteOffset":1126488,"componentType":5126,"count":3268,"max":[14.999998092651367,10.00000286102295,20.337705612182617],"min":[-14.999998092651367,-10.476733207702637,-0.04663241654634476],"type":"VEC3"},{"bufferView":2,"byteOffset":1165704,"componentType":5126,"count":3268,"max":[1,1,1],"min":[-1,-1,-1],"type":"VEC3"},{"bufferView":1,"byteOffset":684752,"componentType":5126,"count":3268,"max":[0.9955207705497742,0.9991647005081177],"min":[0.0010772256646305323,0.0014616113621741533],"type":"VEC2"},{"bufferView":0,"byteOffset":350592,"componentType":5125,"count":6288,"type":"SCALAR"},{"bufferView":2,"byteOffset":1204920,"componentType":5126,"count":248,"max":[10.22916030883789,-10.287759780883789,16.481876373291016],"min":[-9.8889741897583,-11.65449333190918,4.910589218139648],"type":"VEC3"},{"bufferView":2,"byteOffset":1207896,"componentType":5126,"count":248,"max":[1,0.0000014064979723116267,1],"min":[-1,-0.9976370334625244,0],"type":"VEC3"},{"bufferView":1,"byteOffset":710896,"componentType":5126,"count":248,"max":[1.5420079231262207,0.996220588684082],"min":[-0.29971039295196533,0.817650318145752],"type":"VEC2"},{"bufferView":1,"byteOffset":712880,"componentType":5126,"count":248,"max":[1.5420079231262207,0.996220588684082],"min":[-0.29971039295196533,0.817650318145752],"type":"VEC2"},{"bufferView":0,"byteOffset":375744,"componentType":5125,"count":420,"type":"SCALAR"},{"bufferView":2,"byteOffset":1210872,"componentType":5126,"count":2882,"max":[14.998649597167969,-9.999995231628418,18.566022872924805],"min":[-14.999998092651367,-11.69379997253418,-0.04663276672363281],"type":"VEC3"},{"bufferView":2,"byteOffset":1245456,"componentType":5126,"count":2882,"max":[1,1,1],"min":[-1,-1,-1],"type":"VEC3"},{"bufferView":1,"byteOffset":714864,"componentType":5126,"count":2882,"max":[0.9652541875839233,0.9990267753601074],"min":[0.00139609316829592,0.0017406269907951355],"type":"VEC2"},{"bufferView":0,"byteOffset":377424,"componentType":5125,"count":5526,"type":"SCALAR"},{"bufferView":2,"byteOffset":1280040,"componentType":5126,"count":1864,"max":[14.999998092651367,10.00000286102295,12.74599838256836],"min":[-14.999998092651367,-10.476733207702637,-0.04663241654634476],"type":"VEC3"},{"bufferView":2,"byteOffset":1302408,"componentType":5126,"count":1864,"max":[1,1,1],"min":[-1,-1,-1],"type":"VEC3"},{"bufferView":1,"byteOffset":737920,"componentType":5126,"count":1864,"max":[0.9955207705497742,0.9991471767425537],"min":[0.0010772256646305323,0.0014616113621741533],"type":"VEC2"},{"bufferView":0,"byteOffset":399528,"componentType":5125,"count":3552,"type":"SCALAR"},{"bufferView":2,"byteOffset":1324776,"componentType":5126,"count":1000,"max":[14.998649597167969,-9.999995231628418,11.322299003601074],"min":[-14.999998092651367,-11.30224895477295,-0.04663276672363281],"type":"VEC3"},{"bufferView":2,"byteOffset":1336776,"componentType":5126,"count":1000,"max":[1,0.6814152598381042,1],"min":[-1,-1,-1],"type":"VEC3"},{"bufferView":1,"byteOffset":752832,"componentType":5126,"count":1000,"max":[0.9652541875839233,0.9990267753601074],"min":[0.00139609316829592,0.0017406269907951355],"type":"VEC2"},{"bufferView":0,"byteOffset":413736,"componentType":5125,"count":1782,"type":"SCALAR"},{"bufferView":2,"byteOffset":1348776,"componentType":5126,"count":3268,"max":[14.999998092651367,10.00000286102295,20.337705612182617],"min":[-14.999998092651367,-10.476733207702637,-0.04663241654634476],"type":"VEC3"},{"bufferView":2,"byteOffset":1387992,"componentType":5126,"count":3268,"max":[1,1,1],"min":[-1,-1,-1],"type":"VEC3"},{"bufferView":1,"byteOffset":760832,"componentType":5126,"count":3268,"max":[0.6813684701919556,0.9666901230812073],"min":[0.0010772256646305323,0.0014616113621741533],"type":"VEC2"},{"bufferView":0,"byteOffset":420864,"componentType":5125,"count":6288,"type":"SCALAR"},{"bufferView":2,"byteOffset":1427208,"componentType":5126,"count":2882,"max":[14.998649597167969,-9.999995231628418,18.566022872924805],"min":[-14.999998092651367,-11.69379997253418,-0.04663276672363281],"type":"VEC3"},{"bufferView":2,"byteOffset":1461792,"componentType":5126,"count":2882,"max":[1,1,1],"min":[-1,-1,-1],"type":"VEC3"},{"bufferView":1,"byteOffset":786976,"componentType":5126,"count":2882,"max":[0.9652541875839233,0.9990267753601074],"min":[0.00139609316829592,0.0017406269907951355],"type":"VEC2"},{"bufferView":0,"byteOffset":446016,"componentType":5125,"count":5526,"type":"SCALAR"},{"bufferView":2,"byteOffset":1496376,"componentType":5126,"count":248,"max":[10.22916030883789,-10.287759780883789,16.481876373291016],"min":[-9.8889741897583,-11.65449333190918,4.910589218139648],"type":"VEC3"},{"bufferView":2,"byteOffset":1499352,"componentType":5126,"count":248,"max":[1,0.0000014064979723116267,1],"min":[-1,-0.9976370334625244,0],"type":"VEC3"},{"bufferView":1,"byteOffset":810032,"componentType":5126,"count":248,"max":[1.5420079231262207,0.996220588684082],"min":[-0.29971039295196533,0.817650318145752],"type":"VEC2"},{"bufferView":1,"byteOffset":812016,"componentType":5126,"count":248,"max":[1.5420079231262207,0.996220588684082],"min":[-0.29971039295196533,0.817650318145752],"type":"VEC2"},{"bufferView":0,"byteOffset":468120,"componentType":5125,"count":420,"type":"SCALAR"},{"bufferView":2,"byteOffset":1502328,"componentType":5126,"count":1639,"max":[6.833752632141113,43.19785690307617,42.91299057006836],"min":[-11.66159725189209,9.718144416809082,1.7623743321683233e-21],"type":"VEC3"},{"bufferView":2,"byteOffset":1521996,"componentType":5126,"count":1639,"max":[1,1,1],"min":[-1,-1,-1],"type":"VEC3"},{"bufferView":1,"byteOffset":814000,"componentType":5126,"count":1639,"max":[0.9989606738090515,0.8434886336326599],"min":[-0.0002134799724444747,0.0035884210374206305],"type":"VEC2"},{"bufferView":0,"byteOffset":469800,"componentType":5125,"count":3144,"type":"SCALAR"},{"bufferView":2,"byteOffset":1541664,"componentType":5126,"count":2349,"max":[6.833751678466797,43.197853088378906,35.19315719604492],"min":[-13.21426010131836,7.91058874130249,-5.3664310239217704e-15],"type":"VEC3"},{"bufferView":2,"byteOffset":1569852,"componentType":5126,"count":2349,"max":[1,1,1],"min":[-1,-1,-1],"type":"VEC3"},{"bufferView":1,"byteOffset":827112,"componentType":5126,"count":2349,"max":[0.78455650806427,0.4996800422668457],"min":[0.0004949648282490671,0.002325932029634714],"type":"VEC2"},{"bufferView":0,"byteOffset":482376,"componentType":5125,"count":4575,"type":"SCALAR"},{"bufferView":2,"byteOffset":1598040,"componentType":5126,"count":248,"max":[2.5714731216430664,28.299209594726562,35.004825592041016],"min":[-13.15510082244873,7.977914810180664,8.499070167541504],"type":"VEC3"},{"bufferView":2,"byteOffset":1601016,"componentType":5126,"count":248,"max":[1,1,1],"min":[-1,-1,0],"type":"VEC3"},{"bufferView":1,"byteOffset":845904,"componentType":5126,"count":248,"max":[1.5420079231262207,0.996220588684082],"min":[-0.29971039295196533,0.817650318145752],"type":"VEC2"},{"bufferView":1,"byteOffset":847888,"componentType":5126,"count":248,"max":[1.5420079231262207,0.996220588684082],"min":[-0.29971039295196533,0.817650318145752],"type":"VEC2"},{"bufferView":0,"byteOffset":500676,"componentType":5125,"count":420,"type":"SCALAR"},{"bufferView":2,"byteOffset":1603992,"componentType":5126,"count":1687,"max":[6.833752632141113,43.19785690307617,42.91299057006836],"min":[-11.66159725189209,9.71814250946045,1.7623743321683233e-21],"type":"VEC3"},{"bufferView":2,"byteOffset":1624236,"componentType":5126,"count":1687,"max":[1,1,1],"min":[-1,-1,-1],"type":"VEC3"},{"bufferView":1,"byteOffset":849872,"componentType":5126,"count":1687,"max":[0.9989606738090515,0.8788045644760132],"min":[-0.0002134799724444747,0.0035884210374206305],"type":"VEC2"},{"bufferView":0,"byteOffset":502356,"componentType":5125,"count":3228,"type":"SCALAR"},{"bufferView":2,"byteOffset":1644480,"componentType":5126,"count":248,"max":[2.5714731216430664,28.299209594726562,35.004825592041016],"min":[-13.15510082244873,7.977914810180664,8.499070167541504],"type":"VEC3"},{"bufferView":2,"byteOffset":1647456,"componentType":5126,"count":248,"max":[1,1,1],"min":[-1,-1,0],"type":"VEC3"},{"bufferView":1,"byteOffset":863368,"componentType":5126,"count":248,"max":[1.5420079231262207,0.996220588684082],"min":[-0.29971039295196533,0.817650318145752],"type":"VEC2"},{"bufferView":1,"byteOffset":865352,"componentType":5126,"count":248,"max":[1.5420079231262207,0.996220588684082],"min":[-0.29971039295196533,0.817650318145752],"type":"VEC2"},{"bufferView":0,"byteOffset":515268,"componentType":5125,"count":420,"type":"SCALAR"},{"bufferView":2,"byteOffset":1650432,"componentType":5126,"count":2355,"max":[6.833751678466797,43.19784927368164,35.19315719604492],"min":[-13.21426010131836,7.910586833953857,-5.3664310239217704e-15],"type":"VEC3"},{"bufferView":2,"byteOffset":1678692,"componentType":5126,"count":2355,"max":[1,1,1],"min":[-1,-1,-1],"type":"VEC3"},{"bufferView":1,"byteOffset":867336,"componentType":5126,"count":2355,"max":[0.9771358370780945,0.9296416640281677],"min":[0.001080817892216146,0.002325932029634714],"type":"VEC2"},{"bufferView":0,"byteOffset":516948,"componentType":5125,"count":4575,"type":"SCALAR"},{"bufferView":2,"byteOffset":1706952,"componentType":5126,"count":1705,"max":[6.833752632141113,43.19785690307617,42.91299057006836],"min":[-11.66159725189209,9.71814250946045,1.7623743321683233e-21],"type":"VEC3"},{"bufferView":2,"byteOffset":1727412,"componentType":5126,"count":1705,"max":[1,1,1],"min":[-1,-1,-1],"type":"VEC3"},{"bufferView":1,"byteOffset":886176,"componentType":5126,"count":1705,"max":[0.9967052936553955,0.9981293082237244],"min":[-0.0002134799724444747,0.0035884210374206305],"type":"VEC2"},{"bufferView":0,"byteOffset":535248,"componentType":5125,"count":3228,"type":"SCALAR"},{"bufferView":2,"byteOffset":1747872,"componentType":5126,"count":2357,"max":[6.833751678466797,43.19784164428711,35.19315719604492],"min":[-13.21426010131836,7.910579204559326,-5.3664310239217704e-15],"type":"VEC3"},{"bufferView":2,"byteOffset":1776156,"componentType":5126,"count":2357,"max":[1,1,1],"min":[-1,-1,-1],"type":"VEC3"},{"bufferView":1,"byteOffset":899816,"componentType":5126,"count":2357,"max":[0.9776657819747925,0.9986883997917175],"min":[0.011764390394091606,0.0022496115416288376],"type":"VEC2"},{"bufferView":0,"byteOffset":548160,"componentType":5125,"count":4575,"type":"SCALAR"},{"bufferView":2,"byteOffset":1804440,"componentType":5126,"count":248,"max":[2.5714731216430664,28.299205780029297,35.004825592041016],"min":[-13.15510082244873,7.977910995483398,8.499070167541504],"type":"VEC3"},{"bufferView":2,"byteOffset":1807416,"componentType":5126,"count":248,"max":[1,1,1],"min":[-1,-1,0],"type":"VEC3"},{"bufferView":1,"byteOffset":918672,"componentType":5126,"count":248,"max":[1.5420079231262207,0.996220588684082],"min":[-0.29971039295196533,0.817650318145752],"type":"VEC2"},{"bufferView":1,"byteOffset":920656,"componentType":5126,"count":248,"max":[1.5420079231262207,0.996220588684082],"min":[-0.29971039295196533,0.817650318145752],"type":"VEC2"},{"bufferView":0,"byteOffset":566460,"componentType":5125,"count":420,"type":"SCALAR"},{"bufferView":2,"byteOffset":1810392,"componentType":5126,"count":1996,"max":[45.85081100463867,30.65142059326172,16.98273468017578],"min":[-15.4310302734375,10.091705322265625,0.38843393325805664],"type":"VEC3"},{"bufferView":2,"byteOffset":1834344,"componentType":5126,"count":1996,"max":[1,1,1],"min":[-1,-1,-1],"type":"VEC3"},{"bufferView":1,"byteOffset":922640,"componentType":5126,"count":1996,"max":[0.9991352558135986,0.9991773962974548],"min":[0.0012495911214500666,0.0008472143090330064],"type":"VEC2"},{"bufferView":0,"byteOffset":568140,"componentType":5125,"count":3084,"type":"SCALAR"},{"bufferView":2,"byteOffset":1858296,"componentType":5126,"count":1757,"max":[45.850799560546875,10.994597434997559,13.890504837036133],"min":[-22.4310302734375,10.406157493591309,0.388427734375],"type":"VEC3"},{"bufferView":2,"byteOffset":1879380,"componentType":5126,"count":1757,"max":[1,0.00006221814692253247,1],"min":[-1,-1,-1],"type":"VEC3"},{"bufferView":1,"byteOffset":938608,"componentType":5126,"count":1757,"max":[0.9990922212600708,0.998201310634613],"min":[0.00043944778735749424,0.0014328499091789126],"type":"VEC2"},{"bufferView":0,"byteOffset":580476,"componentType":5125,"count":2430,"type":"SCALAR"},{"bufferView":2,"byteOffset":1900464,"componentType":5126,"count":933,"max":[26.537944793701172,30.65143394470215,16.982742309570312],"min":[-22.4310302734375,10.251434326171875,0.38844072818756104],"type":"VEC3"},{"bufferView":2,"byteOffset":1911660,"componentType":5126,"count":933,"max":[1,1,1],"min":[-1,-1,-1],"type":"VEC3"},{"bufferView":1,"byteOffset":952664,"componentType":5126,"count":933,"max":[0.999470055103302,0.9979156255722046],"min":[0.001311964588239789,0.0008472143090330064],"type":"VEC2"},{"bufferView":0,"byteOffset":590196,"componentType":5125,"count":1485,"type":"SCALAR"},{"bufferView":2,"byteOffset":1922856,"componentType":5126,"count":890,"max":[11.820001602172852,35.11774444580078,16.594287872314453],"min":[-45.83540344238281,14.55805492401123,-0.0007100105285644531],"type":"VEC3"},{"bufferView":2,"byteOffset":1933536,"componentType":5126,"count":890,"max":[1,1,1],"min":[-1,-1,-1],"type":"VEC3"},{"bufferView":1,"byteOffset":960128,"componentType":5126,"count":890,"max":[217,40.99903869628906],"min":[0.00290199788287282,0.002214709296822548],"type":"VEC2"},{"bufferView":0,"byteOffset":596136,"componentType":5125,"count":1380,"type":"SCALAR"},{"bufferView":2,"byteOffset":1944216,"componentType":5126,"count":496,"max":[18.820011138916016,35.11774444580078,17.013669967651367],"min":[-37.835411071777344,14.709235191345215,-0.0007104873657226562],"type":"VEC3"},{"bufferView":2,"byteOffset":1950168,"componentType":5126,"count":496,"max":[1,1,1],"min":[-1,-1,-1],"type":"VEC3"},{"bufferView":1,"byteOffset":967248,"componentType":5126,"count":496,"max":[455.0000915527344,35],"min":[0.006335231475532055,2.2737370254828637e-13],"type":"VEC2"},{"bufferView":0,"byteOffset":601656,"componentType":5125,"count":852,"type":"SCALAR"},{"bufferView":2,"byteOffset":1956120,"componentType":5126,"count":582,"max":[18.820009231567383,15.347736358642578,4.243489742279053],"min":[-45.83539962768555,14.907735824584961,-0.0014202594757080078],"type":"VEC3"},{"bufferView":2,"byteOffset":1963104,"componentType":5126,"count":582,"max":[1,0.00003467917485977523,1],"min":[-1,-1,-1],"type":"VEC3"},{"bufferView":1,"byteOffset":971216,"componentType":5126,"count":582,"max":[0.9996088147163391,0.9996137022972107],"min":[0.00034684271668083966,0.000850385578814894],"type":"VEC2"},{"bufferView":0,"byteOffset":605064,"componentType":5125,"count":1023,"type":"SCALAR"},{"bufferView":2,"byteOffset":1970088,"componentType":5126,"count":1497,"max":[5.073051452636719,13.394758224487305,15.432836532592773],"min":[-5.072754383087158,-14.137370109558105,-7.897615432739258e-7],"type":"VEC3"},{"bufferView":2,"byteOffset":1988052,"componentType":5126,"count":1497,"max":[1,1,1],"min":[-1,-1,-1],"type":"VEC3"},{"bufferView":1,"byteOffset":975872,"componentType":5126,"count":1497,"max":[0.9993036985397339,0.9981021881103516],"min":[0.0017310380935668945,0.0033866094890981913],"type":"VEC2"},{"bufferView":0,"byteOffset":609156,"componentType":5125,"count":2391,"type":"SCALAR"},{"bufferView":2,"byteOffset":2006016,"componentType":5126,"count":504,"max":[5.073051452636719,-13.536968231201172,4.023345947265625],"min":[-5.07275390625,-15.2451171875,-0.06517024338245392],"type":"VEC3"},{"bufferView":2,"byteOffset":2012064,"componentType":5126,"count":504,"max":[1,1,1],"min":[-1,-1,-1],"type":"VEC3"},{"bufferView":1,"byteOffset":987848,"componentType":5126,"count":504,"max":[1.2056951522827148,0.75467449426651],"min":[-0.20569509267807007,0.048632651567459106],"type":"VEC2"},{"bufferView":0,"byteOffset":618720,"componentType":5125,"count":918,"type":"SCALAR"},{"bufferView":2,"byteOffset":2018112,"componentType":5126,"count":3999,"max":[15.218860626220703,13.394758224487305,15.432836532592773],"min":[-15.218559265136719,-14.137369155883789,-7.897615432739258e-7],"type":"VEC3"},{"bufferView":2,"byteOffset":2066100,"componentType":5126,"count":3999,"max":[1,1,1],"min":[-1,-1,-1],"type":"VEC3"},{"bufferView":1,"byteOffset":991880,"componentType":5126,"count":3999,"max":[0.9993036985397339,0.9981021881103516],"min":[0.0006079361774027348,0.0033866092562675476],"type":"VEC2"},{"bufferView":0,"byteOffset":622392,"componentType":5125,"count":6381,"type":"SCALAR"},{"bufferView":2,"byteOffset":2114088,"componentType":5126,"count":1512,"max":[15.218857765197754,-13.536968231201172,4.023345947265625],"min":[-15.218558311462402,-15.2451171875,-0.06517024338245392],"type":"VEC3"},{"bufferView":2,"byteOffset":2132232,"componentType":5126,"count":1512,"max":[1,1,1],"min":[-1,-1,-1],"type":"VEC3"},{"bufferView":1,"byteOffset":1023872,"componentType":5126,"count":1512,"max":[1.2056951522827148,0.9895447492599487],"min":[-0.20569509267807007,0.048632651567459106],"type":"VEC2"},{"bufferView":0,"byteOffset":647916,"componentType":5125,"count":2754,"type":"SCALAR"},{"bufferView":2,"byteOffset":2150376,"componentType":5126,"count":2053,"max":[23.849878311157227,5.424593448638916,0.17756275832653046],"min":[-6.798435688018799,-8.51616096496582,-30.446434020996094],"type":"VEC3"},{"bufferView":2,"byteOffset":2175012,"componentType":5126,"count":2053,"max":[1,1,1],"min":[-1,-1,-1],"type":"VEC3"},{"bufferView":1,"byteOffset":1035968,"componentType":5126,"count":2053,"max":[1.015223741531372,0.7220650315284729],"min":[0.004133820533752441,0.007620722055435181],"type":"VEC2"},{"bufferView":0,"byteOffset":658932,"componentType":5125,"count":3774,"type":"SCALAR"},{"bufferView":2,"byteOffset":2199648,"componentType":5126,"count":2427,"max":[23.84772491455078,0.9434595108032227,0.23168659210205078],"min":[-6.841526031494141,-8.516161918640137,-30.446014404296875],"type":"VEC3"},{"bufferView":2,"byteOffset":2228772,"componentType":5126,"count":2427,"max":[1,1,1],"min":[-1,-1,-1],"type":"VEC3"},{"bufferView":1,"byteOffset":1052392,"componentType":5126,"count":2427,"max":[0.9992074370384216,0.9758777022361755],"min":[0.010894456878304482,0.009958646260201931],"type":"VEC2"},{"bufferView":0,"byteOffset":674028,"componentType":5125,"count":2820,"type":"SCALAR"},{"bufferView":2,"byteOffset":2257896,"componentType":5126,"count":2980,"max":[23.849878311157227,9.254425048828125,0.17756275832653046],"min":[-6.798435688018799,-8.51616096496582,-30.446434020996094],"type":"VEC3"},{"bufferView":2,"byteOffset":2293656,"componentType":5126,"count":2980,"max":[1,1,1],"min":[-1,-1,-1],"type":"VEC3"},{"bufferView":1,"byteOffset":1071808,"componentType":5126,"count":2980,"max":[0.6036152243614197,0.9972449541091919],"min":[-0.0005843878607265651,0.007620722055435181],"type":"VEC2"},{"bufferView":0,"byteOffset":685308,"componentType":5125,"count":5424,"type":"SCALAR"},{"bufferView":2,"byteOffset":2329416,"componentType":5126,"count":2547,"max":[23.84772491455078,4.751194000244141,0.23168659210205078],"min":[-6.841526031494141,-8.516161918640137,-30.446014404296875],"type":"VEC3"},{"bufferView":2,"byteOffset":2359980,"componentType":5126,"count":2547,"max":[1,1,1],"min":[-1,-1,-1],"type":"VEC3"},{"bufferView":1,"byteOffset":1095648,"componentType":5126,"count":2547,"max":[0.9995260238647461,0.9968774318695068],"min":[0.09442807734012604,0.0016907751560211182],"type":"VEC2"},{"bufferView":0,"byteOffset":707004,"componentType":5125,"count":3000,"type":"SCALAR"},{"bufferView":2,"byteOffset":2390544,"componentType":5126,"count":2181,"max":[23.849878311157227,5.4695940017700195,0.17756275832653046],"min":[-6.798435688018799,-8.51616096496582,-30.446434020996094],"type":"VEC3"},{"bufferView":2,"byteOffset":2416716,"componentType":5126,"count":2181,"max":[1,1,1],"min":[-1,-1,-1],"type":"VEC3"},{"bufferView":1,"byteOffset":1116024,"componentType":5126,"count":2181,"max":[0.9791152477264404,0.9747346639633179],"min":[0.0012309011071920395,0.007620722055435181],"type":"VEC2"},{"bufferView":0,"byteOffset":719004,"componentType":5125,"count":3966,"type":"SCALAR"},{"bufferView":2,"byteOffset":2442888,"componentType":5126,"count":2427,"max":[23.84772491455078,0.9434595108032227,0.23168659210205078],"min":[-6.841526031494141,-8.516161918640137,-30.446014404296875],"type":"VEC3"},{"bufferView":2,"byteOffset":2472012,"componentType":5126,"count":2427,"max":[1,1,1],"min":[-1,-1,-1],"type":"VEC3"},{"bufferView":1,"byteOffset":1133472,"componentType":5126,"count":2427,"max":[0.9767088294029236,0.8924590945243835],"min":[0.09442807734012604,0.0016907751560211182],"type":"VEC2"},{"bufferView":0,"byteOffset":734868,"componentType":5125,"count":2820,"type":"SCALAR"},{"bufferView":2,"byteOffset":2501136,"componentType":5126,"count":1500,"max":[-3.4047513008117676,22.173778533935547,9.097161293029785],"min":[-33.404747009277344,-0.4779855012893677,0],"type":"VEC3"},{"bufferView":2,"byteOffset":2519136,"componentType":5126,"count":1500,"max":[1,1,1],"min":[-1,-1,-1],"type":"VEC3"},{"bufferView":1,"byteOffset":1152888,"componentType":5126,"count":1500,"max":[0.9982051849365234,0.997875452041626],"min":[0.00017669424414634705,-0.06515391170978546],"type":"VEC2"},{"bufferView":0,"byteOffset":746148,"componentType":5125,"count":2454,"type":"SCALAR"},{"bufferView":2,"byteOffset":2537136,"componentType":5126,"count":1098,"max":[-7.711732864379883,2.6025969982147217,9.097160339355469],"min":[-33.20625686645508,-0.47798579931259155,7.257348215716775e-7],"type":"VEC3"},{"bufferView":2,"byteOffset":2550312,"componentType":5126,"count":1098,"max":[1,0.9763287305831909,1],"min":[-1,-1,-1],"type":"VEC3"},{"bufferView":1,"byteOffset":1164888,"componentType":5126,"count":1098,"max":[0.9993191361427307,0.9921452403068542],"min":[0.00017669424414634705,0.0018953944090753794],"type":"VEC2"},{"bufferView":0,"byteOffset":755964,"componentType":5125,"count":1782,"type":"SCALAR"},{"bufferView":2,"byteOffset":2563488,"componentType":5126,"count":2547,"max":[17.621625900268555,21.869796752929688,12.858044624328613],"min":[-11.992378234863281,-1.6881047487258911,-0.001463174819946289],"type":"VEC3"},{"bufferView":2,"byteOffset":2594052,"componentType":5126,"count":2547,"max":[1,1,1],"min":[-1,-1,-1],"type":"VEC3"},{"bufferView":1,"byteOffset":1173672,"componentType":5126,"count":2547,"max":[0.9994735717773438,0.997875452041626],"min":[0.0016175074269995093,-0.05753611400723457],"type":"VEC2"},{"bufferView":0,"byteOffset":763092,"componentType":5125,"count":4161,"type":"SCALAR"},{"bufferView":2,"byteOffset":2624616,"componentType":5126,"count":2525,"max":[17.24113655090332,21.869796752929688,11.601594924926758],"min":[5.007625579833984,-1.688106656074524,-0.001463529421016574],"type":"VEC3"},{"bufferView":2,"byteOffset":2654916,"componentType":5126,"count":2525,"max":[1,1,1],"min":[-1,-1,-1],"type":"VEC3"},{"bufferView":1,"byteOffset":1194048,"componentType":5126,"count":2525,"max":[0.9985255002975464,0.9978787302970886],"min":[0.0012580156326293945,0.0018953944090753794],"type":"VEC2"},{"bufferView":0,"byteOffset":779736,"componentType":5125,"count":4311,"type":"SCALAR"},{"bufferView":2,"byteOffset":2685216,"componentType":5126,"count":326,"max":[18.014320373535156,21.73546028137207,5.513479709625244],"min":[-11.54566764831543,-0.13690301775932312,-0.001463770866394043],"type":"VEC3"},{"bufferView":2,"byteOffset":2689128,"componentType":5126,"count":326,"max":[1,1,0.9823975563049316],"min":[-1,-1,-0.7453886866569519],"type":"VEC3"},{"bufferView":1,"byteOffset":1214248,"componentType":5126,"count":326,"max":[0.9781320691108704,0.993242084980011],"min":[0.02779117412865162,0.23050905764102936],"type":"VEC2"},{"bufferView":0,"byteOffset":796980,"componentType":5125,"count":726,"type":"SCALAR"},{"bufferView":2,"byteOffset":2693040,"componentType":5126,"count":1601,"max":[7380.0234375,12296.015625,3585.171875],"min":[-18000.00390625,-0.005126953125,-20414.849609375],"type":"VEC3"},{"bufferView":2,"byteOffset":2712252,"componentType":5126,"count":1601,"max":[1,1,1],"min":[-1,-1,-1],"type":"VEC3"},{"bufferView":1,"byteOffset":1216856,"componentType":5126,"count":1601,"max":[0.9024076461791992,0.9695345759391785],"min":[4.2929862331675395e-8,-0.000035882349038729444],"type":"VEC2"},{"bufferView":1,"byteOffset":1229664,"componentType":5126,"count":1601,"max":[0.9024076461791992,0.9695345759391785],"min":[4.2929862331675395e-8,-0.000035882349038729444],"type":"VEC2"},{"bufferView":1,"byteOffset":1242472,"componentType":5126,"count":1601,"max":[0.9024076461791992,0.9695345759391785],"min":[4.2929862331675395e-8,-0.000035882349038729444],"type":"VEC2"},{"bufferView":1,"byteOffset":1255280,"componentType":5126,"count":1601,"max":[0.9024076461791992,0.9695345759391785],"min":[4.2929862331675395e-8,-0.000035882349038729444],"type":"VEC2"},{"bufferView":1,"byteOffset":1268088,"componentType":5126,"count":1601,"max":[0.9024076461791992,0.9695345759391785],"min":[4.2929862331675395e-8,-0.000035882349038729444],"type":"VEC2"},{"bufferView":1,"byteOffset":1280896,"componentType":5126,"count":1601,"max":[0.9024076461791992,0.9695345759391785],"min":[4.2929862331675395e-8,-0.000035882349038729444],"type":"VEC2"},{"bufferView":1,"byteOffset":1293704,"componentType":5126,"count":1601,"max":[0.9024076461791992,0.9695345759391785],"min":[4.2929862331675395e-8,-0.000035882349038729444],"type":"VEC2"},{"bufferView":1,"byteOffset":1306512,"componentType":5126,"count":1601,"max":[0.9024076461791992,0.9695345759391785],"min":[4.2929862331675395e-8,-0.000035882349038729444],"type":"VEC2"},{"bufferView":1,"byteOffset":1319320,"componentType":5126,"count":1601,"max":[0.9024076461791992,0.9695345759391785],"min":[4.2929862331675395e-8,-0.000035882349038729444],"type":"VEC2"},{"bufferView":1,"byteOffset":1332128,"componentType":5126,"count":1601,"max":[0.9024076461791992,0.9695345759391785],"min":[4.2929862331675395e-8,-0.000035882349038729444],"type":"VEC2"},{"bufferView":0,"byteOffset":799884,"componentType":5125,"count":2823,"type":"SCALAR"},{"bufferView":2,"byteOffset":2731464,"componentType":5126,"count":1216,"max":[7277.21484375,10096.2109375,5300.828125],"min":[-19736.34375,-0.0050432682037353516,-20312.03515625],"type":"VEC3"},{"bufferView":2,"byteOffset":2746056,"componentType":5126,"count":1216,"max":[1,1,1],"min":[-1,-1,-1],"type":"VEC3"},{"bufferView":1,"byteOffset":1344936,"componentType":5126,"count":1216,"max":[0.8366041779518127,0.9406720399856567],"min":[0.012115351855754852,0.0014907269505783916],"type":"VEC2"},{"bufferView":1,"byteOffset":1354664,"componentType":5126,"count":1216,"max":[0.8366041779518127,0.9406720399856567],"min":[0.012115351855754852,0.0014907269505783916],"type":"VEC2"},{"bufferView":1,"byteOffset":1364392,"componentType":5126,"count":1216,"max":[0.8366041779518127,0.9406720399856567],"min":[0.012115351855754852,0.0014907269505783916],"type":"VEC2"},{"bufferView":1,"byteOffset":1374120,"componentType":5126,"count":1216,"max":[0.8366041779518127,0.9406720399856567],"min":[0.012115351855754852,0.0014907269505783916],"type":"VEC2"},{"bufferView":1,"byteOffset":1383848,"componentType":5126,"count":1216,"max":[0.8366041779518127,0.9406720399856567],"min":[0.012115351855754852,0.0014907269505783916],"type":"VEC2"},{"bufferView":1,"byteOffset":1393576,"componentType":5126,"count":1216,"max":[0.8366041779518127,0.9406720399856567],"min":[0.012115351855754852,0.0014907269505783916],"type":"VEC2"},{"bufferView":1,"byteOffset":1403304,"componentType":5126,"count":1216,"max":[0.8366041779518127,0.9406720399856567],"min":[0.012115351855754852,0.0014907269505783916],"type":"VEC2"},{"bufferView":1,"byteOffset":1413032,"componentType":5126,"count":1216,"max":[0.8366041779518127,0.9406720399856567],"min":[0.012115351855754852,0.0014907269505783916],"type":"VEC2"},{"bufferView":1,"byteOffset":1422760,"componentType":5126,"count":1216,"max":[0.8366041779518127,0.9406720399856567],"min":[0.012115351855754852,0.0014907269505783916],"type":"VEC2"},{"bufferView":1,"byteOffset":1432488,"componentType":5126,"count":1216,"max":[0.8366041779518127,0.9406720399856567],"min":[0.012115351855754852,0.0014907269505783916],"type":"VEC2"},{"bufferView":0,"byteOffset":811176,"componentType":5125,"count":2274,"type":"SCALAR"}],"asset":{"extras":{"author":"Daniel Zhabotinsky (https://sketchfab.com/DanielZhabotinsky)","license":"CC-BY-4.0 (http://creativecommons.org/licenses/by/4.0/)","source":"https://sketchfab.com/3d-models/brownstone-building-set-low-poly-model-b15e6344acd844eabc823e1cc8332574","title":"Brownstone Building Set - Low poly model"},"generator":"Sketchfab-16.62.0","version":"2.0"},"bufferViews":[{"buffer":0,"byteLength":820272,"name":"floatBufferViews","target":34963},{"buffer":0,"byteLength":1442216,"byteOffset":820272,"byteStride":8,"name":"floatBufferViews","target":34962},{"buffer":0,"byteLength":2760648,"byteOffset":2262488,"byteStride":12,"name":"floatBufferViews","target":34962}],"buffers":[{"byteLength":5023136,"uri":"scene.bin"}],"extensionsUsed":["KHR_materials_specular"],"images":[{"uri":"textures/Brownstone_Facade_Flr_1_baseColor.webp","mimeType":"image/webp"},{"uri":"textures/Brownstone_Facade_Flr_1_metallicRoughness.webp","mimeType":"image/webp"},{"uri":"textures/Brownstone_Facade_Flr_1_specularf0.webp","mimeType":"image/webp"},{"uri":"textures/Brownstone_Facade_Flr_5_baseColor.webp","mimeType":"image/webp"},{"uri":"textures/Brownstone_Facade_Flr_5_metallicRoughness.webp","mimeType":"image/webp"},{"uri":"textures/Brownstone_Facade_Flr_5_specularf0.webp","mimeType":"image/webp"},{"uri":"textures/Midcity_Facade_FLR_1_baseColor.webp","mimeType":"image/webp"},{"uri":"textures/Midcity_Facade_FLR_1_metallicRoughness.webp","mimeType":"image/webp"},{"uri":"textures/Midcity_Facade_FLR_1_specularf0.webp","mimeType":"image/webp"},{"uri":"textures/Brownstone_Facade_Flr_2_baseColor.webp","mimeType":"image/webp"},{"uri":"textures/Brownstone_Facade_Flr_2_metallicRoughness.webp","mimeType":"image/webp"},{"uri":"textures/Brownstone_Facade_Flr_2_specularf0.webp","mimeType":"image/webp"},{"uri":"textures/Brownstone_Firstfloor_1_baseColor.webp","mimeType":"image/webp"},{"uri":"textures/Brownstone_Firstfloor_1_metallicRoughness.webp","mimeType":"image/webp"},{"uri":"textures/Brownstone_Firstfloor_1_specularf0.webp","mimeType":"image/webp"},{"uri":"textures/Brownstone_Facade_Flr_6_baseColor.webp","mimeType":"image/webp"},{"uri":"textures/Brownstone_Facade_Flr_6_metallicRoughness.webp","mimeType":"image/webp"},{"uri":"textures/Brownstone_Facade_Flr_6_specularf0.webp","mimeType":"image/webp"},{"uri":"textures/Brownstone_Maskedstuff_1_baseColor.webp","mimeType":"image/webp"},{"uri":"textures/Brownstone_Maskedstuff_1_metallicRoughness.webp","mimeType":"image/webp"},{"uri":"textures/Brownstone_Maskedstuff_1_specularf0.webp","mimeType":"image/webp"},{"uri":"textures/Brownstone_Facade_Flr_3_baseColor.webp","mimeType":"image/webp"},{"uri":"textures/Brownstone_Facade_Flr_3_metallicRoughness.webp","mimeType":"image/webp"},{"uri":"textures/Brownstone_Facade_Flr_3_specularf0.webp","mimeType":"image/webp"},{"uri":"textures/Brownstone_Facade_Flr_4_baseColor.webp","mimeType":"image/webp"},{"uri":"textures/Brownstone_Facade_Flr_4_metallicRoughness.webp","mimeType":"image/webp"},{"uri":"textures/Brownstone_Facade_Flr_4_specularf0.webp","mimeType":"image/webp"},{"uri":"textures/Brownstone_Wall_1_baseColor.webp","mimeType":"image/webp"},{"uri":"textures/Brownstone_Wall_1_metallicRoughness.webp","mimeType":"image/webp"},{"uri":"textures/Brownstone_Wall_1_specularf0.webp","mimeType":"image/webp"}],"materials":[{"doubleSided":true,"extensions":{"KHR_materials_specular":{"specularColorFactor":[1,1,1],"specularFactor":1,"specularTexture":{"index":2}}},"name":"Brownstone_Facade_Flr_1","pbrMetallicRoughness":{"baseColorTexture":{"index":0},"metallicFactor":0,"metallicRoughnessTexture":{"index":1}}},{"doubleSided":true,"extensions":{"KHR_materials_specular":{"specularColorFactor":[1,1,1],"specularFactor":1,"specularTexture":{"index":5}}},"name":"Brownstone_Facade_Flr_5","pbrMetallicRoughness":{"baseColorTexture":{"index":3},"metallicFactor":0,"metallicRoughnessTexture":{"index":4}}},{"doubleSided":true,"extensions":{"KHR_materials_specular":{"specularColorFactor":[1,1,1],"specularFactor":1,"specularTexture":{"index":8}}},"name":"Midcity_Facade_FLR_1","pbrMetallicRoughness":{"baseColorTexture":{"index":6},"metallicFactor":0,"metallicRoughnessTexture":{"index":7}}},{"doubleSided":true,"extensions":{"KHR_materials_specular":{"specularColorFactor":[1,1,1],"specularFactor":1,"specularTexture":{"index":11}}},"name":"Brownstone_Facade_Flr_2","pbrMetallicRoughness":{"baseColorTexture":{"index":9},"metallicFactor":0,"metallicRoughnessTexture":{"index":10}}},{"doubleSided":true,"extensions":{"KHR_materials_specular":{"specularColorFactor":[1,1,1],"specularFactor":1,"specularTexture":{"index":14}}},"name":"Brownstone_Firstfloor_1","pbrMetallicRoughness":{"baseColorTexture":{"index":12},"metallicFactor":0,"metallicRoughnessTexture":{"index":13}}},{"doubleSided":true,"extensions":{"KHR_materials_specular":{"specularColorFactor":[1,1,1],"specularFactor":1,"specularTexture":{"index":17}}},"name":"Brownstone_Facade_Flr_6","pbrMetallicRoughness":{"baseColorTexture":{"index":15},"metallicFactor":0,"metallicRoughnessTexture":{"index":16}}},{"doubleSided":true,"extensions":{"KHR_materials_specular":{"specularColorFactor":[1,1,1],"specularFactor":1,"specularTexture":{"index":20}}},"name":"Brownstone_Maskedstuff_1","pbrMetallicRoughness":{"baseColorTexture":{"index":18},"metallicFactor":0,"metallicRoughnessTexture":{"index":19}}},{"doubleSided":true,"extensions":{"KHR_materials_specular":{"specularColorFactor":[1,1,1],"specularFactor":1,"specularTexture":{"index":23}}},"name":"Brownstone_Facade_Flr_3","pbrMetallicRoughness":{"baseColorTexture":{"index":21},"metallicFactor":0,"metallicRoughnessTexture":{"index":22}}},{"doubleSided":true,"extensions":{"KHR_materials_specular":{"specularColorFactor":[1,1,1],"specularFactor":1,"specularTexture":{"index":8}}},"name":"Brownstone_Facade_FLR_7","pbrMetallicRoughness":{"baseColorTexture":{"index":6},"metallicFactor":0,"metallicRoughnessTexture":{"index":7}}},{"doubleSided":true,"extensions":{"KHR_materials_specular":{"specularColorFactor":[1,1,1],"specularFactor":1,"specularTexture":{"index":20}}},"name":"Brownstone_Maskedstuff_1_0","pbrMetallicRoughness":{"baseColorTexture":{"index":18},"metallicFactor":0,"metallicRoughnessTexture":{"index":19}}},{"doubleSided":true,"extensions":{"KHR_materials_specular":{"specularColorFactor":[1,1,1],"specularFactor":1,"specularTexture":{"index":23}}},"name":"Brownstone_Facade_Flr_3_Dif","pbrMetallicRoughness":{"baseColorTexture":{"index":21},"metallicFactor":0,"metallicRoughnessTexture":{"index":22}}},{"doubleSided":true,"extensions":{"KHR_materials_specular":{"specularColorFactor":[1,1,1],"specularFactor":1,"specularTexture":{"index":14}}},"name":"Brownstone_Firstfloor_1_dif","pbrMetallicRoughness":{"baseColorTexture":{"index":12},"metallicFactor":0,"metallicRoughnessTexture":{"index":13}}},{"doubleSided":true,"extensions":{"KHR_materials_specular":{"specularColorFactor":[1,1,1],"specularFactor":1,"specularTexture":{"index":26}}},"name":"Brownstone_Facade_Flr_4","pbrMetallicRoughness":{"baseColorTexture":{"index":24},"metallicFactor":0,"metallicRoughnessTexture":{"index":25}}},{"doubleSided":true,"extensions":{"KHR_materials_specular":{"specularColorFactor":[1,1,1],"specularFactor":1,"specularTexture":{"index":29}}},"name":"Brownstone_Wall_1","pbrMetallicRoughness":{"baseColorTexture":{"index":27},"metallicFactor":0,"metallicRoughnessTexture":{"index":28}}}],"meshes":[{"name":"Brownstone_Classic_1_Brownstone_Facade_Flr_1_0","primitives":[{"attributes":{"NORMAL":1,"POSITION":0,"TEXCOORD_0":2},"indices":3,"material":0,"mode":4}]},{"name":"Brownstone_Commercial_1_C_Brownstone_Facade_Flr_5_0","primitives":[{"attributes":{"NORMAL":5,"POSITION":4,"TEXCOORD_0":6,"TEXCOORD_1":7,"TEXCOORD_2":8,"TEXCOORD_3":9,"TEXCOORD_4":10,"TEXCOORD_5":11,"TEXCOORD_6":12,"TEXCOORD_7":13,"TEXCOORD_8":14,"TEXCOORD_9":15},"indices":16,"material":1,"mode":4}]},{"name":"Brownstone_Commercial_1_C_Midcity_Facade_FLR_1_0","primitives":[{"attributes":{"NORMAL":18,"POSITION":17,"TEXCOORD_0":19,"TEXCOORD_1":20,"TEXCOORD_2":21,"TEXCOORD_3":22,"TEXCOORD_4":23,"TEXCOORD_5":24,"TEXCOORD_6":25,"TEXCOORD_7":26,"TEXCOORD_8":27,"TEXCOORD_9":28},"indices":29,"material":2,"mode":4}]},{"name":"Brownstone_FlatFacade_1_Brownstone_Facade_Flr_2_0","primitives":[{"attributes":{"NORMAL":31,"POSITION":30,"TEXCOORD_0":32},"indices":33,"material":3,"mode":4}]},{"name":"Brownstone_FlatFacade_1_Brownstone_Firstfloor_1_0","primitives":[{"attributes":{"NORMAL":35,"POSITION":34,"TEXCOORD_0":36},"indices":37,"material":4,"mode":4}]},{"name":"Brownstone_FlatFacade_1_Brownstone_Facade_Flr_6_0","primitives":[{"attributes":{"NORMAL":39,"POSITION":38,"TEXCOORD_0":40},"indices":41,"material":5,"mode":4}]},{"name":"Brownstone_FlatFacade_1_Brownstone_Maskedstuff_1_0","primitives":[{"attributes":{"NORMAL":43,"POSITION":42,"TEXCOORD_0":44,"TEXCOORD_1":45},"indices":46,"material":6,"mode":4}]},{"name":"Brownstone_FlatFacade_2_Brownstone_Facade_Flr_3_0","primitives":[{"attributes":{"NORMAL":48,"POSITION":47,"TEXCOORD_0":49},"indices":50,"material":7,"mode":4}]},{"name":"Brownstone_FlatFacade_2_Brownstone_Maskedstuff_1_0","primitives":[{"attributes":{"NORMAL":52,"POSITION":51,"TEXCOORD_0":53,"TEXCOORD_1":54},"indices":55,"material":6,"mode":4}]},{"name":"Brownstone_FlatFacade_2_Brownstone_Facade_Flr_6_0","primitives":[{"attributes":{"NORMAL":57,"POSITION":56,"TEXCOORD_0":58},"indices":59,"material":5,"mode":4}]},{"name":"Brownstone_FlatFacade_3_Brownstone_Facade_Flr_1_0","primitives":[{"attributes":{"NORMAL":61,"POSITION":60,"TEXCOORD_0":62},"indices":63,"material":0,"mode":4}]},{"name":"Brownstone_FlatFacade_3_Brownstone_Facade_FLR_7_0","primitives":[{"attributes":{"NORMAL":65,"POSITION":64,"TEXCOORD_0":66},"indices":67,"material":8,"mode":4}]},{"name":"Brownstone_FlatFacade_3_Brownstone_Maskedstuff_1_0","primitives":[{"attributes":{"NORMAL":69,"POSITION":68,"TEXCOORD_0":70,"TEXCOORD_1":71},"indices":72,"material":9,"mode":4}]},{"name":"Brownstone_FlatFacade_4_Brownstone_Facade_Flr_2_0","primitives":[{"attributes":{"NORMAL":74,"POSITION":73,"TEXCOORD_0":75},"indices":76,"material":3,"mode":4}]},{"name":"Brownstone_FlatFacade_4_Brownstone_Firstfloor_1_0","primitives":[{"attributes":{"NORMAL":78,"POSITION":77,"TEXCOORD_0":79},"indices":80,"material":4,"mode":4}]},{"name":"Brownstone_FlatFacade_5_Brownstone_Facade_Flr_3_0","primitives":[{"attributes":{"NORMAL":82,"POSITION":81,"TEXCOORD_0":83},"indices":84,"material":7,"mode":4}]},{"name":"Brownstone_FlatFacade_5_Brownstone_Firstfloor_1_0","primitives":[{"attributes":{"NORMAL":86,"POSITION":85,"TEXCOORD_0":87},"indices":88,"material":4,"mode":4}]},{"name":"Brownstone_FlatFacade_5_Brownstone_Maskedstuff_1_0","primitives":[{"attributes":{"NORMAL":90,"POSITION":89,"TEXCOORD_0":91,"TEXCOORD_1":92},"indices":93,"material":6,"mode":4}]},{"name":"Brownstone_FlatFacade_6_Brownstone_Facade_Flr_1_0","primitives":[{"attributes":{"NORMAL":95,"POSITION":94,"TEXCOORD_0":96},"indices":97,"material":0,"mode":4}]},{"name":"Brownstone_FlatFacade_6_Brownstone_Firstfloor_1_0","primitives":[{"attributes":{"NORMAL":99,"POSITION":98,"TEXCOORD_0":100},"indices":101,"material":4,"mode":4}]},{"name":"Brownstone_FlatFacade_6_B_Brownstone_Facade_Flr_1_0","primitives":[{"attributes":{"NORMAL":103,"POSITION":102,"TEXCOORD_0":104},"indices":105,"material":0,"mode":4}]},{"name":"Brownstone_FlatFacade_6_B_Brownstone_Firstfloor_1_0","primitives":[{"attributes":{"NORMAL":107,"POSITION":106,"TEXCOORD_0":108},"indices":109,"material":4,"mode":4}]},{"name":"Brownstone_FlatFacade_7_Brownstone_Facade_Flr_3_Dif_0","primitives":[{"attributes":{"NORMAL":111,"POSITION":110,"TEXCOORD_0":112},"indices":113,"material":10,"mode":4}]},{"name":"Brownstone_FlatFacade_7_Brownstone_Maskedstuff_1_0","primitives":[{"attributes":{"NORMAL":115,"POSITION":114,"TEXCOORD_0":116,"TEXCOORD_1":117},"indices":118,"material":6,"mode":4}]},{"name":"Brownstone_FlatFacade_7_Brownstone_Firstfloor_1_dif_0","primitives":[{"attributes":{"NORMAL":120,"POSITION":119,"TEXCOORD_0":121},"indices":122,"material":11,"mode":4}]},{"name":"Brownstone_FlatFacade_7_B_Brownstone_Facade_Flr_3_Dif_0","primitives":[{"attributes":{"NORMAL":124,"POSITION":123,"TEXCOORD_0":125},"indices":126,"material":10,"mode":4}]},{"name":"Brownstone_FlatFacade_7_B_Brownstone_Firstfloor_1_dif_0","primitives":[{"attributes":{"NORMAL":128,"POSITION":127,"TEXCOORD_0":129},"indices":130,"material":11,"mode":4}]},{"name":"Brownstone_FlatFacade_8_Brownstone_Facade_Flr_5_0","primitives":[{"attributes":{"NORMAL":132,"POSITION":131,"TEXCOORD_0":133},"indices":134,"material":1,"mode":4}]},{"name":"Brownstone_FlatFacade_8_Brownstone_Maskedstuff_1_0","primitives":[{"attributes":{"NORMAL":136,"POSITION":135,"TEXCOORD_0":137,"TEXCOORD_1":138},"indices":139,"material":6,"mode":4}]},{"name":"Brownstone_FlatFacade_8_Brownstone_Firstfloor_1_0","primitives":[{"attributes":{"NORMAL":141,"POSITION":140,"TEXCOORD_0":142},"indices":143,"material":4,"mode":4}]},{"name":"Brownstone_FlatFacade_9_Brownstone_Facade_Flr_4_0","primitives":[{"attributes":{"NORMAL":145,"POSITION":144,"TEXCOORD_0":146},"indices":147,"material":12,"mode":4}]},{"name":"Brownstone_FlatFacade_9_Brownstone_Maskedstuff_1_0","primitives":[{"attributes":{"NORMAL":149,"POSITION":148,"TEXCOORD_0":150,"TEXCOORD_1":151},"indices":152,"material":6,"mode":4}]},{"name":"Brownstone_FlatFacade_9_Brownstone_Facade_FLR_7_0","primitives":[{"attributes":{"NORMAL":154,"POSITION":153,"TEXCOORD_0":155},"indices":156,"material":8,"mode":4}]},{"name":"Brownstone_FlatFacade_9_B_Brownstone_Facade_Flr_4_0","primitives":[{"attributes":{"NORMAL":158,"POSITION":157,"TEXCOORD_0":159},"indices":160,"material":12,"mode":4}]},{"name":"Brownstone_FlatFacade_9_B_Brownstone_Facade_FLR_7_0","primitives":[{"attributes":{"NORMAL":162,"POSITION":161,"TEXCOORD_0":163},"indices":164,"material":8,"mode":4}]},{"name":"Brownstone_FlatFacade_9_C_Brownstone_Facade_Flr_5_0","primitives":[{"attributes":{"NORMAL":166,"POSITION":165,"TEXCOORD_0":167},"indices":168,"material":1,"mode":4}]},{"name":"Brownstone_FlatFacade_9_C_Brownstone_Facade_FLR_7_0","primitives":[{"attributes":{"NORMAL":170,"POSITION":169,"TEXCOORD_0":171},"indices":172,"material":8,"mode":4}]},{"name":"Brownstone_FlatFacade_9_C_Brownstone_Maskedstuff_1_0","primitives":[{"attributes":{"NORMAL":174,"POSITION":173,"TEXCOORD_0":175,"TEXCOORD_1":176},"indices":177,"material":6,"mode":4}]},{"name":"Brownstone_FlatFacade_12_Brownstone_Facade_Flr_4_0","primitives":[{"attributes":{"NORMAL":179,"POSITION":178,"TEXCOORD_0":180},"indices":181,"material":12,"mode":4}]},{"name":"Brownstone_FlatFacade_12_Brownstone_Firstfloor_1_0","primitives":[{"attributes":{"NORMAL":183,"POSITION":182,"TEXCOORD_0":184},"indices":185,"material":4,"mode":4}]},{"name":"Brownstone_FlatFacade_12_Brownstone_Maskedstuff_1_0","primitives":[{"attributes":{"NORMAL":187,"POSITION":186,"TEXCOORD_0":188,"TEXCOORD_1":189},"indices":190,"material":6,"mode":4}]},{"name":"Brownstone_FlatFacade_12_B_Brownstone_Facade_Flr_4_0","primitives":[{"attributes":{"NORMAL":192,"POSITION":191,"TEXCOORD_0":193},"indices":194,"material":12,"mode":4}]},{"name":"Brownstone_FlatFacade_12_B_Brownstone_Maskedstuff_1_0","primitives":[{"attributes":{"NORMAL":196,"POSITION":195,"TEXCOORD_0":197,"TEXCOORD_1":198},"indices":199,"material":6,"mode":4}]},{"name":"Brownstone_FlatFacade_12_B_Brownstone_Firstfloor_1_0","primitives":[{"attributes":{"NORMAL":201,"POSITION":200,"TEXCOORD_0":202},"indices":203,"material":4,"mode":4}]},{"name":"Brownstone_FlatFacade_12_C_Brownstone_Facade_Flr_5_0","primitives":[{"attributes":{"NORMAL":205,"POSITION":204,"TEXCOORD_0":206},"indices":207,"material":1,"mode":4}]},{"name":"Brownstone_FlatFacade_12_C_Brownstone_Facade_FLR_7_0","primitives":[{"attributes":{"NORMAL":209,"POSITION":208,"TEXCOORD_0":210},"indices":211,"material":8,"mode":4}]},{"name":"Brownstone_FlatFacade_12_C_Brownstone_Maskedstuff_1_0","primitives":[{"attributes":{"NORMAL":213,"POSITION":212,"TEXCOORD_0":214,"TEXCOORD_1":215},"indices":216,"material":6,"mode":4}]},{"name":"Brownstone_FlatFacadeComplex_1_Brownstone_Facade_Flr_2_0","primitives":[{"attributes":{"NORMAL":218,"POSITION":217,"TEXCOORD_0":219},"indices":220,"material":3,"mode":4}]},{"name":"Brownstone_FlatFacadeComplex_1_Brownstone_Firstfloor_1_0","primitives":[{"attributes":{"NORMAL":222,"POSITION":221,"TEXCOORD_0":223},"indices":224,"material":4,"mode":4}]},{"name":"Brownstone_FlatFacadeComplex_1_Brownstone_Facade_Flr_1_0","primitives":[{"attributes":{"NORMAL":226,"POSITION":225,"TEXCOORD_0":227},"indices":228,"material":0,"mode":4}]},{"name":"Brownstone_FlatFacadeComplex_2_Brownstone_Facade_Flr_2_0","primitives":[{"attributes":{"NORMAL":230,"POSITION":229,"TEXCOORD_0":231},"indices":232,"material":3,"mode":4}]},{"name":"Brownstone_FlatFacadeComplex_2_Brownstone_Facade_Flr_4_0","primitives":[{"attributes":{"NORMAL":234,"POSITION":233,"TEXCOORD_0":235},"indices":236,"material":12,"mode":4}]},{"name":"Brownstone_FlatFacadeComplex_2_Brownstone_Facade_FLR_7_0","primitives":[{"attributes":{"NORMAL":238,"POSITION":237,"TEXCOORD_0":239},"indices":240,"material":8,"mode":4}]},{"name":"Brownstone_Harlem_1_Brownstone_Facade_Flr_1_0","primitives":[{"attributes":{"NORMAL":242,"POSITION":241,"TEXCOORD_0":243},"indices":244,"material":0,"mode":4}]},{"name":"Brownstone_Harlem_1_Brownstone_Wall_1_0","primitives":[{"attributes":{"NORMAL":246,"POSITION":245,"TEXCOORD_0":247},"indices":248,"material":13,"mode":4}]},{"name":"Brownstone_Harlem_1_B_Brownstone_Facade_Flr_1_0","primitives":[{"attributes":{"NORMAL":250,"POSITION":249,"TEXCOORD_0":251},"indices":252,"material":0,"mode":4}]},{"name":"Brownstone_Harlem_1_B_Brownstone_Wall_1_0","primitives":[{"attributes":{"NORMAL":254,"POSITION":253,"TEXCOORD_0":255},"indices":256,"material":13,"mode":4}]},{"name":"Brownstone_Lowrise_1_Brownstone_Facade_Flr_3_0","primitives":[{"attributes":{"NORMAL":258,"POSITION":257,"TEXCOORD_0":259},"indices":260,"material":7,"mode":4}]},{"name":"Brownstone_Lowrise_1_Brownstone_Facade_FLR_7_0","primitives":[{"attributes":{"NORMAL":262,"POSITION":261,"TEXCOORD_0":263},"indices":264,"material":8,"mode":4}]},{"name":"Brownstone_Lowrise_1_B_Brownstone_Facade_Flr_3_0","primitives":[{"attributes":{"NORMAL":266,"POSITION":265,"TEXCOORD_0":267},"indices":268,"material":7,"mode":4}]},{"name":"Brownstone_Lowrise_1_B_Brownstone_Facade_FLR_7_0","primitives":[{"attributes":{"NORMAL":270,"POSITION":269,"TEXCOORD_0":271},"indices":272,"material":8,"mode":4}]},{"name":"Brownstone_Lowrise_1_C_Brownstone_Facade_Flr_4_0","primitives":[{"attributes":{"NORMAL":274,"POSITION":273,"TEXCOORD_0":275},"indices":276,"material":12,"mode":4}]},{"name":"Brownstone_Lowrise_1_C_Brownstone_Facade_FLR_7_0","primitives":[{"attributes":{"NORMAL":278,"POSITION":277,"TEXCOORD_0":279},"indices":280,"material":8,"mode":4}]},{"name":"Brownstone_ClassicComplex_1_Brownstone_Facade_Flr_2_0","primitives":[{"attributes":{"NORMAL":282,"POSITION":281,"TEXCOORD_0":283},"indices":284,"material":3,"mode":4}]},{"name":"Brownstone_ClassicComplex_1_Brownstone_Facade_Flr_1_0","primitives":[{"attributes":{"NORMAL":286,"POSITION":285,"TEXCOORD_0":287},"indices":288,"material":0,"mode":4}]},{"name":"Brownstone_ClassicComplex_2_Brownstone_Facade_Flr_2_0","primitives":[{"attributes":{"NORMAL":290,"POSITION":289,"TEXCOORD_0":291},"indices":292,"material":3,"mode":4}]},{"name":"Brownstone_ClassicComplex_2_Brownstone_Facade_Flr_5_0","primitives":[{"attributes":{"NORMAL":294,"POSITION":293,"TEXCOORD_0":295},"indices":296,"material":1,"mode":4}]},{"name":"Brownstone_ClassicComplex_2_Brownstone_Firstfloor_1_0","primitives":[{"attributes":{"NORMAL":298,"POSITION":297,"TEXCOORD_0":299},"indices":300,"material":4,"mode":4}]},{"name":"Brownstone_Commercial_1_Brownstone_Facade_Flr_5_0","primitives":[{"attributes":{"NORMAL":302,"POSITION":301,"TEXCOORD_0":303,"TEXCOORD_1":304,"TEXCOORD_2":305,"TEXCOORD_3":306,"TEXCOORD_4":307,"TEXCOORD_5":308,"TEXCOORD_6":309,"TEXCOORD_7":310,"TEXCOORD_8":311,"TEXCOORD_9":312},"indices":313,"material":1,"mode":4}]},{"name":"Brownstone_Commercial_1_Midcity_Facade_FLR_1_0","primitives":[{"attributes":{"NORMAL":315,"POSITION":314,"TEXCOORD_0":316,"TEXCOORD_1":317,"TEXCOORD_2":318,"TEXCOORD_3":319,"TEXCOORD_4":320,"TEXCOORD_5":321,"TEXCOORD_6":322,"TEXCOORD_7":323,"TEXCOORD_8":324,"TEXCOORD_9":325},"indices":326,"material":2,"mode":4}]}],"nodes":[{"children":[1],"matrix":[1,0,0,0,0,2.220446049250313e-16,-1,0,0,1,2.220446049250313e-16,0,0,0,0,1],"name":"Sketchfab_model"},{"children":[2],"matrix":[1,0,0,0,0,0,1,0,0,-1,0,0,0,0,0,1],"name":"ea235635be1f45918d59334ba9b55f42.fbx"},{"children":[3,6,10,16,21,26,29,34,38,42,47,51,55,59,62,66,71,76,81,86,91,94,97,101,105,109,113,118],"name":"RootNode"},{"children":[4],"matrix":[0.9752920269966125,0,0,0,0,0.9999999999999867,1.6292068494294582e-7,0,0,-1.6292068494294582e-7,0.9999999999999867,0,-90,0.0000019073486328125,13.530403137207031,1],"name":"Brownstone_Classic_1"},{"children":[5],"matrix":[1,0,0,0,0,1,0,0,0,0,1,0,-7.6139068603515625,2.366807460784912,9.722984313964844,1],"name":"Object_4"},{"mesh":0,"name":"Brownstone_Classic_1_Brownstone_Facade_Flr_1_0"},{"children":[7],"matrix":[3.428512915614505e-10,-4.4733926107904183e-26,-0.0008449999731964668,0,4.3986351922492167e-10,0.0008449999731964218,1.7847074613219906e-16,0,0.0008449999731963523,-4.398635192249578e-10,3.428512915614505e-10,0,-98.32376861572266,0.0024423599243164062,-26.90100860595703,1],"name":"Brownstone_Commercial_1_C"},{"children":[8,9],"matrix":[1,0,0,0,0,1,0,0,0,0,1,0,5120.693359375,6831.1474609375,8603.6044921875,1],"name":"Object_7"},{"mesh":1,"name":"Brownstone_Commercial_1_C_Brownstone_Facade_Flr_5_0"},{"mesh":2,"name":"Brownstone_Commercial_1_C_Midcity_Facade_FLR_1_0"},{"children":[11],"matrix":[1,0,0,0,0,0.9999999999999867,1.6292068494294582e-7,0,0,-1.6292068494294582e-7,0.9999999999999867,0,-17.814939498901367,0,53.53040313720703,1],"name":"Brownstone_FlatFacade_1"},{"children":[12,13,14,15],"matrix":[1,0,0,0,0,1,0,0,0,0,1,0,-10.000672340393066,15.3875732421875,9.99999713897705,1],"name":"Object_11"},{"mesh":3,"name":"Brownstone_FlatFacade_1_Brownstone_Facade_Flr_2_0"},{"mesh":4,"name":"Brownstone_FlatFacade_1_Brownstone_Firstfloor_1_0"},{"mesh":5,"name":"Brownstone_FlatFacade_1_Brownstone_Facade_Flr_6_0"},{"mesh":6,"name":"Brownstone_FlatFacade_1_Brownstone_Maskedstuff_1_0"},{"children":[17],"matrix":[1,0,0,0,0,2.220446049250313e-16,-1,0,0,1,2.220446049250313e-16,0,-44.59760665893555,0,13.530403137207031,1],"name":"Brownstone_FlatFacade_2"},{"children":[18,19,20],"matrix":[1,0,0,0,0,1,0,0,0,0,1,0,-9.597613334655762,0,0,1],"name":"Object_17"},{"mesh":7,"name":"Brownstone_FlatFacade_2_Brownstone_Facade_Flr_3_0"},{"mesh":8,"name":"Brownstone_FlatFacade_2_Brownstone_Maskedstuff_1_0"},{"mesh":9,"name":"Brownstone_FlatFacade_2_Brownstone_Facade_Flr_6_0"},{"children":[22],"matrix":[1,0,0,0,0,2.220446049250313e-16,-1,0,0,1,2.220446049250313e-16,0,-17.814939498901367,0,-26.46959686279297,1],"name":"Brownstone_FlatFacade_3"},{"children":[23,24,25],"matrix":[1,0,0,0,0,1,0,0,0,0,1,0,-5,0.7368437647819519,0,1],"name":"Object_22"},{"mesh":10,"name":"Brownstone_FlatFacade_3_Brownstone_Facade_Flr_1_0"},{"mesh":11,"name":"Brownstone_FlatFacade_3_Brownstone_Facade_FLR_7_0"},{"mesh":12,"name":"Brownstone_FlatFacade_3_Brownstone_Maskedstuff_1_0"},{"children":[27,28],"matrix":[1,0,0,0,0,2.220446049250313e-16,-1,0,0,1,2.220446049250313e-16,0,22.184724807739258,0.046630859375,53.53040313720703,1],"name":"Brownstone_FlatFacade_4"},{"mesh":13,"name":"Brownstone_FlatFacade_4_Brownstone_Facade_Flr_2_0"},{"mesh":14,"name":"Brownstone_FlatFacade_4_Brownstone_Firstfloor_1_0"},{"children":[30],"matrix":[1,0,0,0,0,2.220446049250313e-16,-1,0,0,1,2.220446049250313e-16,0,4.363046646118164,0,13.530406951904297,1],"name":"Brownstone_FlatFacade_5"},{"children":[31,32,33],"matrix":[1,0,0,0,0,1,0,0,0,0,1,0,-4.999997138977051,0,0,1],"name":"Object_30"},{"mesh":15,"name":"Brownstone_FlatFacade_5_Brownstone_Facade_Flr_3_0"},{"mesh":16,"name":"Brownstone_FlatFacade_5_Brownstone_Firstfloor_1_0"},{"mesh":17,"name":"Brownstone_FlatFacade_5_Brownstone_Maskedstuff_1_0"},{"children":[35],"matrix":[1,0,0,0,0,2.220446049250313e-16,-1,0,0,1,2.220446049250313e-16,0,22.185396194458008,0,-26.46959686279297,1],"name":"Brownstone_FlatFacade_6"},{"children":[36,37],"matrix":[1,0,0,0,0,1,0,0,0,0,1,0,-10.00067138671875,3.1227540969848633,-0.5,1],"name":"Object_35"},{"mesh":18,"name":"Brownstone_FlatFacade_6_Brownstone_Facade_Flr_1_0"},{"mesh":19,"name":"Brownstone_FlatFacade_6_Brownstone_Firstfloor_1_0"},{"children":[39],"matrix":[1,0,0,0,0,2.220446049250313e-16,-1,0,0,1,2.220446049250313e-16,0,62.185401916503906,0,-26.46959686279297,1],"name":"Brownstone_FlatFacade_6_B"},{"children":[40,41],"matrix":[1,0,0,0,0,1,0,0,0,0,1,0,-10.00067138671875,3.1227540969848633,-0.5,1],"name":"Object_39"},{"mesh":20,"name":"Brownstone_FlatFacade_6_B_Brownstone_Facade_Flr_1_0"},{"mesh":21,"name":"Brownstone_FlatFacade_6_B_Brownstone_Firstfloor_1_0"},{"children":[43],"matrix":[1,0,0,0,0,2.220446049250313e-16,-1,0,0,1,2.220446049250313e-16,0,49.702789306640625,0,13.530403137207031,1],"name":"Brownstone_FlatFacade_7"},{"children":[44,45,46],"matrix":[1,0,0,0,0,1,0,0,0,0,1,0,-5.000003814697266,0,0,1],"name":"Object_43"},{"mesh":22,"name":"Brownstone_FlatFacade_7_Brownstone_Facade_Flr_3_Dif_0"},{"mesh":23,"name":"Brownstone_FlatFacade_7_Brownstone_Maskedstuff_1_0"},{"mesh":24,"name":"Brownstone_FlatFacade_7_Brownstone_Firstfloor_1_dif_0"},{"children":[48],"matrix":[1,0,0,0,0,2.220446049250313e-16,-1,0,0,1,2.220446049250313e-16,0,62.18505859375,0,53.53040313720703,1],"name":"Brownstone_FlatFacade_7_B"},{"children":[49,50],"matrix":[1,0,0,0,0,1,0,0,0,0,1,0,-5.000003814697266,0,0,1],"name":"Object_48"},{"mesh":25,"name":"Brownstone_FlatFacade_7_B_Brownstone_Facade_Flr_3_Dif_0"},{"mesh":26,"name":"Brownstone_FlatFacade_7_B_Brownstone_Firstfloor_1_dif_0"},{"children":[52,53,54],"matrix":[1,0,0,0,0,2.220446049250313e-16,-1,0,0,1,2.220446049250313e-16,0,72.42460632324219,0,-80,1],"name":"Brownstone_FlatFacade_8"},{"mesh":27,"name":"Brownstone_FlatFacade_8_Brownstone_Facade_Flr_5_0"},{"mesh":28,"name":"Brownstone_FlatFacade_8_Brownstone_Maskedstuff_1_0"},{"mesh":29,"name":"Brownstone_FlatFacade_8_Brownstone_Firstfloor_1_0"},{"children":[56,57,58],"matrix":[1,0,0,0,0,2.220446049250313e-16,-1,0,0,1,2.220446049250313e-16,0,-137.87142944335938,0.046630859375,-27.462020874023438,1],"name":"Brownstone_FlatFacade_9"},{"mesh":30,"name":"Brownstone_FlatFacade_9_Brownstone_Facade_Flr_4_0"},{"mesh":31,"name":"Brownstone_FlatFacade_9_Brownstone_Maskedstuff_1_0"},{"mesh":32,"name":"Brownstone_FlatFacade_9_Brownstone_Facade_FLR_7_0"},{"children":[60,61],"matrix":[1,0,0,0,0,2.220446049250313e-16,-1,0,0,1,2.220446049250313e-16,0,-137.81494140625,0,52.96940612792969,1],"name":"Brownstone_FlatFacade_9_B"},{"mesh":33,"name":"Brownstone_FlatFacade_9_B_Brownstone_Facade_Flr_4_0"},{"mesh":34,"name":"Brownstone_FlatFacade_9_B_Brownstone_Facade_FLR_7_0"},{"children":[63,64,65],"matrix":[1,0,0,0,0,2.220446049250313e-16,-1,0,0,1,2.220446049250313e-16,0,-137.81494140625,0,13.530403137207031,1],"name":"Brownstone_FlatFacade_9_C"},{"mesh":35,"name":"Brownstone_FlatFacade_9_C_Brownstone_Facade_Flr_5_0"},{"mesh":36,"name":"Brownstone_FlatFacade_9_C_Brownstone_Facade_FLR_7_0"},{"mesh":37,"name":"Brownstone_FlatFacade_9_C_Brownstone_Maskedstuff_1_0"},{"children":[67],"matrix":[0.6646140217781067,0,0,0,0,1.2963341625870555e-16,-0.5838170051574707,0,0,0.4365580081939697,9.693535045628859e-17,0,102.18505859375,0,-26.46959686279297,1],"name":"Brownstone_FlatFacade_12"},{"children":[68,69,70],"matrix":[1,0,0,0,0,1,0,0,0,0,1,0,2.2993087768554688,-26.46440315246582,0,1],"name":"Object_67"},{"mesh":38,"name":"Brownstone_FlatFacade_12_Brownstone_Facade_Flr_4_0"},{"mesh":39,"name":"Brownstone_FlatFacade_12_Brownstone_Firstfloor_1_0"},{"mesh":40,"name":"Brownstone_FlatFacade_12_Brownstone_Maskedstuff_1_0"},{"children":[72],"matrix":[0.6646140217781067,0,0,0,0,1.2963341625870555e-16,-0.5838170051574707,0,0,0.4365580081939697,9.693535045628859e-17,0,102.18506622314453,0,13.530403137207031,1],"name":"Brownstone_FlatFacade_12_B"},{"children":[73,74,75],"matrix":[1,0,0,0,0,1,0,0,0,0,1,0,2.2993087768554688,-26.46440315246582,0,1],"name":"Object_72"},{"mesh":41,"name":"Brownstone_FlatFacade_12_B_Brownstone_Facade_Flr_4_0"},{"mesh":42,"name":"Brownstone_FlatFacade_12_B_Brownstone_Maskedstuff_1_0"},{"mesh":43,"name":"Brownstone_FlatFacade_12_B_Brownstone_Firstfloor_1_0"},{"children":[77],"matrix":[0.6646140217781067,0,0,0,0,1.2963341625870555e-16,-0.5838170051574707,0,0,0.4365580081939697,9.693535045628859e-17,0,102.18505859375,0,53.53040313720703,1],"name":"Brownstone_FlatFacade_12_C"},{"children":[78,79,80],"matrix":[1,0,0,0,0,1,0,0,0,0,1,0,2.2993087768554688,-26.46440315246582,0,1],"name":"Object_77"},{"mesh":44,"name":"Brownstone_FlatFacade_12_C_Brownstone_Facade_Flr_5_0"},{"mesh":45,"name":"Brownstone_FlatFacade_12_C_Brownstone_Facade_FLR_7_0"},{"mesh":46,"name":"Brownstone_FlatFacade_12_C_Brownstone_Maskedstuff_1_0"},{"children":[82],"matrix":[1,0,0,0,0,2.220446049250313e-16,-1,0,0,1,2.220446049250313e-16,0,-34.02500915527344,0,-76.9312744140625,1],"name":"Brownstone_FlatFacadeComplex_1"},{"children":[83,84,85],"matrix":[1,0,0,0,0,1,0,0,0,0,1,0,-13.447673797607422,-20.365203857421875,-0.41905874013900757,1],"name":"Object_82"},{"mesh":47,"name":"Brownstone_FlatFacadeComplex_1_Brownstone_Facade_Flr_2_0"},{"mesh":48,"name":"Brownstone_FlatFacadeComplex_1_Brownstone_Firstfloor_1_0"},{"mesh":49,"name":"Brownstone_FlatFacadeComplex_1_Brownstone_Facade_Flr_1_0"},{"children":[87],"matrix":[1,0,0,0,0,2.220446049250313e-16,-1,0,0,1,2.220446049250313e-16,0,-117.98160552978516,0,-76.9312744140625,1],"name":"Brownstone_FlatFacadeComplex_2"},{"children":[88,89,90],"matrix":[1,0,0,0,0,1,0,0,0,0,1,0,13.507696151733398,-24.837900161743164,0,1],"name":"Object_87"},{"mesh":50,"name":"Brownstone_FlatFacadeComplex_2_Brownstone_Facade_Flr_2_0"},{"mesh":51,"name":"Brownstone_FlatFacadeComplex_2_Brownstone_Facade_Flr_4_0"},{"mesh":52,"name":"Brownstone_FlatFacadeComplex_2_Brownstone_Facade_FLR_7_0"},{"children":[92,93],"matrix":[1,0,0,0,0,2.220446049250313e-16,-1,0,0,1,2.220446049250313e-16,0,100,0,-80,1],"name":"Brownstone_Harlem_1"},{"mesh":53,"name":"Brownstone_Harlem_1_Brownstone_Facade_Flr_1_0"},{"mesh":54,"name":"Brownstone_Harlem_1_Brownstone_Wall_1_0"},{"children":[95,96],"matrix":[1,0,0,0,0,2.220446049250313e-16,-1,0,0,1,2.220446049250313e-16,0,32.072509765625,0,-76.9312744140625,1],"name":"Brownstone_Harlem_1_B"},{"mesh":55,"name":"Brownstone_Harlem_1_B_Brownstone_Facade_Flr_1_0"},{"mesh":56,"name":"Brownstone_Harlem_1_B_Brownstone_Wall_1_0"},{"children":[98],"matrix":[1,0,0,0,0,0.9999999999999867,1.6292068494294582e-7,0,0,-1.6292068494294582e-7,0.9999999999999867,0,152.18505859375,0,-64.87920379638672,1],"name":"Brownstone_Lowrise_1"},{"children":[99,100],"matrix":[1,0,0,0,0,1,0,0,0,0,1,0,-10.048531532287598,8.51616096496582,20,1],"name":"Object_98"},{"mesh":57,"name":"Brownstone_Lowrise_1_Brownstone_Facade_Flr_3_0"},{"mesh":58,"name":"Brownstone_Lowrise_1_Brownstone_Facade_FLR_7_0"},{"children":[102],"matrix":[1,0,0,0,0,0.9999999999999867,1.6292068494294582e-7,0,0,-1.6292068494294582e-7,0.9999999999999867,0,152.18505859375,0,-14.879205703735352,1],"name":"Brownstone_Lowrise_1_B"},{"children":[103,104],"matrix":[1,0,0,0,0,1,0,0,0,0,1,0,-10.048531532287598,8.51616096496582,20,1],"name":"Object_102"},{"mesh":59,"name":"Brownstone_Lowrise_1_B_Brownstone_Facade_Flr_3_0"},{"mesh":60,"name":"Brownstone_Lowrise_1_B_Brownstone_Facade_FLR_7_0"},{"children":[106],"matrix":[1,0,0,0,0,0.9999999999999867,1.6292068494294582e-7,0,0,-1.6292068494294582e-7,0.9999999999999867,0,152.18505859375,0,35.12079620361328,1],"name":"Brownstone_Lowrise_1_C"},{"children":[107,108],"matrix":[1,0,0,0,0,1,0,0,0,0,1,0,-10.048531532287598,8.51616096496582,20,1],"name":"Object_106"},{"mesh":61,"name":"Brownstone_Lowrise_1_C_Brownstone_Facade_Flr_4_0"},{"mesh":62,"name":"Brownstone_Lowrise_1_C_Brownstone_Facade_FLR_7_0"},{"children":[110],"matrix":[1,0,0,0,0,2.220446049250313e-16,-1,0,0,1,2.220446049250313e-16,0,-57.13020324707031,0,-26.136154174804688,1],"name":"Brownstone_ClassicComplex_1"},{"children":[111,112],"matrix":[1,0,0,0,0,1,0,0,0,0,1,0,18.404748916625977,-10.847896575927734,0,1],"name":"Object_110"},{"mesh":63,"name":"Brownstone_ClassicComplex_1_Brownstone_Facade_Flr_2_0"},{"mesh":64,"name":"Brownstone_ClassicComplex_1_Brownstone_Facade_Flr_1_0"},{"children":[114],"matrix":[1,0,0,0,0,2.220446049250313e-16,-1,0,0,1,2.220446049250313e-16,0,-60.528419494628906,0.000002384185791015625,53.766544342041016,1],"name":"Brownstone_ClassicComplex_2"},{"children":[115,116,117],"matrix":[1,0,0,0,0,1,0,0,0,0,1,0,-3.0109729766845703,-10.090847969055176,0.0014624595642089844,1],"name":"Object_114"},{"mesh":65,"name":"Brownstone_ClassicComplex_2_Brownstone_Facade_Flr_2_0"},{"mesh":66,"name":"Brownstone_ClassicComplex_2_Brownstone_Facade_Flr_5_0"},{"mesh":67,"name":"Brownstone_ClassicComplex_2_Brownstone_Firstfloor_1_0"},{"children":[119],"matrix":[4.4273766695422294e-10,0,-0.0008449999731964204,0,5.405953795845033e-10,0.0008449999731963634,2.832449050086959e-16,0,0.0008449999731962474,-5.405953795845776e-10,4.4273766695422294e-10,0,-98.32373809814453,0.0024423599243164062,53.53040313720703,1],"name":"Brownstone_Commercial_1"},{"children":[120,121],"matrix":[1,0,0,0,0,1,0,0,0,0,1,0,5120.69384765625,-2.892822265625,8603.6064453125,1],"name":"Object_119"},{"mesh":68,"name":"Brownstone_Commercial_1_Brownstone_Facade_Flr_5_0"},{"mesh":69,"name":"Brownstone_Commercial_1_Midcity_Facade_FLR_1_0"}],"samplers":[{"magFilter":9729,"minFilter":9987,"wrapS":10497,"wrapT":10497}],"scene":0,"scenes":[{"name":"Sketchfab_Scene","nodes":[0]}],"textures":[{"sampler":0,"source":0},{"sampler":0,"source":1},{"sampler":0,"source":2},{"sampler":0,"source":3},{"sampler":0,"source":4},{"sampler":0,"source":5},{"sampler":0,"source":6},{"sampler":0,"source":7},{"sampler":0,"source":8},{"sampler":0,"source":9},{"sampler":0,"source":10},{"sampler":0,"source":11},{"sampler":0,"source":12},{"sampler":0,"source":13},{"sampler":0,"source":14},{"sampler":0,"source":15},{"sampler":0,"source":16},{"sampler":0,"source":17},{"sampler":0,"source":18},{"sampler":0,"source":19},{"sampler":0,"source":20},{"sampler":0,"source":21},{"sampler":0,"source":22},{"sampler":0,"source":23},{"sampler":0,"source":24},{"sampler":0,"source":25},{"sampler":0,"source":26},{"sampler":0,"source":27},{"sampler":0,"source":28},{"sampler":0,"source":29}],"extensionsRequired":[]}