{"accessors":[{"bufferView":2,"componentType":5126,"count":2830,"max":[0.7381431460380554,2.9598865509033203,0.6888004541397095],"min":[-0.7381431460380554,-1.4907056093215942,-0.5063786506652832],"type":"VEC3"},{"bufferView":2,"byteOffset":33960,"componentType":5126,"count":2830,"max":[1,0.9940459728240967,0.999950647354126],"min":[-1,-0.999661922454834,-0.9999547004699707],"type":"VEC3"},{"bufferView":1,"componentType":5126,"count":2830,"max":[0.9104419946670532,1.4942811727523804],"min":[-0.9732193946838379,-0.3988052308559418],"type":"VEC2"},{"bufferView":1,"byteOffset":22640,"componentType":5126,"count":2830,"max":[0.9104419946670532,1.4942811727523804],"min":[-0.9732193946838379,-0.3988052308559418],"type":"VEC2"},{"bufferView":0,"componentType":5125,"count":10584,"type":"SCALAR"},{"bufferView":2,"byteOffset":67920,"componentType":5126,"count":973,"max":[0.6644242405891418,2.959930658340454,0.6537497639656067],"min":[-0.6644242405891418,-1.2072150707244873,-0.4152110815048218],"type":"VEC3"},{"bufferView":2,"byteOffset":79596,"componentType":5126,"count":973,"max":[0.9973291158676147,0.9795144200325012,1],"min":[-0.9973291158676147,-0.7058849930763245,-0.9298925995826721],"type":"VEC3"},{"bufferView":1,"byteOffset":45280,"componentType":5126,"count":973,"max":[0.7500000596046448,0.7349641919136047],"min":[0.4028877019882202,0.3750000298023224],"type":"VEC2"},{"bufferView":0,"byteOffset":42336,"componentType":5125,"count":3834,"type":"SCALAR"},{"bufferView":2,"byteOffset":91272,"componentType":5126,"count":180,"max":[0.4995301067829132,2.1517651081085205,0.6002790927886963],"min":[-0.4995301067829132,0.06375287473201752,0.15588520467281342],"type":"VEC3"},{"bufferView":2,"byteOffset":93432,"componentType":5126,"count":180,"max":[0.9867742657661438,0.9376142621040344,0.9998559951782227],"min":[-0.9867746829986572,-0.9985300302505493,-0.6821967959403992],"type":"VEC3"},{"bufferView":1,"byteOffset":53064,"componentType":5126,"count":180,"max":[0.7500000596046448,0.6800444722175598],"min":[0,0],"type":"VEC2"},{"bufferView":0,"byteOffset":57672,"componentType":5125,"count":702,"type":"SCALAR"},{"bufferView":2,"byteOffset":95592,"componentType":5126,"count":980,"max":[0.7121109962463379,-0.07516203820705414,0.3520734906196594],"min":[-0.7120718359947205,-1.4687221050262451,-0.17395392060279846],"type":"VEC3"},{"bufferView":2,"byteOffset":107352,"componentType":5126,"count":980,"max":[1,0.9736323356628418,0.9987421035766602],"min":[-1,-0.999988317489624,-0.9803124070167542],"type":"VEC3"},{"bufferView":1,"byteOffset":54504,"componentType":5126,"count":980,"max":[0.8638561964035034,1.089475393295288],"min":[-0.9732193946838379,-0.331449955701828],"type":"VEC2"},{"bufferView":1,"byteOffset":62344,"componentType":5126,"count":980,"max":[0.8638561964035034,1.089475393295288],"min":[-0.9732193946838379,-0.331449955701828],"type":"VEC2"},{"bufferView":0,"byteOffset":60480,"componentType":5125,"count":4608,"type":"SCALAR"},{"bufferView":2,"byteOffset":119112,"componentType":5126,"count":832,"max":[0.10151827335357666,0.039409518241882324,0.6381189227104187],"min":[-0.1503453552722931,-0.9412872791290283,-0.3837087154388428],"type":"VEC3"},{"bufferView":2,"byteOffset":129096,"componentType":5126,"count":832,"max":[0.999075174331665,0.9978251457214355,0.9982042908668518],"min":[-0.9976423978805542,-0.9989745020866394,-0.9864686131477356],"type":"VEC3"},{"bufferView":1,"byteOffset":70184,"componentType":5126,"count":832,"max":[0.9792544841766357,1.4501986503601074],"min":[-0.6833271980285645,-0.47994527220726013],"type":"VEC2"},{"bufferView":1,"byteOffset":76840,"componentType":5126,"count":832,"max":[0.9792544841766357,1.4501986503601074],"min":[-0.6833271980285645,-0.47994527220726013],"type":"VEC2"},{"bufferView":0,"byteOffset":78912,"componentType":5125,"count":3162,"type":"SCALAR"},{"bufferView":2,"byteOffset":139080,"componentType":5126,"count":110,"max":[0.0016171932220458984,0.012783050537109375,0.2870672643184662],"min":[-0.06413137912750244,-0.8773483633995056,0.21401086449623108],"type":"VEC3"},{"bufferView":2,"byteOffset":140400,"componentType":5126,"count":110,"max":[0.9980719089508057,0.9978251457214355,0.9972212314605713],"min":[-0.459471195936203,-0.7352690100669861,-0.39605170488357544],"type":"VEC3"},{"bufferView":1,"byteOffset":83496,"componentType":5126,"count":110,"max":[0.6712318062782288,0.6806077361106873],"min":[0.6707085371017456,0.636393666267395],"type":"VEC2"},{"bufferView":0,"byteOffset":91560,"componentType":5125,"count":405,"type":"SCALAR"},{"bufferView":2,"byteOffset":141720,"componentType":5126,"count":124,"max":[-0.05406707525253296,0.02538454532623291,0.5960917472839355],"min":[-0.15105637907981873,-0.7560645341873169,0.3015361726284027],"type":"VEC3"},{"bufferView":2,"byteOffset":143208,"componentType":5126,"count":124,"max":[0.9751289486885071,0.727268636226654,0.7635806798934937],"min":[-0.9998126029968262,-0.692753791809082,-0.8952144384384155],"type":"VEC3"},{"bufferView":1,"byteOffset":84376,"componentType":5126,"count":124,"max":[0.6717334985733032,0.67781662940979],"min":[0,0],"type":"VEC2"},{"bufferView":0,"byteOffset":93180,"componentType":5125,"count":378,"type":"SCALAR"},{"bufferView":2,"byteOffset":144696,"componentType":5126,"count":78,"max":[0.06818485260009766,-0.004901766777038574,0.21401086449623108],"min":[-0.07083410024642944,-0.9308861494064331,-0.36624979972839355],"type":"VEC3"},{"bufferView":2,"byteOffset":145632,"componentType":5126,"count":78,"max":[-0.07916546612977982,0.7950026988983154,0.2543185353279114],"min":[-0.9999661445617676,-0.9950616955757141,-0.957496702671051],"type":"VEC3"},{"bufferView":3,"componentType":5126,"count":78,"max":[0.6800268292427063,0.9972903728485107,0.9340037703514099,1],"min":[-0.7343568205833435,-0.9996566772460938,-0.9999865889549255,1],"type":"VEC4"},{"bufferView":1,"byteOffset":85368,"componentType":5126,"count":78,"max":[1.7122153043746948,1.9033950567245483],"min":[-0.8253744840621948,-0.868256688117981],"type":"VEC2"},{"bufferView":1,"byteOffset":85992,"componentType":5126,"count":78,"max":[1.7122153043746948,1.9033950567245483],"min":[-0.8253744840621948,-0.868256688117981],"type":"VEC2"},{"bufferView":1,"byteOffset":86616,"componentType":5126,"count":78,"max":[1.7122153043746948,1.9033950567245483],"min":[-0.8253744840621948,-0.868256688117981],"type":"VEC2"},{"bufferView":0,"byteOffset":94692,"componentType":5125,"count":288,"type":"SCALAR"},{"bufferView":2,"byteOffset":146568,"componentType":5126,"count":105,"max":[-0.04021817445755005,-0.0013730525970458984,0.29681092500686646],"min":[-0.10341554880142212,-0.8857077360153198,0.19545820355415344],"type":"VEC3"},{"bufferView":2,"byteOffset":147828,"componentType":5126,"count":105,"max":[0.0261247381567955,0.9992390871047974,0.9999690055847168],"min":[-0.9997928142547607,-0.9323552250862122,-0.9999871253967285],"type":"VEC3"},{"bufferView":1,"byteOffset":87240,"componentType":5126,"count":105,"max":[0.9795112013816833,0.495728075504303],"min":[0.020488739013671875,-0.0089702308177948],"type":"VEC2"},{"bufferView":1,"byteOffset":88080,"componentType":5126,"count":105,"max":[0.9795112013816833,0.495728075504303],"min":[0.020488739013671875,-0.0089702308177948],"type":"VEC2"},{"bufferView":1,"byteOffset":88920,"componentType":5126,"count":105,"max":[0.9795112013816833,0.495728075504303],"min":[0.020488739013671875,-0.0089702308177948],"type":"VEC2"},{"bufferView":0,"byteOffset":95844,"componentType":5125,"count":345,"type":"SCALAR"},{"bufferView":2,"byteOffset":149088,"componentType":5126,"count":89,"max":[0.09866631031036377,-0.742662787437439,0.15095144510269165],"min":[-0.08031487464904785,-0.8360323905944824,0.08402767032384872],"type":"VEC3"},{"bufferView":2,"byteOffset":150156,"componentType":5126,"count":89,"max":[0.9999277591705322,0.9970594048500061,0.9999793767929077],"min":[-0.9999914169311523,-0.9970594048500061,-0.9999784231185913],"type":"VEC3"},{"bufferView":1,"byteOffset":89760,"componentType":5126,"count":89,"max":[0.875,1],"min":[0.125,0],"type":"VEC2"},{"bufferView":0,"byteOffset":97224,"componentType":5125,"count":456,"type":"SCALAR"},{"bufferView":2,"byteOffset":151224,"componentType":5126,"count":691,"max":[0.06308722496032715,0.728354811668396,0.6244012117385864],"min":[-0.17652156949043274,-0.01840388774871826,-0.38520798087120056],"type":"VEC3"},{"bufferView":2,"byteOffset":159516,"componentType":5126,"count":691,"max":[0.9989219307899475,0.9946280717849731,0.9997721910476685],"min":[-0.9985401034355164,-0.9852993488311768,-0.9995372295379639],"type":"VEC3"},{"bufferView":1,"byteOffset":90472,"componentType":5126,"count":691,"max":[0.9508174657821655,1.4942810535430908],"min":[-0.9732195138931274,-0.46335288882255554],"type":"VEC2"},{"bufferView":1,"byteOffset":96000,"componentType":5126,"count":691,"max":[0.9508174657821655,1.4942810535430908],"min":[-0.9732195138931274,-0.46335288882255554],"type":"VEC2"},{"bufferView":0,"byteOffset":99048,"componentType":5125,"count":2526,"type":"SCALAR"},{"bufferView":2,"byteOffset":167808,"componentType":5126,"count":106,"max":[-0.016859829425811768,0.7279394865036011,0.2818915843963623],"min":[-0.1560555398464203,0.0035926103591918945,0.18009760975837708],"type":"VEC3"},{"bufferView":2,"byteOffset":169080,"componentType":5126,"count":106,"max":[0.9975709915161133,0.9934817552566528,0.9969795942306519],"min":[-0.8264549374580383,-0.9852993488311768,-0.9063198566436768],"type":"VEC3"},{"bufferView":1,"byteOffset":101528,"componentType":5126,"count":106,"max":[0.6712318062782288,0.638672411441803],"min":[0.6707085371017456,0.5924527645111084],"type":"VEC2"},{"bufferView":0,"byteOffset":109152,"componentType":5125,"count":426,"type":"SCALAR"},{"bufferView":2,"byteOffset":170352,"componentType":5126,"count":58,"max":[-0.0754615068435669,0.6925399303436279,0.5576179027557373],"min":[-0.17652156949043274,0.04187119007110596,0.27759552001953125],"type":"VEC3"},{"bufferView":2,"byteOffset":171048,"componentType":5126,"count":58,"max":[0.9778222441673279,0.7931270003318787,0.9313122630119324],"min":[0.3574059009552002,-0.6327847838401794,-0.5738478302955627],"type":"VEC3"},{"bufferView":1,"byteOffset":102376,"componentType":5126,"count":58,"max":[0.6716926693916321,0.6409510374069214],"min":[0,0],"type":"VEC2"},{"bufferView":0,"byteOffset":110856,"componentType":5125,"count":204,"type":"SCALAR"},{"bufferView":2,"byteOffset":171744,"componentType":5126,"count":66,"max":[0.027909517288208008,0.7247265577316284,0.2284223884344101],"min":[-0.16930678486824036,0.0037883520126342773,-0.37441033124923706],"type":"VEC3"},{"bufferView":2,"byteOffset":172536,"componentType":5126,"count":66,"max":[-0.046664051711559296,0.9783489108085632,0.12299350649118423],"min":[-0.989886999130249,-0.915064811706543,-0.9160252809524536],"type":"VEC3"},{"bufferView":3,"byteOffset":1248,"componentType":5126,"count":66,"max":[0.7913377285003662,0.07069096714258194,0.7590302228927612,1],"min":[-0.9918596148490906,-0.9908359050750732,-0.9990818500518799,1],"type":"VEC4"},{"bufferView":1,"byteOffset":102840,"componentType":5126,"count":66,"max":[1.939278483390808,1.8730459213256836],"min":[-0.9392784833908081,-0.8068137168884277],"type":"VEC2"},{"bufferView":1,"byteOffset":103368,"componentType":5126,"count":66,"max":[1.939278483390808,1.8730459213256836],"min":[-0.9392784833908081,-0.8068137168884277],"type":"VEC2"},{"bufferView":1,"byteOffset":103896,"componentType":5126,"count":66,"max":[1.939278483390808,1.8730459213256836],"min":[-0.9392784833908081,-0.8068137168884277],"type":"VEC2"},{"bufferView":0,"byteOffset":111672,"componentType":5125,"count":207,"type":"SCALAR"},{"bufferView":2,"byteOffset":173328,"componentType":5126,"count":75,"max":[-0.044605135917663574,0.6981059312820435,0.29410743713378906],"min":[-0.17673194408416748,0.0036208629608154297,0.1693045198917389],"type":"VEC3"},{"bufferView":2,"byteOffset":174228,"componentType":5126,"count":75,"max":[0.238414004445076,0.9886758327484131,0.9997721910476685],"min":[-0.980214536190033,-0.9987580180168152,-0.9994347095489502],"type":"VEC3"},{"bufferView":1,"byteOffset":104424,"componentType":5126,"count":75,"max":[0.8459715247154236,0.9797593951225281],"min":[0.02024054527282715,-0.008856594562530518],"type":"VEC2"},{"bufferView":1,"byteOffset":105024,"componentType":5126,"count":75,"max":[0.8459715247154236,0.9797593951225281],"min":[0.02024054527282715,-0.008856594562530518],"type":"VEC2"},{"bufferView":1,"byteOffset":105624,"componentType":5126,"count":75,"max":[0.8459715247154236,0.9797593951225281],"min":[0.02024054527282715,-0.008856594562530518],"type":"VEC2"},{"bufferView":0,"byteOffset":112500,"componentType":5125,"count":213,"type":"SCALAR"},{"bufferView":2,"byteOffset":175128,"componentType":5126,"count":89,"max":[0.026583552360534668,0.6053351163864136,0.1290847659111023],"min":[-0.15591692924499512,0.5031865835189819,0.056083351373672485],"type":"VEC3"},{"bufferView":2,"byteOffset":176196,"componentType":5126,"count":89,"max":[0.9992514848709106,0.9981823563575745,0.9963980913162231],"min":[-0.9975241422653198,-0.9992530345916748,-0.997559666633606],"type":"VEC3"},{"bufferView":1,"byteOffset":106224,"componentType":5126,"count":89,"max":[0.875,1],"min":[0.125,0],"type":"VEC2"},{"bufferView":0,"byteOffset":113352,"componentType":5125,"count":468,"type":"SCALAR"},{"bufferView":2,"byteOffset":177264,"componentType":5126,"count":672,"max":[0.5892636179924011,-0.1293097287416458,0.06062944233417511],"min":[-0.5892636179924011,-0.18465641140937805,-0.14960984885692596],"type":"VEC3"},{"bufferView":2,"byteOffset":185328,"componentType":5126,"count":672,"max":[1,0.7016425728797913,1],"min":[-1,-1,-1],"type":"VEC3"},{"bufferView":1,"byteOffset":106936,"componentType":5126,"count":672,"max":[0.9900000095367432,0.49000000953674316],"min":[0.5099999904632568,0.01000000536441803],"type":"VEC2"},{"bufferView":0,"byteOffset":115224,"componentType":5125,"count":3312,"type":"SCALAR"},{"bufferView":2,"byteOffset":193392,"componentType":5126,"count":484,"max":[0.640022873878479,1.372991681098938,0.1767910271883011],"min":[-0.640022873878479,-0.16278067231178284,-0.14929242432117462],"type":"VEC3"},{"bufferView":2,"byteOffset":199200,"componentType":5126,"count":484,"max":[0.9994052648544312,0.7016425728797913,0.9980600476264954],"min":[-0.9994052648544312,-0.7015781998634338,-0.996375560760498],"type":"VEC3"},{"bufferView":1,"byteOffset":112312,"componentType":5126,"count":484,"max":[0.8842836618423462,0.7729116678237915],"min":[-0.9732193946838379,-0.3679451644420624],"type":"VEC2"},{"bufferView":1,"byteOffset":116184,"componentType":5126,"count":484,"max":[0.8842836618423462,0.7729116678237915],"min":[-0.9732193946838379,-0.3679451644420624],"type":"VEC2"},{"bufferView":0,"byteOffset":128472,"componentType":5125,"count":1680,"type":"SCALAR"},{"bufferView":2,"byteOffset":205008,"componentType":5126,"count":194,"max":[0.5809387564659119,-0.17822477221488953,0.05230473354458809],"min":[-0.5809387564659119,-0.1998210847377777,-0.14128513634204865],"type":"VEC3"},{"bufferView":2,"byteOffset":207336,"componentType":5126,"count":194,"max":[0.7701839208602905,-0.6378217339515686,0.7701839208602905],"min":[-0.7701839208602905,-1,-0.7701839208602905],"type":"VEC3"},{"bufferView":3,"byteOffset":2304,"componentType":5126,"count":194,"max":[1,0.7701839804649353,0.3122406303882599,1],"min":[-1,-0.7701689600944519,-0.3510080575942993,-1],"type":"VEC4"},{"bufferView":1,"byteOffset":120056,"componentType":5126,"count":194,"max":[0.9757578372955322,0.9886096715927124],"min":[0.014643430709838867,0.027495265007019043],"type":"VEC2"},{"bufferView":0,"byteOffset":135192,"componentType":5125,"count":1008,"type":"SCALAR"},{"bufferView":2,"byteOffset":209664,"componentType":5126,"count":246,"max":[0.21754099428653717,-0.1175079345703125,0.39460813999176025],"min":[-0.21754099428653717,-0.4377720057964325,-0.42671123147010803],"type":"VEC3"},{"bufferView":2,"byteOffset":212616,"componentType":5126,"count":246,"max":[0.9988101720809937,0.9943799376487732,0.9998122453689575],"min":[-0.9988101720809937,-0.9756410717964172,-0.9887552857398987],"type":"VEC3"},{"bufferView":1,"byteOffset":121608,"componentType":5126,"count":246,"max":[0.75,0.8750000596046448],"min":[0.25,0.375],"type":"VEC2"},{"bufferView":0,"byteOffset":139224,"componentType":5125,"count":1344,"type":"SCALAR"},{"bufferView":2,"byteOffset":215568,"componentType":5126,"count":98,"max":[0.20738784968852997,-0.12898364663124084,0.3811546862125397],"min":[-0.20738784968852997,-0.42092829942703247,-0.40040960907936096],"type":"VEC3"},{"bufferView":2,"byteOffset":216744,"componentType":5126,"count":98,"max":[0.9784921407699585,0.13599292933940887,0.9907097816467285],"min":[-0.9784921407699585,-0.9181094169616699,-0.9703486561775208],"type":"VEC3"},{"bufferView":1,"byteOffset":123576,"componentType":5126,"count":98,"max":[0.75,0.875],"min":[0.375,0.7499998807907104],"type":"VEC2"},{"bufferView":0,"byteOffset":144600,"componentType":5125,"count":210,"type":"SCALAR"},{"bufferView":2,"byteOffset":217920,"componentType":5126,"count":105,"max":[0.6913013458251953,1.0416300296783447,0.22492101788520813],"min":[-0.6913590431213379,0.19189518690109253,-0.4216909110546112],"type":"VEC3"},{"bufferView":2,"byteOffset":219180,"componentType":5126,"count":105,"max":[0.9916962385177612,0,0.43261390924453735],"min":[-0.9916948080062866,-0.8437627553939819,-0.999994158744812],"type":"VEC3"},{"bufferView":1,"byteOffset":124360,"componentType":5126,"count":105,"max":[0.5833333134651184,0.75],"min":[0.25,0.4999999403953552],"type":"VEC2"},{"bufferView":0,"byteOffset":145440,"componentType":5125,"count":504,"type":"SCALAR"},{"bufferView":2,"byteOffset":220440,"componentType":5126,"count":2722,"max":[0.1927722692489624,-0.09710720926523209,0.3592521846294403],"min":[-0.1927722692489624,-0.3441197872161865,-0.38862189650535583],"type":"VEC3"},{"bufferView":2,"byteOffset":253104,"componentType":5126,"count":2722,"max":[0.9867590665817261,0.8974807858467102,0.9702227115631104],"min":[-0.9867590665817261,-0.9733676314353943,-0.9707372784614563],"type":"VEC3"},{"bufferView":1,"byteOffset":125200,"componentType":5126,"count":2722,"max":[1.0168033838272095,1.4942810535430908],"min":[-0.9732193946838379,-0.49428126215934753],"type":"VEC2"},{"bufferView":1,"byteOffset":146976,"componentType":5126,"count":2722,"max":[1.0168033838272095,1.4942810535430908],"min":[-0.9732193946838379,-0.49428126215934753],"type":"VEC2"},{"bufferView":0,"byteOffset":147456,"componentType":5125,"count":7452,"type":"SCALAR"},{"bufferView":2,"byteOffset":285768,"componentType":5126,"count":634,"max":[0.788171648979187,-0.08571066707372665,0.04753488674759865],"min":[-0.788171648979187,-0.24665682017803192,-0.045641008764505386],"type":"VEC3"},{"bufferView":2,"byteOffset":293376,"componentType":5126,"count":634,"max":[0.9988622069358826,1,1],"min":[-0.9988622069358826,-0.9999951124191284,-1],"type":"VEC3"},{"bufferView":1,"byteOffset":168752,"componentType":5126,"count":634,"max":[0.75,0.875],"min":[0.25,0.375],"type":"VEC2"},{"bufferView":0,"byteOffset":177264,"componentType":5125,"count":3000,"type":"SCALAR"},{"bufferView":2,"byteOffset":300984,"componentType":5126,"count":324,"max":[0.08392714709043503,-0.13663306832313538,0.08392664045095444],"min":[-0.08392658829689026,-0.24077241122722626,-0.08392664045095444],"type":"VEC3"},{"bufferView":2,"byteOffset":304872,"componentType":5126,"count":324,"max":[1,1,1],"min":[-1,-0.983424961566925,-1],"type":"VEC3"},{"bufferView":1,"byteOffset":173824,"componentType":5126,"count":324,"max":[1,1],"min":[-1.862645149230957e-7,0.5],"type":"VEC2"},{"bufferView":0,"byteOffset":189264,"componentType":5125,"count":1656,"type":"SCALAR"},{"bufferView":2,"byteOffset":308760,"componentType":5126,"count":174,"max":[0.07087766379117966,-0.22603638470172882,0.07026587426662445],"min":[-0.06965406239032745,-0.25310781598091125,-0.07026585936546326],"type":"VEC3"},{"bufferView":2,"byteOffset":310848,"componentType":5126,"count":174,"max":[0.8606408834457397,-0.509211540222168,0.8606275320053101],"min":[-0.8606196045875549,-1,-0.8606275320053101],"type":"VEC3"},{"bufferView":1,"byteOffset":176416,"componentType":5126,"count":174,"max":[1,1],"min":[-1.862645149230957e-7,1],"type":"VEC2"},{"bufferView":0,"byteOffset":195888,"componentType":5125,"count":792,"type":"SCALAR"},{"bufferView":2,"byteOffset":312936,"componentType":5126,"count":28,"max":[0.6313459873199463,-0.14915575087070465,0.03179210424423218],"min":[-0.6313459873199463,-0.21276508271694183,-0.03179210424423218],"type":"VEC3"},{"bufferView":2,"byteOffset":313272,"componentType":5126,"count":28,"max":[0,0.7071067690849304,0.7071067690849304],"min":[0,-0.7071067690849304,-0.7071067690849304],"type":"VEC3"},{"bufferView":1,"byteOffset":177808,"componentType":5126,"count":28,"max":[0.875,1],"min":[0.125,0.25],"type":"VEC2"},{"bufferView":0,"byteOffset":199056,"componentType":5125,"count":72,"type":"SCALAR"},{"bufferView":2,"byteOffset":313608,"componentType":5126,"count":28,"max":[0.6313459873199463,0.03180466592311859,0.03179210424423218],"min":[-0.6313459873199463,-0.03180466592311859,-0.03179210424423218],"type":"VEC3"},{"bufferView":2,"byteOffset":313944,"componentType":5126,"count":28,"max":[0,0.7071067690849304,0.7071067690849304],"min":[0,-0.7071067690849304,-0.7071067690849304],"type":"VEC3"},{"bufferView":1,"byteOffset":178032,"componentType":5126,"count":28,"max":[0.875,1],"min":[0.125,0.25],"type":"VEC2"},{"bufferView":0,"byteOffset":199344,"componentType":5125,"count":72,"type":"SCALAR"},{"bufferView":2,"byteOffset":314280,"componentType":5126,"count":261,"max":[0.010308651253581047,0.7771612405776978,0.26732152700424194],"min":[-0.010300088673830032,-1.0475186109542847,-0.7705568671226501],"type":"VEC3"},{"bufferView":2,"byteOffset":317412,"componentType":5126,"count":261,"max":[1,0.9967907071113586,0.999914288520813],"min":[-1,-0.9978730082511902,-0.999914288520813],"type":"VEC3"},{"bufferView":1,"byteOffset":178256,"componentType":5126,"count":261,"max":[0.875,0.75],"min":[0.125,0],"type":"VEC2"},{"bufferView":0,"byteOffset":199632,"componentType":5125,"count":1200,"type":"SCALAR"},{"bufferView":2,"byteOffset":320544,"componentType":5126,"count":351,"max":[0.053766049444675446,0.05376659706234932,0.05743183568120003],"min":[-0.053766608238220215,-0.041509129106998444,-2.4524593467134537e-9],"type":"VEC3"},{"bufferView":2,"byteOffset":324756,"componentType":5126,"count":351,"max":[0.9812002182006836,1,1],"min":[-0.9812008142471313,0,-0.932583749294281],"type":"VEC3"},{"bufferView":1,"byteOffset":180344,"componentType":5126,"count":351,"max":[0.8558024168014526,1.3148082494735718],"min":[-0.003856360912322998,-0.22004303336143494],"type":"VEC2"},{"bufferView":1,"byteOffset":183152,"componentType":5126,"count":351,"max":[0.8558024168014526,1.3148082494735718],"min":[-0.003856360912322998,-0.22004303336143494],"type":"VEC2"},{"bufferView":0,"byteOffset":204432,"componentType":5125,"count":1560,"type":"SCALAR"},{"bufferView":2,"byteOffset":328968,"componentType":5126,"count":191,"max":[0.04591536521911621,0.05330434441566467,0.054391730576753616],"min":[-0.04591747373342514,0.04621923342347145,0.004081809427589178],"type":"VEC3"},{"bufferView":2,"byteOffset":331260,"componentType":5126,"count":191,"max":[0.9789061546325684,1,0.9999284744262695],"min":[-0.9789067506790161,0.00891159474849701,-0.9999603033065796],"type":"VEC3"},{"bufferView":1,"byteOffset":185960,"componentType":5126,"count":191,"max":[0.7500000596046448,1.0000001192092896],"min":[0,0],"type":"VEC2"},{"bufferView":0,"byteOffset":210672,"componentType":5125,"count":858,"type":"SCALAR"},{"bufferView":2,"byteOffset":333552,"componentType":5126,"count":363,"max":[0.036426298320293427,0.05950957164168358,0.04378271475434303],"min":[0.004971278831362724,0.04405023530125618,0.012327696196734905],"type":"VEC3"},{"bufferView":2,"byteOffset":337908,"componentType":5126,"count":363,"max":[0.9999709129333496,1,0.9999709129333496],"min":[-0.9999711513519287,0.0075991214253008366,-0.9999709129333496],"type":"VEC3"},{"bufferView":1,"byteOffset":187488,"componentType":5126,"count":363,"max":[1.0000001192092896,1.0000001192092896],"min":[0,0.5],"type":"VEC2"},{"bufferView":0,"byteOffset":214104,"componentType":5125,"count":1440,"type":"SCALAR"},{"bufferView":2,"byteOffset":342264,"componentType":5126,"count":363,"max":[-0.005464296787977219,0.05950874462723732,0.04378271475434303],"min":[-0.03691932186484337,0.044049400836229324,0.012327696196734905],"type":"VEC3"},{"bufferView":2,"byteOffset":346620,"componentType":5126,"count":363,"max":[0.9999709129333496,1,0.9999709129333496],"min":[-0.9999711513519287,0.0075991214253008366,-0.9999709129333496],"type":"VEC3"},{"bufferView":1,"byteOffset":190392,"componentType":5126,"count":363,"max":[1.0000001192092896,1.0000001192092896],"min":[0,0.5],"type":"VEC2"},{"bufferView":0,"byteOffset":219864,"componentType":5125,"count":1440,"type":"SCALAR"},{"bufferView":2,"byteOffset":350976,"componentType":5126,"count":94,"max":[0.05376641824841499,0.05376666411757469,0.0589270144701004],"min":[-0.05376666411757469,-0.0415092334151268,-3.052866404118504e-9],"type":"VEC3"},{"bufferView":2,"byteOffset":352104,"componentType":5126,"count":94,"max":[0.9839280247688293,1,1],"min":[-0.9839280247688293,0,-0.651858925819397],"type":"VEC3"},{"bufferView":1,"byteOffset":193296,"componentType":5126,"count":94,"max":[0.8091658353805542,0.7841795682907104],"min":[-0.05182740092277527,-0.05042728781700134],"type":"VEC2"},{"bufferView":1,"byteOffset":194048,"componentType":5126,"count":94,"max":[0.8091658353805542,0.7841795682907104],"min":[-0.05182740092277527,-0.05042728781700134],"type":"VEC2"},{"bufferView":0,"byteOffset":225624,"componentType":5125,"count":390,"type":"SCALAR"},{"bufferView":2,"byteOffset":353232,"componentType":5126,"count":54,"max":[0.0468217134475708,0.05376650020480156,0.05556812509894371],"min":[-0.04682370275259018,0.04621903598308563,0.004250590689480305],"type":"VEC3"},{"bufferView":2,"byteOffset":353880,"componentType":5126,"count":54,"max":[0.9346569180488586,1,1],"min":[-0.9346569180488586,0,-1],"type":"VEC3"},{"bufferView":1,"byteOffset":194800,"componentType":5126,"count":54,"max":[0.75,1],"min":[0,0],"type":"VEC2"},{"bufferView":0,"byteOffset":227184,"componentType":5125,"count":225,"type":"SCALAR"},{"bufferView":2,"byteOffset":354528,"componentType":5126,"count":84,"max":[0.036835744976997375,0.05968189239501953,0.04419216513633728],"min":[0.00456166360527277,0.044050220400094986,0.011918244883418083],"type":"VEC3"},{"bufferView":2,"byteOffset":355536,"componentType":5126,"count":84,"max":[1,1,1],"min":[-1,0,-1],"type":"VEC3"},{"bufferView":1,"byteOffset":195232,"componentType":5126,"count":84,"max":[1,1],"min":[0,0.5],"type":"VEC2"},{"bufferView":0,"byteOffset":228084,"componentType":5125,"count":336,"type":"SCALAR"},{"bufferView":2,"byteOffset":356544,"componentType":5126,"count":84,"max":[-0.005054845008999109,0.059681061655282974,0.04419216513633728],"min":[-0.03732892870903015,0.04404938593506813,0.011918244883418083],"type":"VEC3"},{"bufferView":2,"byteOffset":357552,"componentType":5126,"count":84,"max":[1,1,1],"min":[-1,0,-1],"type":"VEC3"},{"bufferView":1,"byteOffset":195904,"componentType":5126,"count":84,"max":[1,1],"min":[0,0.5],"type":"VEC2"},{"bufferView":0,"byteOffset":229428,"componentType":5125,"count":336,"type":"SCALAR"},{"bufferView":2,"byteOffset":358560,"componentType":5126,"count":128,"max":[0.024641359224915504,-0.1999458372592926,0.006395248696208],"min":[-0.0246413704007864,-0.24922853708267212,-0.012939020991325378],"type":"VEC3"},{"bufferView":2,"byteOffset":360096,"componentType":5126,"count":128,"max":[1,1,1],"min":[-1,-1,-0.6657266020774841],"type":"VEC3"},{"bufferView":1,"byteOffset":196576,"componentType":5126,"count":128,"max":[0.5478230714797974,0.6958849430084229],"min":[0.0425189733505249,0.03097119927406311],"type":"VEC2"},{"bufferView":1,"byteOffset":197600,"componentType":5126,"count":128,"max":[0.5478230714797974,0.6958849430084229],"min":[0.0425189733505249,0.03097119927406311],"type":"VEC2"},{"bufferView":0,"byteOffset":230772,"componentType":5125,"count":468,"type":"SCALAR"},{"bufferView":2,"byteOffset":361632,"componentType":5126,"count":252,"max":[0.012552257627248764,0.8718923330307007,0.008698754012584686],"min":[-0.012564757838845253,-0.0004966221749782562,-0.8311352729797363],"type":"VEC3"},{"bufferView":2,"byteOffset":364656,"componentType":5126,"count":252,"max":[1,0.9448499083518982,0.9502272009849548],"min":[-1,-0.9999998807907104,-0.9645918011665344],"type":"VEC3"},{"bufferView":1,"byteOffset":198624,"componentType":5126,"count":252,"max":[0.8605167865753174,1.3496109247207642],"min":[-0.9732193946838379,-0.4291665256023407],"type":"VEC2"},{"bufferView":1,"byteOffset":200640,"componentType":5126,"count":252,"max":[0.8605167865753174,1.3496109247207642],"min":[-0.9732193946838379,-0.4291665256023407],"type":"VEC2"},{"bufferView":0,"byteOffset":232644,"componentType":5125,"count":984,"type":"SCALAR"},{"bufferView":2,"byteOffset":367680,"componentType":5126,"count":999,"max":[0.05978142097592354,0.20911633968353271,0.20925971865653992],"min":[-0.07105699926614761,-0.20936325192451477,-0.20921985805034637],"type":"VEC3"},{"bufferView":2,"byteOffset":379668,"componentType":5126,"count":999,"max":[1,1,1],"min":[-0.91316819190979,-1,-1],"type":"VEC3"},{"bufferView":1,"byteOffset":202656,"componentType":5126,"count":999,"max":[1,1.0000001192092896],"min":[-1.862645149230957e-7,0],"type":"VEC2"},{"bufferView":0,"byteOffset":236580,"componentType":5125,"count":4530,"type":"SCALAR"},{"bufferView":2,"byteOffset":391656,"componentType":5126,"count":324,"max":[0.08992622792720795,0.18215890228748322,0.18230043351650238],"min":[-0.023547828197479248,-0.18240338563919067,-0.18226055800914764],"type":"VEC3"},{"bufferView":2,"byteOffset":395544,"componentType":5126,"count":324,"max":[1,1,1],"min":[-0.91316819190979,-1,-1],"type":"VEC3"},{"bufferView":1,"byteOffset":210648,"componentType":5126,"count":324,"max":[1,1],"min":[-1.862645149230957e-7,0.6121810674667358],"type":"VEC2"},{"bufferView":0,"byteOffset":254700,"componentType":5125,"count":1512,"type":"SCALAR"},{"bufferView":2,"byteOffset":399432,"componentType":5126,"count":808,"max":[0.07298627495765686,0.31977126002311707,0.31990936398506165],"min":[-0.07056859135627747,-0.32001206278800964,-0.31987395882606506],"type":"VEC3"},{"bufferView":2,"byteOffset":409128,"componentType":5126,"count":808,"max":[0.9990494847297668,1,1],"min":[-0.9991685152053833,-1,-1],"type":"VEC3"},{"bufferView":3,"byteOffset":5408,"componentType":5126,"count":808,"max":[1,0.8843531608581543,0.9952275156974792,1],"min":[-1,-0.9057012796401978,-0.8526197075843811,1],"type":"VEC4"},{"bufferView":1,"byteOffset":213240,"componentType":5126,"count":808,"max":[0.9999356865882874,0.9972593188285828],"min":[0.0062655117362737656,0.004239625297486782],"type":"VEC2"},{"bufferView":1,"byteOffset":219704,"componentType":5126,"count":808,"max":[0.9999356865882874,0.9972593188285828],"min":[0.0062655117362737656,0.004239625297486782],"type":"VEC2"},{"bufferView":0,"byteOffset":260748,"componentType":5125,"count":3072,"type":"SCALAR"},{"bufferView":2,"byteOffset":418824,"componentType":5126,"count":999,"max":[0.0710570365190506,0.20936326682567596,0.20925971865653992],"min":[-0.05978148803114891,-0.20911632478237152,-0.20921985805034637],"type":"VEC3"},{"bufferView":2,"byteOffset":430812,"componentType":5126,"count":999,"max":[0.91316819190979,1,1],"min":[-1,-1,-1],"type":"VEC3"},{"bufferView":1,"byteOffset":226168,"componentType":5126,"count":999,"max":[1,1.0000001192092896],"min":[-1.862645149230957e-7,0],"type":"VEC2"},{"bufferView":0,"byteOffset":273036,"componentType":5125,"count":4530,"type":"SCALAR"},{"bufferView":2,"byteOffset":442800,"componentType":5126,"count":324,"max":[0.023547887802124023,0.18240340054035187,0.18230043351650238],"min":[-0.08992622792720795,-0.1821589171886444,-0.18226055800914764],"type":"VEC3"},{"bufferView":2,"byteOffset":446688,"componentType":5126,"count":324,"max":[0.91316819190979,1,1],"min":[-1,-1,-1],"type":"VEC3"},{"bufferView":1,"byteOffset":234160,"componentType":5126,"count":324,"max":[1,1],"min":[-1.862645149230957e-7,0.6121810674667358],"type":"VEC2"},{"bufferView":0,"byteOffset":291156,"componentType":5125,"count":1512,"type":"SCALAR"},{"bufferView":2,"byteOffset":450576,"componentType":5126,"count":808,"max":[0.07056866586208344,0.32001209259033203,0.31990936398506165],"min":[-0.07298634946346283,-0.31977128982543945,-0.31987395882606506],"type":"VEC3"},{"bufferView":2,"byteOffset":460272,"componentType":5126,"count":808,"max":[0.9991685152053833,1,1],"min":[-0.9990494847297668,-1,-1],"type":"VEC3"},{"bufferView":3,"byteOffset":18336,"componentType":5126,"count":808,"max":[1,0.9057013988494873,0.9952275156974792,1],"min":[-1,-0.8843531608581543,-0.8526197075843811,1],"type":"VEC4"},{"bufferView":1,"byteOffset":236752,"componentType":5126,"count":808,"max":[0.9999356865882874,0.9972593188285828],"min":[0.0062655117362737656,0.004239625297486782],"type":"VEC2"},{"bufferView":1,"byteOffset":243216,"componentType":5126,"count":808,"max":[0.9999356865882874,0.9972593188285828],"min":[0.0062655117362737656,0.004239625297486782],"type":"VEC2"},{"bufferView":0,"byteOffset":297204,"componentType":5125,"count":3072,"type":"SCALAR"},{"bufferView":2,"byteOffset":469968,"componentType":5126,"count":4604,"max":[0.023949772119522095,0.02990860305726528,0.13149802386760712],"min":[-0.0052754017524421215,-0.05659978464245796,-0.0004914611345157027],"type":"VEC3"},{"bufferView":2,"byteOffset":525216,"componentType":5126,"count":4604,"max":[1,1,1],"min":[-1,-1,-1],"type":"VEC3"},{"bufferView":1,"byteOffset":249680,"componentType":5126,"count":4604,"max":[0.875,1],"min":[0,0],"type":"VEC2"},{"bufferView":1,"byteOffset":286512,"componentType":5126,"count":4604,"max":[0.9971650242805481,0.9987799525260925],"min":[0,0],"type":"VEC2"},{"bufferView":0,"byteOffset":309492,"componentType":5125,"count":23232,"type":"SCALAR"},{"bufferView":2,"byteOffset":580464,"componentType":5126,"count":324,"max":[0.08392714709043503,-0.13663306832313538,0.08392664045095444],"min":[-0.08392658829689026,-0.24077241122722626,-0.08392664045095444],"type":"VEC3"},{"bufferView":2,"byteOffset":584352,"componentType":5126,"count":324,"max":[1,1,1],"min":[-1,-0.983424961566925,-1],"type":"VEC3"},{"bufferView":1,"byteOffset":323344,"componentType":5126,"count":324,"max":[1,1],"min":[-1.862645149230957e-7,0.5],"type":"VEC2"},{"bufferView":0,"byteOffset":402420,"componentType":5125,"count":1656,"type":"SCALAR"},{"bufferView":2,"byteOffset":588240,"componentType":5126,"count":174,"max":[0.07087766379117966,-0.22603638470172882,0.07026587426662445],"min":[-0.06965406239032745,-0.25310781598091125,-0.07026585936546326],"type":"VEC3"},{"bufferView":2,"byteOffset":590328,"componentType":5126,"count":174,"max":[0.8606408834457397,-0.509211540222168,0.8606275320053101],"min":[-0.8606196045875549,-1,-0.8606275320053101],"type":"VEC3"},{"bufferView":1,"byteOffset":325936,"componentType":5126,"count":174,"max":[1,1],"min":[-1.862645149230957e-7,1],"type":"VEC2"},{"bufferView":0,"byteOffset":409044,"componentType":5125,"count":792,"type":"SCALAR"},{"bufferView":2,"byteOffset":592416,"componentType":5126,"count":251,"max":[-0.0007777214050292969,0.6281195878982544,0.27727997303009033],"min":[-0.11834001541137695,-0.007783770561218262,-0.3949046730995178],"type":"VEC3"},{"bufferView":2,"byteOffset":595428,"componentType":5126,"count":251,"max":[1,0.9998315572738647,0.996640682220459],"min":[-1,-0.9998027086257935,-0.9762780070304871],"type":"VEC3"},{"bufferView":1,"byteOffset":327328,"componentType":5126,"count":251,"max":[2.928175210952759,0.8857495784759521],"min":[1.159308910369873,-0.2132391631603241],"type":"VEC2"},{"bufferView":1,"byteOffset":329336,"componentType":5126,"count":251,"max":[2.928175210952759,0.8857495784759521],"min":[1.159308910369873,-0.2132391631603241],"type":"VEC2"},{"bufferView":0,"byteOffset":412212,"componentType":5125,"count":1014,"type":"SCALAR"},{"bufferView":2,"byteOffset":598440,"componentType":5126,"count":251,"max":[0.11580318212509155,0.6264567375183105,0.32032251358032227],"min":[-0.0017591118812561035,-0.00944662094116211,-0.3518621325492859],"type":"VEC3"},{"bufferView":2,"byteOffset":601452,"componentType":5126,"count":251,"max":[1,0.999832034111023,0.996640682220459],"min":[-1,-0.9998027086257935,-0.9762780070304871],"type":"VEC3"},{"bufferView":1,"byteOffset":331344,"componentType":5126,"count":251,"max":[2.5432140827178955,1.1677029132843018],"min":[1.1571686267852783,-0.2160232961177826],"type":"VEC2"},{"bufferView":1,"byteOffset":333352,"componentType":5126,"count":251,"max":[2.5432140827178955,1.1677029132843018],"min":[1.1571686267852783,-0.2160232961177826],"type":"VEC2"},{"bufferView":0,"byteOffset":416268,"componentType":5125,"count":1014,"type":"SCALAR"},{"bufferView":2,"byteOffset":604464,"componentType":5126,"count":160,"max":[0.7043983340263367,1.5744017362594604,0.25315818190574646],"min":[-0.7043983340263367,0.7616695761680603,-0.36434003710746765],"type":"VEC3"},{"bufferView":2,"byteOffset":606384,"componentType":5126,"count":160,"max":[1,0.9999765157699585,1],"min":[-1,-1,-0.022267038002610207],"type":"VEC3"},{"bufferView":1,"byteOffset":335360,"componentType":5126,"count":160,"max":[0.5416666865348816,0.5],"min":[0,0],"type":"VEC2"},{"bufferView":0,"byteOffset":420324,"componentType":5125,"count":708,"type":"SCALAR"},{"bufferView":2,"byteOffset":608304,"componentType":5126,"count":999,"max":[0.07235968112945557,0.1987549066543579,0.1964210569858551],"min":[-0.06616934388875961,-0.19871827960014343,-0.19638365507125854],"type":"VEC3"},{"bufferView":2,"byteOffset":620292,"componentType":5126,"count":999,"max":[0.9329841136932373,0.9986675381660461,1],"min":[-0.9986675381660461,-0.9986675381660461,-1],"type":"VEC3"},{"bufferView":1,"byteOffset":336640,"componentType":5126,"count":999,"max":[1,1.0000001192092896],"min":[-1.862645149230957e-7,0],"type":"VEC2"},{"bufferView":0,"byteOffset":423156,"componentType":5125,"count":4530,"type":"SCALAR"},{"bufferView":2,"byteOffset":632280,"componentType":5126,"count":324,"max":[0.030896969139575958,0.17212457954883575,0.17111580073833466],"min":[-0.0843023881316185,-0.1727636307477951,-0.1710783690214157],"type":"VEC3"},{"bufferView":2,"byteOffset":636168,"componentType":5126,"count":324,"max":[0.9329841136932373,0.9986675381660461,1],"min":[-0.9986675381660461,-0.9986675381660461,-1],"type":"VEC3"},{"bufferView":1,"byteOffset":344632,"componentType":5126,"count":324,"max":[1,1],"min":[-1.862645149230957e-7,0.6121810674667358],"type":"VEC2"},{"bufferView":0,"byteOffset":441276,"componentType":5125,"count":1512,"type":"SCALAR"},{"bufferView":2,"byteOffset":640056,"componentType":5126,"count":808,"max":[0.08064696192741394,0.30262982845306396,0.3002820611000061],"min":[-0.08292495459318161,-0.3025211691856384,-0.3002488315105438],"type":"VEC3"},{"bufferView":2,"byteOffset":649752,"componentType":5126,"count":808,"max":[0.9999417066574097,0.9990258812904358,1],"min":[-0.9999680519104004,-0.9986690878868103,-1],"type":"VEC3"},{"bufferView":3,"byteOffset":31264,"componentType":5126,"count":808,"max":[0.999025821685791,0.918207585811615,0.9952274560928345,1],"min":[-0.9990177154541016,-0.8927091956138611,-0.8526270985603333,1],"type":"VEC4"},{"bufferView":1,"byteOffset":347224,"componentType":5126,"count":808,"max":[0.9999356865882874,0.9972593188285828],"min":[0.0062655117362737656,0.004239625297486782],"type":"VEC2"},{"bufferView":1,"byteOffset":353688,"componentType":5126,"count":808,"max":[0.9999356865882874,0.9972593188285828],"min":[0.0062655117362737656,0.004239625297486782],"type":"VEC2"},{"bufferView":0,"byteOffset":447324,"componentType":5125,"count":3072,"type":"SCALAR"},{"bufferView":2,"byteOffset":659448,"componentType":5126,"count":160,"max":[0.5006667375564575,0.3664398491382599,0.6043649911880493],"min":[-0.5006667375564575,0.050984349101781845,0.34948840737342834],"type":"VEC3"},{"bufferView":2,"byteOffset":661368,"componentType":5126,"count":160,"max":[0.9964219927787781,0.9391797780990601,0.9809214472770691],"min":[-0.9964219927787781,-0.9617260694503784,-0.9780897498130798],"type":"VEC3"},{"bufferView":1,"byteOffset":360152,"componentType":5126,"count":160,"max":[0.7500000596046448,0.6800444722175598],"min":[0.6746108531951904,0.6660804152488708],"type":"VEC2"},{"bufferView":1,"byteOffset":361432,"componentType":5126,"count":160,"max":[0.7500000596046448,0.6800444722175598],"min":[0.6746108531951904,0.6660804152488708],"type":"VEC2"},{"bufferView":0,"byteOffset":459612,"componentType":5125,"count":960,"type":"SCALAR"},{"bufferView":2,"byteOffset":663288,"componentType":5126,"count":634,"max":[0.6440824866294861,0.2559167146682739,0.04753488302230835],"min":[-0.6440824866294861,0.14359377324581146,-0.04564100503921509],"type":"VEC3"},{"bufferView":2,"byteOffset":670896,"componentType":5126,"count":634,"max":[0.998823344707489,1,1],"min":[-0.998823344707489,-0.9999977350234985,-1],"type":"VEC3"},{"bufferView":1,"byteOffset":362712,"componentType":5126,"count":634,"max":[0.75,0.875],"min":[0.25,0.375],"type":"VEC2"},{"bufferView":0,"byteOffset":463452,"componentType":5125,"count":3000,"type":"SCALAR"},{"bufferView":2,"byteOffset":678504,"componentType":5126,"count":226,"max":[0.5894829034805298,0.1488487422466278,0.048865534365177155],"min":[-0.5894829034805298,-0.08243203163146973,-0.20138788223266602],"type":"VEC3"},{"bufferView":2,"byteOffset":681216,"componentType":5126,"count":226,"max":[0.8387620449066162,1,0.8678397536277771],"min":[-0.8387620449066162,-1,-0.8649013638496399],"type":"VEC3"},{"bufferView":1,"byteOffset":367784,"componentType":5126,"count":226,"max":[0.75,0.875],"min":[0.25,0.375],"type":"VEC2"},{"bufferView":0,"byteOffset":475452,"componentType":5125,"count":1164,"type":"SCALAR"},{"bufferView":2,"byteOffset":683928,"componentType":5126,"count":144,"max":[0.2897356450557709,0.09146138280630112,0.0055169640108942986],"min":[-0.2897356450557709,0.02248525433242321,-0.1356295347213745],"type":"VEC3"},{"bufferView":2,"byteOffset":685656,"componentType":5126,"count":144,"max":[0.9961727261543274,0.37673068046569824,1],"min":[-0.9961727261543274,-0.9894078969955444,-1],"type":"VEC3"},{"bufferView":1,"byteOffset":369592,"componentType":5126,"count":144,"max":[0,0],"min":[0,0],"type":"VEC2"},{"bufferView":0,"byteOffset":480108,"componentType":5125,"count":720,"type":"SCALAR"},{"bufferView":2,"byteOffset":687384,"componentType":5126,"count":66,"max":[0.2528793215751648,0.08479825407266617,-0.0009361217962577939],"min":[-0.2528793215751648,0.024070728570222855,-0.12735314667224884],"type":"VEC3"},{"bufferView":2,"byteOffset":688176,"componentType":5126,"count":66,"max":[0.852654218673706,-0.4482688009738922,0.5710124373435974],"min":[-0.852654218673706,-0.9449091553688049,-0.8705045580863953],"type":"VEC3"},{"bufferView":1,"byteOffset":370744,"componentType":5126,"count":66,"max":[0,0],"min":[0,0],"type":"VEC2"},{"bufferView":0,"byteOffset":482988,"componentType":5125,"count":318,"type":"SCALAR"},{"bufferView":2,"byteOffset":688968,"componentType":5126,"count":231,"max":[0.5738741159439087,2.4337050914764404,0.37139272689819336],"min":[-0.5738741159439087,-0.4085204005241394,-0.2878592908382416],"type":"VEC3"},{"bufferView":2,"byteOffset":691740,"componentType":5126,"count":231,"max":[0.9346679449081421,0.9011412858963013,1],"min":[-0.9346679449081421,-1,-1],"type":"VEC3"},{"bufferView":3,"byteOffset":44192,"componentType":5126,"count":231,"max":[1,1,0.9999793767929077,1],"min":[-1,-1,-0.9999948143959045,-1],"type":"VEC4"},{"bufferView":1,"byteOffset":371272,"componentType":5126,"count":231,"max":[2.163576126098633,2.3020548820495605],"min":[-1.223095178604126,-1.3020552396774292],"type":"VEC2"},{"bufferView":1,"byteOffset":373120,"componentType":5126,"count":231,"max":[2.163576126098633,2.3020548820495605],"min":[-1.223095178604126,-1.3020552396774292],"type":"VEC2"},{"bufferView":1,"byteOffset":374968,"componentType":5126,"count":231,"max":[2.163576126098633,2.3020548820495605],"min":[-1.223095178604126,-1.3020552396774292],"type":"VEC2"},{"bufferView":0,"byteOffset":484260,"componentType":5125,"count":816,"type":"SCALAR"},{"bufferView":2,"byteOffset":694512,"componentType":5126,"count":1642,"max":[0.5701901912689209,0.2697207033634186,0.6050897240638733],"min":[-0.5701901912689209,-0.32719871401786804,-0.14761582016944885],"type":"VEC3"},{"bufferView":2,"byteOffset":714216,"componentType":5126,"count":1642,"max":[1,1,1],"min":[-1,-1,-1],"type":"VEC3"},{"bufferView":3,"byteOffset":47888,"componentType":5126,"count":1642,"max":[1,1,1,1],"min":[-1,-1,-1,-1],"type":"VEC4"},{"bufferView":1,"byteOffset":376816,"componentType":5126,"count":1642,"max":[1.9537888765335083,1.9680109024047852],"min":[-0.9608997106552124,-0.9680109024047852],"type":"VEC2"},{"bufferView":1,"byteOffset":389952,"componentType":5126,"count":1642,"max":[1.9537888765335083,1.9680109024047852],"min":[-0.9608997106552124,-0.9680109024047852],"type":"VEC2"},{"bufferView":1,"byteOffset":403088,"componentType":5126,"count":1642,"max":[1.9537888765335083,1.9680109024047852],"min":[-0.9608997106552124,-0.9680109024047852],"type":"VEC2"},{"bufferView":0,"byteOffset":487524,"componentType":5125,"count":5616,"type":"SCALAR"},{"bufferView":2,"byteOffset":733920,"componentType":5126,"count":1818,"max":[0.5231601595878601,0.26696231961250305,0.5327188372612],"min":[-0.5231601595878601,-0.3334861099720001,-0.14761582016944885],"type":"VEC3"},{"bufferView":2,"byteOffset":755736,"componentType":5126,"count":1818,"max":[1,1,1],"min":[-1,-1,-1],"type":"VEC3"},{"bufferView":3,"byteOffset":74160,"componentType":5126,"count":1818,"max":[1,1,1,1],"min":[-1,-1,-1,-1],"type":"VEC4"},{"bufferView":1,"byteOffset":416224,"componentType":5126,"count":1818,"max":[1.9537888765335083,1.9680109024047852],"min":[-0.9608997106552124,-0.9680109024047852],"type":"VEC2"},{"bufferView":1,"byteOffset":430768,"componentType":5126,"count":1818,"max":[1.9537888765335083,1.9680109024047852],"min":[-0.9608997106552124,-0.9680109024047852],"type":"VEC2"},{"bufferView":1,"byteOffset":445312,"componentType":5126,"count":1818,"max":[1.9537888765335083,1.9680109024047852],"min":[-0.9608997106552124,-0.9680109024047852],"type":"VEC2"},{"bufferView":0,"byteOffset":509988,"componentType":5125,"count":6342,"type":"SCALAR"},{"bufferView":2,"byteOffset":777552,"componentType":5126,"count":832,"max":[0.1503453552722931,0.039409518241882324,0.6381189227104187],"min":[-0.10151827335357666,-0.9412872791290283,-0.3837087154388428],"type":"VEC3"},{"bufferView":2,"byteOffset":787536,"componentType":5126,"count":832,"max":[0.999075174331665,0.9989745020866394,0.9864686131477356],"min":[-0.9976423978805542,-0.9978251457214355,-0.9982042908668518],"type":"VEC3"},{"bufferView":1,"byteOffset":459856,"componentType":5126,"count":832,"max":[0.9792544841766357,1.4501986503601074],"min":[-0.6833271980285645,-0.47994527220726013],"type":"VEC2"},{"bufferView":1,"byteOffset":466512,"componentType":5126,"count":832,"max":[0.9792544841766357,1.4501986503601074],"min":[-0.6833271980285645,-0.47994527220726013],"type":"VEC2"},{"bufferView":0,"byteOffset":535356,"componentType":5125,"count":3162,"type":"SCALAR"},{"bufferView":2,"byteOffset":797520,"componentType":5126,"count":110,"max":[0.06413137912750244,0.012783050537109375,0.2870672643184662],"min":[-0.0016171932220458984,-0.8773483633995056,0.21401086449623108],"type":"VEC3"},{"bufferView":2,"byteOffset":798840,"componentType":5126,"count":110,"max":[0.9980719089508057,0.7352690100669861,0.39605170488357544],"min":[-0.459471195936203,-0.9978251457214355,-0.9972212314605713],"type":"VEC3"},{"bufferView":1,"byteOffset":473168,"componentType":5126,"count":110,"max":[0.6712318062782288,0.6806077361106873],"min":[0.6707085371017456,0.636393666267395],"type":"VEC2"},{"bufferView":0,"byteOffset":548004,"componentType":5125,"count":405,"type":"SCALAR"},{"bufferView":2,"byteOffset":800160,"componentType":5126,"count":124,"max":[0.15105637907981873,0.02538454532623291,0.5960917472839355],"min":[0.05406707525253296,-0.7560645341873169,0.3015361726284027],"type":"VEC3"},{"bufferView":2,"byteOffset":801648,"componentType":5126,"count":124,"max":[0.9751289486885071,0.692753791809082,0.8952144384384155],"min":[-0.9998126029968262,-0.727268636226654,-0.7635806798934937],"type":"VEC3"},{"bufferView":1,"byteOffset":474048,"componentType":5126,"count":124,"max":[0.6717334985733032,0.67781662940979],"min":[0,0],"type":"VEC2"},{"bufferView":0,"byteOffset":549624,"componentType":5125,"count":378,"type":"SCALAR"},{"bufferView":2,"byteOffset":803136,"componentType":5126,"count":78,"max":[0.07083410024642944,-0.004901766777038574,0.21401086449623108],"min":[-0.06818485260009766,-0.9308861494064331,-0.36624979972839355],"type":"VEC3"},{"bufferView":2,"byteOffset":804072,"componentType":5126,"count":78,"max":[-0.07916546612977982,0.9950616955757141,0.957496702671051],"min":[-0.9999661445617676,-0.7950026988983154,-0.2543185353279114],"type":"VEC3"},{"bufferView":3,"byteOffset":103248,"componentType":5126,"count":78,"max":[0.7343568205833435,0.9972903728485107,0.9340037703514099,1],"min":[-0.6800268292427063,-0.9996566772460938,-0.9999865889549255,1],"type":"VEC4"},{"bufferView":1,"byteOffset":475040,"componentType":5126,"count":78,"max":[1.7122153043746948,1.9033950567245483],"min":[-0.8253744840621948,-0.868256688117981],"type":"VEC2"},{"bufferView":1,"byteOffset":475664,"componentType":5126,"count":78,"max":[1.7122153043746948,1.9033950567245483],"min":[-0.8253744840621948,-0.868256688117981],"type":"VEC2"},{"bufferView":1,"byteOffset":476288,"componentType":5126,"count":78,"max":[1.7122153043746948,1.9033950567245483],"min":[-0.8253744840621948,-0.868256688117981],"type":"VEC2"},{"bufferView":0,"byteOffset":551136,"componentType":5125,"count":288,"type":"SCALAR"},{"bufferView":2,"byteOffset":805008,"componentType":5126,"count":105,"max":[0.10341554880142212,-0.0013730525970458984,0.29681092500686646],"min":[0.04021817445755005,-0.8857077360153198,0.19545820355415344],"type":"VEC3"},{"bufferView":2,"byteOffset":806268,"componentType":5126,"count":105,"max":[0.0261247381567955,0.9323552250862122,0.9999871253967285],"min":[-0.9997928142547607,-0.9992390871047974,-0.9999690055847168],"type":"VEC3"},{"bufferView":1,"byteOffset":476912,"componentType":5126,"count":105,"max":[0.9795112013816833,0.495728075504303],"min":[0.020488739013671875,-0.0089702308177948],"type":"VEC2"},{"bufferView":1,"byteOffset":477752,"componentType":5126,"count":105,"max":[0.9795112013816833,0.495728075504303],"min":[0.020488739013671875,-0.0089702308177948],"type":"VEC2"},{"bufferView":1,"byteOffset":478592,"componentType":5126,"count":105,"max":[0.9795112013816833,0.495728075504303],"min":[0.020488739013671875,-0.0089702308177948],"type":"VEC2"},{"bufferView":0,"byteOffset":552288,"componentType":5125,"count":345,"type":"SCALAR"},{"bufferView":2,"byteOffset":807528,"componentType":5126,"count":89,"max":[0.08031487464904785,-0.742662787437439,0.15095144510269165],"min":[-0.09866631031036377,-0.8360323905944824,0.08402767032384872],"type":"VEC3"},{"bufferView":2,"byteOffset":808596,"componentType":5126,"count":89,"max":[0.9999277591705322,0.9970594048500061,0.9999784231185913],"min":[-0.9999914169311523,-0.9970594048500061,-0.9999793767929077],"type":"VEC3"},{"bufferView":1,"byteOffset":479432,"componentType":5126,"count":89,"max":[0.875,1],"min":[0.125,0],"type":"VEC2"},{"bufferView":0,"byteOffset":553668,"componentType":5125,"count":456,"type":"SCALAR"},{"bufferView":2,"byteOffset":809664,"componentType":5126,"count":691,"max":[0.17652156949043274,0.728354811668396,0.6244012117385864],"min":[-0.06308722496032715,-0.01840388774871826,-0.38520798087120056],"type":"VEC3"},{"bufferView":2,"byteOffset":817956,"componentType":5126,"count":691,"max":[0.9989219307899475,0.9852993488311768,0.9995372295379639],"min":[-0.9985401034355164,-0.9946280717849731,-0.9997721910476685],"type":"VEC3"},{"bufferView":1,"byteOffset":480144,"componentType":5126,"count":691,"max":[0.9508174657821655,1.4942810535430908],"min":[-0.9732195138931274,-0.46335288882255554],"type":"VEC2"},{"bufferView":1,"byteOffset":485672,"componentType":5126,"count":691,"max":[0.9508174657821655,1.4942810535430908],"min":[-0.9732195138931274,-0.46335288882255554],"type":"VEC2"},{"bufferView":0,"byteOffset":555492,"componentType":5125,"count":2526,"type":"SCALAR"},{"bufferView":2,"byteOffset":826248,"componentType":5126,"count":106,"max":[0.1560555398464203,0.7279394865036011,0.2818915843963623],"min":[0.016859829425811768,0.0035926103591918945,0.18009760975837708],"type":"VEC3"},{"bufferView":2,"byteOffset":827520,"componentType":5126,"count":106,"max":[0.9975709915161133,0.9852993488311768,0.9063198566436768],"min":[-0.8264549374580383,-0.9934817552566528,-0.9969795942306519],"type":"VEC3"},{"bufferView":1,"byteOffset":491200,"componentType":5126,"count":106,"max":[0.6712318062782288,0.638672411441803],"min":[0.6707085371017456,0.5924527645111084],"type":"VEC2"},{"bufferView":0,"byteOffset":565596,"componentType":5125,"count":426,"type":"SCALAR"},{"bufferView":2,"byteOffset":828792,"componentType":5126,"count":58,"max":[0.17652156949043274,0.6925399303436279,0.5576179027557373],"min":[0.0754615068435669,0.04187119007110596,0.27759552001953125],"type":"VEC3"},{"bufferView":2,"byteOffset":829488,"componentType":5126,"count":58,"max":[0.9778222441673279,0.6327847838401794,0.5738478302955627],"min":[0.3574059009552002,-0.7931270003318787,-0.9313122630119324],"type":"VEC3"},{"bufferView":1,"byteOffset":492048,"componentType":5126,"count":58,"max":[0.6716926693916321,0.6409510374069214],"min":[0,0],"type":"VEC2"},{"bufferView":0,"byteOffset":567300,"componentType":5125,"count":204,"type":"SCALAR"},{"bufferView":2,"byteOffset":830184,"componentType":5126,"count":66,"max":[0.16930678486824036,0.7247265577316284,0.2284223884344101],"min":[-0.027909517288208008,0.0037883520126342773,-0.37441033124923706],"type":"VEC3"},{"bufferView":2,"byteOffset":830976,"componentType":5126,"count":66,"max":[-0.046664051711559296,0.915064811706543,0.9160252809524536],"min":[-0.989886999130249,-0.9783489108085632,-0.12299350649118423],"type":"VEC3"},{"bufferView":3,"byteOffset":104496,"componentType":5126,"count":66,"max":[0.9918596148490906,0.07069096714258194,0.7590302228927612,1],"min":[-0.7913377285003662,-0.9908359050750732,-0.9990818500518799,1],"type":"VEC4"},{"bufferView":1,"byteOffset":492512,"componentType":5126,"count":66,"max":[1.939278483390808,1.8730459213256836],"min":[-0.9392784833908081,-0.8068137168884277],"type":"VEC2"},{"bufferView":1,"byteOffset":493040,"componentType":5126,"count":66,"max":[1.939278483390808,1.8730459213256836],"min":[-0.9392784833908081,-0.8068137168884277],"type":"VEC2"},{"bufferView":1,"byteOffset":493568,"componentType":5126,"count":66,"max":[1.939278483390808,1.8730459213256836],"min":[-0.9392784833908081,-0.8068137168884277],"type":"VEC2"},{"bufferView":0,"byteOffset":568116,"componentType":5125,"count":207,"type":"SCALAR"},{"bufferView":2,"byteOffset":831768,"componentType":5126,"count":75,"max":[0.17673194408416748,0.6981059312820435,0.29410743713378906],"min":[0.044605135917663574,0.0036208629608154297,0.1693045198917389],"type":"VEC3"},{"bufferView":2,"byteOffset":832668,"componentType":5126,"count":75,"max":[0.238414004445076,0.9987580180168152,0.9994347095489502],"min":[-0.980214536190033,-0.9886758327484131,-0.9997721910476685],"type":"VEC3"},{"bufferView":1,"byteOffset":494096,"componentType":5126,"count":75,"max":[0.8459715247154236,0.9797593951225281],"min":[0.02024054527282715,-0.008856594562530518],"type":"VEC2"},{"bufferView":1,"byteOffset":494696,"componentType":5126,"count":75,"max":[0.8459715247154236,0.9797593951225281],"min":[0.02024054527282715,-0.008856594562530518],"type":"VEC2"},{"bufferView":1,"byteOffset":495296,"componentType":5126,"count":75,"max":[0.8459715247154236,0.9797593951225281],"min":[0.02024054527282715,-0.008856594562530518],"type":"VEC2"},{"bufferView":0,"byteOffset":568944,"componentType":5125,"count":213,"type":"SCALAR"},{"bufferView":2,"byteOffset":833568,"componentType":5126,"count":89,"max":[0.15591692924499512,0.6053351163864136,0.1290847659111023],"min":[-0.026583552360534668,0.5031865835189819,0.056083351373672485],"type":"VEC3"},{"bufferView":2,"byteOffset":834636,"componentType":5126,"count":89,"max":[0.9992514848709106,0.9992530345916748,0.997559666633606],"min":[-0.9975241422653198,-0.9981823563575745,-0.9963980913162231],"type":"VEC3"},{"bufferView":1,"byteOffset":495896,"componentType":5126,"count":89,"max":[0.875,1],"min":[0.125,0],"type":"VEC2"},{"bufferView":0,"byteOffset":569796,"componentType":5125,"count":468,"type":"SCALAR"},{"bufferView":2,"byteOffset":835704,"componentType":5126,"count":793,"max":[0.18355898559093475,0.09194670617580414,0.16193632781505585],"min":[-0.18355898559093475,-0.09194670617580414,-0.16193632781505585],"type":"VEC3"},{"bufferView":2,"byteOffset":845220,"componentType":5126,"count":793,"max":[1,0.9999065399169922,0.9998204708099365],"min":[-1,-0.9710199236869812,-0.9736520648002625],"type":"VEC3"},{"bufferView":1,"byteOffset":496608,"componentType":5126,"count":793,"max":[1,1],"min":[-8.940696716308594e-8,0],"type":"VEC2"},{"bufferView":0,"byteOffset":571668,"componentType":5125,"count":3876,"type":"SCALAR"},{"bufferView":2,"byteOffset":854736,"componentType":5126,"count":28,"max":[0.01794806681573391,0.39911630749702454,0.23001126945018768],"min":[-0.01794806681573391,-0.39235392212867737,-0.2263311892747879],"type":"VEC3"},{"bufferView":2,"byteOffset":855072,"componentType":5126,"count":28,"max":[0.8660340309143066,0.477988064289093,0.8783664107322693],"min":[-0.8660340309143066,-0.477988064289093,-0.8783664107322693],"type":"VEC3"},{"bufferView":1,"byteOffset":502952,"componentType":5126,"count":28,"max":[1,1],"min":[-8.940696716308594e-8,0.5],"type":"VEC2"},{"bufferView":0,"byteOffset":587172,"componentType":5125,"count":108,"type":"SCALAR"},{"bufferView":2,"byteOffset":855408,"componentType":5126,"count":29,"max":[0.6894304752349854,2.8757731914520264,-0.4605853259563446],"min":[-0.6894304752349854,-0.4878021478652954,-0.5063786506652832],"type":"VEC3"},{"bufferView":2,"byteOffset":855756,"componentType":5126,"count":29,"max":[0.012451824732124805,0.5133975148200989,-0.8580836653709412],"min":[-0.012451824732124805,-0.05838210880756378,-1],"type":"VEC3"},{"bufferView":1,"byteOffset":503176,"componentType":5126,"count":29,"max":[0.09330856800079346,1.4763635396957397],"min":[-0.9618380069732666,1.221083402633667],"type":"VEC2"},{"bufferView":0,"byteOffset":587604,"componentType":5125,"count":84,"type":"SCALAR"},{"bufferView":2,"byteOffset":856104,"componentType":5126,"count":999,"max":[0.05978142097592354,0.20911633968353271,0.20925971865653992],"min":[-0.07105699926614761,-0.20936325192451477,-0.20921985805034637],"type":"VEC3"},{"bufferView":2,"byteOffset":868092,"componentType":5126,"count":999,"max":[1,1,1],"min":[-0.91316819190979,-1,-1],"type":"VEC3"},{"bufferView":1,"byteOffset":503408,"componentType":5126,"count":999,"max":[1,1.0000001192092896],"min":[-1.862645149230957e-7,0],"type":"VEC2"},{"bufferView":0,"byteOffset":587940,"componentType":5125,"count":4530,"type":"SCALAR"},{"bufferView":2,"byteOffset":880080,"componentType":5126,"count":324,"max":[0.08992622792720795,0.18215890228748322,0.18230043351650238],"min":[-0.023547828197479248,-0.18240338563919067,-0.18226055800914764],"type":"VEC3"},{"bufferView":2,"byteOffset":883968,"componentType":5126,"count":324,"max":[1,1,1],"min":[-0.91316819190979,-1,-1],"type":"VEC3"},{"bufferView":1,"byteOffset":511400,"componentType":5126,"count":324,"max":[1,1],"min":[-1.862645149230957e-7,0.6121810674667358],"type":"VEC2"},{"bufferView":0,"byteOffset":606060,"componentType":5125,"count":1512,"type":"SCALAR"},{"bufferView":2,"byteOffset":887856,"componentType":5126,"count":808,"max":[0.07298627495765686,0.31977126002311707,0.31990936398506165],"min":[-0.07056859135627747,-0.32001206278800964,-0.31987395882606506],"type":"VEC3"},{"bufferView":2,"byteOffset":897552,"componentType":5126,"count":808,"max":[0.9990494847297668,1,1],"min":[-0.9991685152053833,-1,-1],"type":"VEC3"},{"bufferView":3,"byteOffset":105552,"componentType":5126,"count":808,"max":[1,0.8843531608581543,0.9952275156974792,1],"min":[-1,-0.9057012796401978,-0.8526197075843811,1],"type":"VEC4"},{"bufferView":1,"byteOffset":513992,"componentType":5126,"count":808,"max":[0.9999356865882874,0.9972593188285828],"min":[0.0062655117362737656,0.004239625297486782],"type":"VEC2"},{"bufferView":1,"byteOffset":520456,"componentType":5126,"count":808,"max":[0.9999356865882874,0.9972593188285828],"min":[0.0062655117362737656,0.004239625297486782],"type":"VEC2"},{"bufferView":0,"byteOffset":612108,"componentType":5125,"count":3072,"type":"SCALAR"},{"bufferView":2,"byteOffset":907248,"componentType":5126,"count":999,"max":[0.0710570365190506,0.20936326682567596,0.20925971865653992],"min":[-0.05978148803114891,-0.20911632478237152,-0.20921985805034637],"type":"VEC3"},{"bufferView":2,"byteOffset":919236,"componentType":5126,"count":999,"max":[0.91316819190979,1,1],"min":[-1,-1,-1],"type":"VEC3"},{"bufferView":1,"byteOffset":526920,"componentType":5126,"count":999,"max":[1,1.0000001192092896],"min":[-1.862645149230957e-7,0],"type":"VEC2"},{"bufferView":0,"byteOffset":624396,"componentType":5125,"count":4530,"type":"SCALAR"},{"bufferView":2,"byteOffset":931224,"componentType":5126,"count":324,"max":[0.023547887802124023,0.18240340054035187,0.18230043351650238],"min":[-0.08992622792720795,-0.1821589171886444,-0.18226055800914764],"type":"VEC3"},{"bufferView":2,"byteOffset":935112,"componentType":5126,"count":324,"max":[0.91316819190979,1,1],"min":[-1,-1,-1],"type":"VEC3"},{"bufferView":1,"byteOffset":534912,"componentType":5126,"count":324,"max":[1,1],"min":[-1.862645149230957e-7,0.6121810674667358],"type":"VEC2"},{"bufferView":0,"byteOffset":642516,"componentType":5125,"count":1512,"type":"SCALAR"},{"bufferView":2,"byteOffset":939000,"componentType":5126,"count":808,"max":[0.07056866586208344,0.32001209259033203,0.31990936398506165],"min":[-0.07298634946346283,-0.31977128982543945,-0.31987395882606506],"type":"VEC3"},{"bufferView":2,"byteOffset":948696,"componentType":5126,"count":808,"max":[0.9991685152053833,1,1],"min":[-0.9990494847297668,-1,-1],"type":"VEC3"},{"bufferView":3,"byteOffset":118480,"componentType":5126,"count":808,"max":[1,0.9057013988494873,0.9952275156974792,1],"min":[-1,-0.8843531608581543,-0.8526197075843811,1],"type":"VEC4"},{"bufferView":1,"byteOffset":537504,"componentType":5126,"count":808,"max":[0.9999356865882874,0.9972593188285828],"min":[0.0062655117362737656,0.004239625297486782],"type":"VEC2"},{"bufferView":1,"byteOffset":543968,"componentType":5126,"count":808,"max":[0.9999356865882874,0.9972593188285828],"min":[0.0062655117362737656,0.004239625297486782],"type":"VEC2"},{"bufferView":0,"byteOffset":648564,"componentType":5125,"count":3072,"type":"SCALAR"},{"bufferView":2,"byteOffset":958392,"componentType":5126,"count":900,"max":[0.05759115144610405,0.2012471854686737,0.20138318836688995],"min":[-0.02367522194981575,-0.20148077607154846,-0.2013447880744934],"type":"VEC3"},{"bufferView":2,"byteOffset":969192,"componentType":5126,"count":900,"max":[1,1,1],"min":[-0.9844760298728943,-1,-1],"type":"VEC3"},{"bufferView":1,"byteOffset":550432,"componentType":5126,"count":900,"max":[1,1.0000001192092896],"min":[-1.862645149230957e-7,0],"type":"VEC2"},{"bufferView":0,"byteOffset":660852,"componentType":5125,"count":3888,"type":"SCALAR"},{"bufferView":2,"byteOffset":979992,"componentType":5126,"count":324,"max":[0.08663151413202286,0.17548497021198273,0.17562131583690643],"min":[-0.022685084491968155,-0.17572049796581268,-0.1755829006433487],"type":"VEC3"},{"bufferView":2,"byteOffset":983880,"componentType":5126,"count":324,"max":[1,1,1],"min":[-0.91316819190979,-1,-1],"type":"VEC3"},{"bufferView":1,"byteOffset":557632,"componentType":5126,"count":324,"max":[1,1],"min":[-1.862645149230957e-7,0.6121810674667358],"type":"VEC2"},{"bufferView":0,"byteOffset":676404,"componentType":5125,"count":1512,"type":"SCALAR"},{"bufferView":2,"byteOffset":987768,"componentType":5126,"count":440,"max":[0.07031220942735672,0.30805549025535583,0.3081885278224945],"min":[0.0011645295890048146,-0.30828747153282166,-0.308154433965683],"type":"VEC3"},{"bufferView":2,"byteOffset":993048,"componentType":5126,"count":440,"max":[0.9990494847297668,1,1],"min":[-0.014923986978828907,-1,-1],"type":"VEC3"},{"bufferView":3,"byteOffset":131408,"componentType":5126,"count":440,"max":[1,0.8843533992767334,0.9952275156974792,1],"min":[-1,-0.8526611328125,-0.6175492405891418,1],"type":"VEC4"},{"bufferView":1,"byteOffset":560224,"componentType":5126,"count":440,"max":[0.9999356865882874,0.9972593188285828],"min":[0.0062655117362737656,0.004239625297486782],"type":"VEC2"},{"bufferView":1,"byteOffset":563744,"componentType":5126,"count":440,"max":[0.9999356865882874,0.9972593188285828],"min":[0.0062655117362737656,0.004239625297486782],"type":"VEC2"},{"bufferView":0,"byteOffset":682452,"componentType":5125,"count":1536,"type":"SCALAR"},{"bufferView":2,"byteOffset":998328,"componentType":5126,"count":209,"max":[2.5363669395446777,2.5363669395446777,0.07961885631084442],"min":[-2.5363669395446777,-2.5363669395446777,-0.07961885631084442],"type":"VEC3"},{"bufferView":2,"byteOffset":1000836,"componentType":5126,"count":209,"max":[1,1,0],"min":[-1,-1,-1],"type":"VEC3"},{"bufferView":3,"byteOffset":138448,"componentType":5126,"count":209,"max":[1,1,0.7204938530921936,1],"min":[-1,-1,-0.7204933762550354,1],"type":"VEC4"},{"bufferView":1,"byteOffset":567264,"componentType":5126,"count":209,"max":[4.219079971313477,3.616436719894409],"min":[-3.2190797328948975,-2.7592742443084717],"type":"VEC2"},{"bufferView":1,"byteOffset":568936,"componentType":5126,"count":209,"max":[4.219079971313477,3.616436719894409],"min":[-3.2190797328948975,-2.7592742443084717],"type":"VEC2"},{"bufferView":0,"byteOffset":688596,"componentType":5125,"count":864,"type":"SCALAR"}],"asset":{"extras":{"author":"Libau Media (https://sketchfab.com/robinmikart)","license":"CC-BY-4.0 (http://creativecommons.org/licenses/by/4.0/)","source":"https://sketchfab.com/3d-models/1933-pierce-arrow-silver-arrow-look-alike-v2-152dbf047cc24ec0979639fe91a9ad9f","title":"1933 Pierce Arrow Silver Arrow look-alike V2"},"generator":"Sketchfab-12.68.0","version":"2.0"},"bufferViews":[{"buffer":0,"byteLength":692052,"name":"floatBufferViews","target":34963},{"buffer":0,"byteLength":570608,"byteOffset":692052,"byteStride":8,"name":"floatBufferViews","target":34962},{"buffer":0,"byteLength":1003344,"byteOffset":1262660,"byteStride":12,"name":"floatBufferViews","target":34962},{"buffer":0,"byteLength":141792,"byteOffset":2266004,"byteStride":16,"name":"floatBufferViews","target":34962}],"buffers":[{"byteLength":2407796,"uri":"scene.bin"}],"images":[{"uri":"textures/silver_baseColor.webp","mimeType":"image/webp"},{"uri":"textures/silver_metallicRoughness.webp","mimeType":"image/webp"},{"uri":"textures/fabric_baseColor.webp","mimeType":"image/webp"},{"uri":"textures/fabric_metallicRoughness.webp","mimeType":"image/webp"},{"uri":"textures/fabric_normal.webp","mimeType":"image/webp"},{"uri":"textures/wood_baseColor.webp","mimeType":"image/webp"},{"uri":"textures/wood_metallicRoughness.webp","mimeType":"image/webp"},{"uri":"textures/headlight_normal.webp","mimeType":"image/webp"},{"uri":"textures/tyre_texture_bake_baseColor.webp","mimeType":"image/webp"},{"uri":"textures/tyre_texture_bake_normal.webp","mimeType":"image/webp"},{"uri":"textures/ground_baseColor.webp","mimeType":"image/webp"},{"uri":"textures/ground_metallicRoughness.webp","mimeType":"image/webp"},{"uri":"textures/ground_normal.webp","mimeType":"image/webp"}],"materials":[{"doubleSided":true,"name":"silver","pbrMetallicRoughness":{"baseColorTexture":{"index":0},"metallicRoughnessTexture":{"index":1}}},{"doubleSided":true,"name":"paint","pbrMetallicRoughness":{"baseColorFactor":[0,0,0,1],"metallicFactor":0,"roughnessFactor":0.0807522998}},{"alphaMode":"BLEND","doubleSided":true,"name":"glass","pbrMetallicRoughness":{"baseColorFactor":[0,0,0,0.5489256334020393],"metallicFactor":0,"roughnessFactor":0}},{"doubleSided":true,"name":"fabric","normalTexture":{"index":4},"pbrMetallicRoughness":{"baseColorTexture":{"index":2},"metallicFactor":0,"metallicRoughnessTexture":{"index":3}}},{"doubleSided":true,"name":"wood","pbrMetallicRoughness":{"baseColorTexture":{"index":5},"metallicFactor":0,"metallicRoughnessTexture":{"index":6}}},{"doubleSided":true,"name":"chrome","pbrMetallicRoughness":{"baseColorFactor":[0.8,0.8,0.8,1],"roughnessFactor":0}},{"alphaMode":"BLEND","doubleSided":true,"name":"headlight","normalTexture":{"index":7},"pbrMetallicRoughness":{"baseColorFactor":[0.1864841791,0.1864841791,0.11642859,0.8468541184052922],"metallicFactor":0,"roughnessFactor":0.19627558992880118}},{"doubleSided":true,"name":"black","pbrMetallicRoughness":{"baseColorFactor":[0,0,0,1],"metallicFactor":0}},{"alphaMode":"BLEND","doubleSided":true,"name":"fog_light","pbrMetallicRoughness":{"baseColorFactor":[0.47699,0.47699,0.47699,0.6887696162],"metallicFactor":0,"roughnessFactor":0}},{"doubleSided":true,"name":"material","pbrMetallicRoughness":{"baseColorFactor":[0.246195,0.00313212,0,1],"metallicFactor":0,"roughnessFactor":0.9827399251}},{"doubleSided":true,"name":"orange","pbrMetallicRoughness":{"baseColorFactor":[0.8,0.8,0.8,1],"metallicFactor":0,"roughnessFactor":0.8040408206}},{"doubleSided":true,"name":"spokes","pbrMetallicRoughness":{"baseColorFactor":[0.295693,0.017124,0.017124,1],"metallicFactor":0,"roughnessFactor":0.9758567154}},{"doubleSided":true,"name":"tyre_texture_bake","normalTexture":{"index":9},"pbrMetallicRoughness":{"baseColorTexture":{"index":8},"metallicFactor":0,"roughnessFactor":0.9971082212}},{"doubleSided":true,"name":"blinn1","pbrMetallicRoughness":{"roughnessFactor":0.2317068979}},{"doubleSided":true,"name":"interior_paint","pbrMetallicRoughness":{"baseColorFactor":[0.227181,0.384375,0.384375,1],"metallicFactor":0,"roughnessFactor":0.8890181087}},{"doubleSided":true,"name":"ground","normalTexture":{"index":12},"pbrMetallicRoughness":{"baseColorTexture":{"index":10},"metallicFactor":0,"metallicRoughnessTexture":{"index":11}}}],"meshes":[{"name":"Cube.001_silver _0","primitives":[{"attributes":{"NORMAL":1,"POSITION":0,"TEXCOORD_0":2,"TEXCOORD_1":3},"indices":4,"material":0,"mode":4}]},{"name":"Cube.001_paint_0","primitives":[{"attributes":{"NORMAL":6,"POSITION":5,"TEXCOORD_0":7},"indices":8,"material":1,"mode":4}]},{"name":"Cube.001_glass_0","primitives":[{"attributes":{"NORMAL":10,"POSITION":9,"TEXCOORD_0":11},"indices":12,"material":2,"mode":4}]},{"name":"Cube.002_silver _0","primitives":[{"attributes":{"NORMAL":14,"POSITION":13,"TEXCOORD_0":15,"TEXCOORD_1":16},"indices":17,"material":0,"mode":4}]},{"name":"Cube.004_silver _0","primitives":[{"attributes":{"NORMAL":19,"POSITION":18,"TEXCOORD_0":20,"TEXCOORD_1":21},"indices":22,"material":0,"mode":4}]},{"name":"Cube.004_paint_0","primitives":[{"attributes":{"NORMAL":24,"POSITION":23,"TEXCOORD_0":25},"indices":26,"material":1,"mode":4}]},{"name":"Cube.004_glass_0","primitives":[{"attributes":{"NORMAL":28,"POSITION":27,"TEXCOORD_0":29},"indices":30,"material":2,"mode":4}]},{"name":"Cube.004_fabric_0","primitives":[{"attributes":{"NORMAL":32,"POSITION":31,"TANGENT":33,"TEXCOORD_0":34,"TEXCOORD_1":35,"TEXCOORD_2":36},"indices":37,"material":3,"mode":4}]},{"name":"Cube.004_wood_0","primitives":[{"attributes":{"NORMAL":39,"POSITION":38,"TEXCOORD_0":40,"TEXCOORD_1":41,"TEXCOORD_2":42},"indices":43,"material":4,"mode":4}]},{"name":"Cube.004_chrome_0","primitives":[{"attributes":{"NORMAL":45,"POSITION":44,"TEXCOORD_0":46},"indices":47,"material":5,"mode":4}]},{"name":"Cube.005_silver _0","primitives":[{"attributes":{"NORMAL":49,"POSITION":48,"TEXCOORD_0":50,"TEXCOORD_1":51},"indices":52,"material":0,"mode":4}]},{"name":"Cube.005_paint_0","primitives":[{"attributes":{"NORMAL":54,"POSITION":53,"TEXCOORD_0":55},"indices":56,"material":1,"mode":4}]},{"name":"Cube.005_glass_0","primitives":[{"attributes":{"NORMAL":58,"POSITION":57,"TEXCOORD_0":59},"indices":60,"material":2,"mode":4}]},{"name":"Cube.005_fabric_0","primitives":[{"attributes":{"NORMAL":62,"POSITION":61,"TANGENT":63,"TEXCOORD_0":64,"TEXCOORD_1":65,"TEXCOORD_2":66},"indices":67,"material":3,"mode":4}]},{"name":"Cube.005_wood_0","primitives":[{"attributes":{"NORMAL":69,"POSITION":68,"TEXCOORD_0":70,"TEXCOORD_1":71,"TEXCOORD_2":72},"indices":73,"material":4,"mode":4}]},{"name":"Cube.005_chrome_0","primitives":[{"attributes":{"NORMAL":75,"POSITION":74,"TEXCOORD_0":76},"indices":77,"material":5,"mode":4}]},{"name":"Cylinder_chrome_0","primitives":[{"attributes":{"NORMAL":79,"POSITION":78,"TEXCOORD_0":80},"indices":81,"material":5,"mode":4}]},{"name":"Cylinder_silver _0","primitives":[{"attributes":{"NORMAL":83,"POSITION":82,"TEXCOORD_0":84,"TEXCOORD_1":85},"indices":86,"material":0,"mode":4}]},{"name":"Cylinder_headlight_0","primitives":[{"attributes":{"NORMAL":88,"POSITION":87,"TANGENT":89,"TEXCOORD_0":90},"indices":91,"material":6,"mode":4}]},{"name":"Cube.006_chrome_0","primitives":[{"attributes":{"NORMAL":93,"POSITION":92,"TEXCOORD_0":94},"indices":95,"material":5,"mode":4}]},{"name":"Cube.006_black_0","primitives":[{"attributes":{"NORMAL":97,"POSITION":96,"TEXCOORD_0":98},"indices":99,"material":7,"mode":4}]},{"name":"Cube.007_black_0","primitives":[{"attributes":{"NORMAL":101,"POSITION":100,"TEXCOORD_0":102},"indices":103,"material":7,"mode":4}]},{"name":"Cube.010_silver _0","primitives":[{"attributes":{"NORMAL":105,"POSITION":104,"TEXCOORD_0":106,"TEXCOORD_1":107},"indices":108,"material":0,"mode":4}]},{"name":"Cube.011_chrome_0","primitives":[{"attributes":{"NORMAL":110,"POSITION":109,"TEXCOORD_0":111},"indices":112,"material":5,"mode":4}]},{"name":"Cylinder.002_chrome_0","primitives":[{"attributes":{"NORMAL":114,"POSITION":113,"TEXCOORD_0":115},"indices":116,"material":5,"mode":4}]},{"name":"Cylinder.002_fog light_0","primitives":[{"attributes":{"NORMAL":118,"POSITION":117,"TEXCOORD_0":119},"indices":120,"material":8,"mode":4}]},{"name":"Cube.012_black_0","primitives":[{"attributes":{"NORMAL":122,"POSITION":121,"TEXCOORD_0":123},"indices":124,"material":7,"mode":4}]},{"name":"Cube.013_black_0","primitives":[{"attributes":{"NORMAL":126,"POSITION":125,"TEXCOORD_0":127},"indices":128,"material":7,"mode":4}]},{"name":"Cube.014_chrome_0","primitives":[{"attributes":{"NORMAL":130,"POSITION":129,"TEXCOORD_0":131},"indices":132,"material":5,"mode":4}]},{"name":"Cylinder.008_silver _0","primitives":[{"attributes":{"NORMAL":134,"POSITION":133,"TEXCOORD_0":135,"TEXCOORD_1":136},"indices":137,"material":0,"mode":4}]},{"name":"Cylinder.008_black_0","primitives":[{"attributes":{"NORMAL":139,"POSITION":138,"TEXCOORD_0":140},"indices":141,"material":7,"mode":4}]},{"name":"Cylinder.008_red_0","primitives":[{"attributes":{"NORMAL":143,"POSITION":142,"TEXCOORD_0":144},"indices":145,"material":9,"mode":4}]},{"name":"Cylinder.008_orange_0","primitives":[{"attributes":{"NORMAL":147,"POSITION":146,"TEXCOORD_0":148},"indices":149,"material":10,"mode":4}]},{"name":"Cylinder.009_silver _0","primitives":[{"attributes":{"NORMAL":151,"POSITION":150,"TEXCOORD_0":152,"TEXCOORD_1":153},"indices":154,"material":0,"mode":4}]},{"name":"Cylinder.009_black_0","primitives":[{"attributes":{"NORMAL":156,"POSITION":155,"TEXCOORD_0":157},"indices":158,"material":7,"mode":4}]},{"name":"Cylinder.009_red_0","primitives":[{"attributes":{"NORMAL":160,"POSITION":159,"TEXCOORD_0":161},"indices":162,"material":9,"mode":4}]},{"name":"Cylinder.009_orange_0","primitives":[{"attributes":{"NORMAL":164,"POSITION":163,"TEXCOORD_0":165},"indices":166,"material":10,"mode":4}]},{"name":"Cylinder.010_silver _0","primitives":[{"attributes":{"NORMAL":168,"POSITION":167,"TEXCOORD_0":169,"TEXCOORD_1":170},"indices":171,"material":0,"mode":4}]},{"name":"Cube.015_silver _0","primitives":[{"attributes":{"NORMAL":173,"POSITION":172,"TEXCOORD_0":174,"TEXCOORD_1":175},"indices":176,"material":0,"mode":4}]},{"name":"Cylinder.004_spokes_0","primitives":[{"attributes":{"NORMAL":178,"POSITION":177,"TEXCOORD_0":179},"indices":180,"material":11,"mode":4}]},{"name":"Cylinder.004_chrome_0","primitives":[{"attributes":{"NORMAL":182,"POSITION":181,"TEXCOORD_0":183},"indices":184,"material":5,"mode":4}]},{"name":"Cylinder.004_tyre texture bake_0","primitives":[{"attributes":{"NORMAL":186,"POSITION":185,"TANGENT":187,"TEXCOORD_0":188,"TEXCOORD_1":189},"indices":190,"material":12,"mode":4}]},{"name":"Cylinder.006_spokes_0","primitives":[{"attributes":{"NORMAL":192,"POSITION":191,"TEXCOORD_0":193},"indices":194,"material":11,"mode":4}]},{"name":"Cylinder.006_chrome_0","primitives":[{"attributes":{"NORMAL":196,"POSITION":195,"TEXCOORD_0":197},"indices":198,"material":5,"mode":4}]},{"name":"Cylinder.006_tyre texture bake_0","primitives":[{"attributes":{"NORMAL":200,"POSITION":199,"TANGENT":201,"TEXCOORD_0":202,"TEXCOORD_1":203},"indices":204,"material":12,"mode":4}]},{"name":"Body2_blinn1_0","primitives":[{"attributes":{"NORMAL":206,"POSITION":205,"TEXCOORD_0":207,"TEXCOORD_1":208},"indices":209,"material":13,"mode":4}]},{"name":"Cylinder.001_chrome_0","primitives":[{"attributes":{"NORMAL":211,"POSITION":210,"TEXCOORD_0":212},"indices":213,"material":5,"mode":4}]},{"name":"Cylinder.001_fog light_0","primitives":[{"attributes":{"NORMAL":215,"POSITION":214,"TEXCOORD_0":216},"indices":217,"material":8,"mode":4}]},{"name":"Cube.003_silver _0","primitives":[{"attributes":{"NORMAL":219,"POSITION":218,"TEXCOORD_0":220,"TEXCOORD_1":221},"indices":222,"material":0,"mode":4}]},{"name":"Cube.008_silver _0","primitives":[{"attributes":{"NORMAL":224,"POSITION":223,"TEXCOORD_0":225,"TEXCOORD_1":226},"indices":227,"material":0,"mode":4}]},{"name":"Cube.016_black_0","primitives":[{"attributes":{"NORMAL":229,"POSITION":228,"TEXCOORD_0":230},"indices":231,"material":7,"mode":4}]},{"name":"Cylinder.011_spokes_0","primitives":[{"attributes":{"NORMAL":233,"POSITION":232,"TEXCOORD_0":234},"indices":235,"material":11,"mode":4}]},{"name":"Cylinder.011_chrome_0","primitives":[{"attributes":{"NORMAL":237,"POSITION":236,"TEXCOORD_0":238},"indices":239,"material":5,"mode":4}]},{"name":"Cylinder.011_tyre texture bake_0","primitives":[{"attributes":{"NORMAL":241,"POSITION":240,"TANGENT":242,"TEXCOORD_0":243,"TEXCOORD_1":244},"indices":245,"material":12,"mode":4}]},{"name":"Cube.018_silver _0","primitives":[{"attributes":{"NORMAL":247,"POSITION":246,"TEXCOORD_0":248,"TEXCOORD_1":249},"indices":250,"material":0,"mode":4}]},{"name":"Cube.017_chrome_0","primitives":[{"attributes":{"NORMAL":252,"POSITION":251,"TEXCOORD_0":253},"indices":254,"material":5,"mode":4}]},{"name":"Cube_interior paint_0","primitives":[{"attributes":{"NORMAL":256,"POSITION":255,"TEXCOORD_0":257},"indices":258,"material":14,"mode":4}]},{"name":"Cube.019_chrome_0","primitives":[{"attributes":{"NORMAL":260,"POSITION":259,"TEXCOORD_0":261},"indices":262,"material":5,"mode":4}]},{"name":"Cube.019_paint_0","primitives":[{"attributes":{"NORMAL":264,"POSITION":263,"TEXCOORD_0":265},"indices":266,"material":1,"mode":4}]},{"name":"Plane_fabric_0","primitives":[{"attributes":{"NORMAL":268,"POSITION":267,"TANGENT":269,"TEXCOORD_0":270,"TEXCOORD_1":271,"TEXCOORD_2":272},"indices":273,"material":3,"mode":4}]},{"name":"Cube.020_fabric_0","primitives":[{"attributes":{"NORMAL":275,"POSITION":274,"TANGENT":276,"TEXCOORD_0":277,"TEXCOORD_1":278,"TEXCOORD_2":279},"indices":280,"material":3,"mode":4}]},{"name":"Cube.021_fabric_0","primitives":[{"attributes":{"NORMAL":282,"POSITION":281,"TANGENT":283,"TEXCOORD_0":284,"TEXCOORD_1":285,"TEXCOORD_2":286},"indices":287,"material":3,"mode":4}]},{"name":"Cube.022_silver _0","primitives":[{"attributes":{"NORMAL":289,"POSITION":288,"TEXCOORD_0":290,"TEXCOORD_1":291},"indices":292,"material":0,"mode":4}]},{"name":"Cube.022_paint_0","primitives":[{"attributes":{"NORMAL":294,"POSITION":293,"TEXCOORD_0":295},"indices":296,"material":1,"mode":4}]},{"name":"Cube.022_glass_0","primitives":[{"attributes":{"NORMAL":298,"POSITION":297,"TEXCOORD_0":299},"indices":300,"material":2,"mode":4}]},{"name":"Cube.022_fabric_0","primitives":[{"attributes":{"NORMAL":302,"POSITION":301,"TANGENT":303,"TEXCOORD_0":304,"TEXCOORD_1":305,"TEXCOORD_2":306},"indices":307,"material":3,"mode":4}]},{"name":"Cube.022_wood_0","primitives":[{"attributes":{"NORMAL":309,"POSITION":308,"TEXCOORD_0":310,"TEXCOORD_1":311,"TEXCOORD_2":312},"indices":313,"material":4,"mode":4}]},{"name":"Cube.022_chrome_0","primitives":[{"attributes":{"NORMAL":315,"POSITION":314,"TEXCOORD_0":316},"indices":317,"material":5,"mode":4}]},{"name":"Cube.023_silver _0","primitives":[{"attributes":{"NORMAL":319,"POSITION":318,"TEXCOORD_0":320,"TEXCOORD_1":321},"indices":322,"material":0,"mode":4}]},{"name":"Cube.023_paint_0","primitives":[{"attributes":{"NORMAL":324,"POSITION":323,"TEXCOORD_0":325},"indices":326,"material":1,"mode":4}]},{"name":"Cube.023_glass_0","primitives":[{"attributes":{"NORMAL":328,"POSITION":327,"TEXCOORD_0":329},"indices":330,"material":2,"mode":4}]},{"name":"Cube.023_fabric_0","primitives":[{"attributes":{"NORMAL":332,"POSITION":331,"TANGENT":333,"TEXCOORD_0":334,"TEXCOORD_1":335,"TEXCOORD_2":336},"indices":337,"material":3,"mode":4}]},{"name":"Cube.023_wood_0","primitives":[{"attributes":{"NORMAL":339,"POSITION":338,"TEXCOORD_0":340,"TEXCOORD_1":341,"TEXCOORD_2":342},"indices":343,"material":4,"mode":4}]},{"name":"Cube.023_chrome_0","primitives":[{"attributes":{"NORMAL":345,"POSITION":344,"TEXCOORD_0":346},"indices":347,"material":5,"mode":4}]},{"name":"Torus_paint_0","primitives":[{"attributes":{"NORMAL":349,"POSITION":348,"TEXCOORD_0":350},"indices":351,"material":1,"mode":4}]},{"name":"Cylinder.012_black_0","primitives":[{"attributes":{"NORMAL":353,"POSITION":352,"TEXCOORD_0":354},"indices":355,"material":7,"mode":4}]},{"name":"Cube.024_black_0","primitives":[{"attributes":{"NORMAL":357,"POSITION":356,"TEXCOORD_0":358},"indices":359,"material":7,"mode":4}]},{"name":"Cylinder.003_spokes_0","primitives":[{"attributes":{"NORMAL":361,"POSITION":360,"TEXCOORD_0":362},"indices":363,"material":11,"mode":4}]},{"name":"Cylinder.003_chrome_0","primitives":[{"attributes":{"NORMAL":365,"POSITION":364,"TEXCOORD_0":366},"indices":367,"material":5,"mode":4}]},{"name":"Cylinder.003_tyre texture bake_0","primitives":[{"attributes":{"NORMAL":369,"POSITION":368,"TANGENT":370,"TEXCOORD_0":371,"TEXCOORD_1":372},"indices":373,"material":12,"mode":4}]},{"name":"Cylinder.005_spokes_0","primitives":[{"attributes":{"NORMAL":375,"POSITION":374,"TEXCOORD_0":376},"indices":377,"material":11,"mode":4}]},{"name":"Cylinder.005_chrome_0","primitives":[{"attributes":{"NORMAL":379,"POSITION":378,"TEXCOORD_0":380},"indices":381,"material":5,"mode":4}]},{"name":"Cylinder.005_tyre texture bake_0","primitives":[{"attributes":{"NORMAL":383,"POSITION":382,"TANGENT":384,"TEXCOORD_0":385,"TEXCOORD_1":386},"indices":387,"material":12,"mode":4}]},{"name":"Cylinder.007_spokes_0","primitives":[{"attributes":{"NORMAL":389,"POSITION":388,"TEXCOORD_0":390},"indices":391,"material":11,"mode":4}]},{"name":"Cylinder.007_chrome_0","primitives":[{"attributes":{"NORMAL":393,"POSITION":392,"TEXCOORD_0":394},"indices":395,"material":5,"mode":4}]},{"name":"Cylinder.007_tyre texture bake_0","primitives":[{"attributes":{"NORMAL":397,"POSITION":396,"TANGENT":398,"TEXCOORD_0":399,"TEXCOORD_1":400},"indices":401,"material":12,"mode":4}]},{"name":"Cylinder.013_ground_0","primitives":[{"attributes":{"NORMAL":403,"POSITION":402,"TANGENT":404,"TEXCOORD_0":405,"TEXCOORD_1":406},"indices":407,"material":15,"mode":4}]}],"nodes":[{"children":[1],"matrix":[1,0,0,0,0,2.220446049250313e-16,-1,0,0,1,2.220446049250313e-16,0,0,0,0,1],"name":"Sketchfab_model"},{"children":[2],"matrix":[1,0,0,0,0,0,1,0,0,-1,0,0,0,0,0,1],"name":"cecc4a1f53b14743818d0a5796828ac1.fbx"},{"children":[3,7,9,16,23,27,30,32,34,36,39,41,43,45,50,55,57,59,63,67,69,72,74,76,78,82,84,86,88,91,93,95,97,104,111,113,115,117,121,125,129],"name":"RootNode"},{"children":[4,5,6],"matrix":[100,0,0,0,0,-0.00001629206793918314,-99.99999999999868,0,0,99.99999999999868,-0.00001629206793918314,0,0.07062070071697235,72.35232543945312,112.55809020996094,1],"name":"Cube.001"},{"mesh":0,"name":"Cube.001_silver _0"},{"mesh":1,"name":"Cube.001_paint_0"},{"mesh":2,"name":"Cube.001_glass_0"},{"children":[8],"matrix":[100,0,0,0,0,-0.00001629206793918314,-99.99999999999868,0,0,99.99999999999868,-0.00001629206793918314,0,0.001924857497215271,39.30105972290039,-182.58311462402344,1],"name":"Cube.002"},{"mesh":3,"name":"Cube.002_silver _0"},{"children":[10,11,12,13,14,15],"matrix":[100,0,0,0,0,-0.00001629206793918314,-99.99999999999868,0,0,99.99999999999868,-0.00001629206793918314,0,63.586891174316406,67.38296508789062,10.80470085144043,1],"name":"Cube.004"},{"mesh":4,"name":"Cube.004_silver _0"},{"mesh":5,"name":"Cube.004_paint_0"},{"mesh":6,"name":"Cube.004_glass_0"},{"mesh":7,"name":"Cube.004_fabric_0"},{"mesh":8,"name":"Cube.004_wood_0"},{"mesh":9,"name":"Cube.004_chrome_0"},{"children":[17,18,19,20,21,22],"matrix":[100,0,0,0,0,-0.00001629206793918314,-99.99999999999868,0,0,99.99999999999868,-0.00001629206793918314,0,62.28361129760742,67.76004028320312,10.655200958251953,1],"name":"Cube.005"},{"mesh":10,"name":"Cube.005_silver _0"},{"mesh":11,"name":"Cube.005_paint_0"},{"mesh":12,"name":"Cube.005_glass_0"},{"mesh":13,"name":"Cube.005_fabric_0"},{"mesh":14,"name":"Cube.005_wood_0"},{"mesh":15,"name":"Cube.005_chrome_0"},{"children":[24,25,26],"matrix":[100,0,0,0,0,-0.00001629206793918314,-99.99999999999868,0,0,99.99999999999868,-0.00001629206793918314,0,-0.43323373794555664,75.5531234741211,239.347412109375,1],"name":"Cylinder"},{"mesh":16,"name":"Cylinder_chrome_0"},{"mesh":17,"name":"Cylinder_silver _0"},{"mesh":18,"name":"Cylinder_headlight_0"},{"children":[28,29],"matrix":[100,0,0,0,0,-0.00001629206793918314,-99.99999999999868,0,0,99.99999999999868,-0.00001629206793918314,0,0.07363371551036835,66.07357788085938,227.48590087890625,1],"name":"Cube.006"},{"mesh":19,"name":"Cube.006_chrome_0"},{"mesh":20,"name":"Cube.006_black_0"},{"children":[31],"matrix":[100,0,0,0,0,-0.00001629206793918314,-99.99999999999868,0,0,99.99999999999868,-0.00001629206793918314,0,0.07433854043483734,62.95589065551758,265.8394775390625,1],"name":"Cube.007"},{"mesh":21,"name":"Cube.007_black_0"},{"children":[33],"matrix":[100,0,0,0,0,-0.00001629206793918314,-99.99999999999868,0,0,99.99999999999868,-0.00001629206793918314,0,0.07644258439540863,68.54710388183594,231.85963439941406,1],"name":"Cube.010"},{"mesh":22,"name":"Cube.010_silver _0"},{"children":[35],"matrix":[100,0,0,0,0,-0.00001629206793918314,-99.99999999999868,0,0,99.99999999999868,-0.00001629206793918314,0,-0.6044927835464478,31.23613929748535,247.01889038085938,1],"name":"Cube.011"},{"mesh":23,"name":"Cube.011_chrome_0"},{"children":[37,38],"matrix":[100,0,0,0,0,-0.00001629206793918314,-99.99999999999868,0,0,99.99999999999868,-0.00001629206793918314,0,-23.262826919555664,43.28041458129883,248.128173828125,1],"name":"Cylinder.002"},{"mesh":24,"name":"Cylinder.002_chrome_0"},{"mesh":25,"name":"Cylinder.002_fog light_0"},{"children":[40],"matrix":[100,0,0,0,0,-0.00001629206793918314,-99.99999999999868,0,0,99.99999999999868,-0.00001629206793918314,0,0.1919623464345932,33.38624572753906,206.26687622070312,1],"name":"Cube.012"},{"mesh":26,"name":"Cube.012_black_0"},{"children":[42],"matrix":[100,0,0,0,0,-0.00001629206793918314,-99.99999999999868,0,0,99.99999999999868,-0.00001629206793918314,0,0.18673501908779144,33.38624572753906,-82.41126251220703,1],"name":"Cube.013"},{"mesh":27,"name":"Cube.013_black_0"},{"children":[44],"matrix":[100,0,0,0,0,-0.00001629206793918314,-99.99999999999868,0,0,99.99999999999868,-0.00001629206793918314,0,0.07212571799755096,107.10643768310547,162.58270263671875,1],"name":"Cube.014"},{"mesh":28,"name":"Cube.014_chrome_0"},{"children":[46,47,48,49],"matrix":[100,0,0,0,0,-0.00001629206793918314,-99.99999999999868,0,0,99.99999999999868,-0.00001629206793918314,0,54.55780792236328,50.244117736816406,-149.88958740234375,1],"name":"Cylinder.008"},{"mesh":29,"name":"Cylinder.008_silver _0"},{"mesh":30,"name":"Cylinder.008_black_0"},{"mesh":31,"name":"Cylinder.008_red_0"},{"mesh":32,"name":"Cylinder.008_orange_0"},{"children":[51,52,53,54],"matrix":[100,0,0,0,0,-0.00001629206793918314,-99.99999999999868,0,0,99.99999999999868,-0.00001629206793918314,0,-53.29017639160156,50.244117736816406,-149.88766479492188,1],"name":"Cylinder.009"},{"mesh":33,"name":"Cylinder.009_silver _0"},{"mesh":34,"name":"Cylinder.009_black_0"},{"mesh":35,"name":"Cylinder.009_red_0"},{"mesh":36,"name":"Cylinder.009_orange_0"},{"children":[56],"matrix":[100,0,0,0,0,-0.00001629206793918314,-99.99999999999868,0,0,99.99999999999868,-0.00001629206793918314,0,0.035695359110832214,107.14982604980469,216.80606079101562,1],"name":"Cylinder.010"},{"mesh":37,"name":"Cylinder.010_silver _0"},{"children":[58],"matrix":[100,0,0,0,0,-0.00001629206793918314,-99.99999999999868,0,0,99.99999999999868,-0.00001629206793918314,0,0.05404762923717499,116.11554718017578,-97.38735961914062,1],"name":"Cube.015"},{"mesh":38,"name":"Cube.015_silver _0"},{"children":[60,61,62],"matrix":[100,0,0,0,0,-0.00001629206793918314,-99.99999999999868,0,0,99.99999999999868,-0.00001629206793918314,0,59.5942497253418,33.384254455566406,-79.96731567382812,1],"name":"Cylinder.004"},{"mesh":39,"name":"Cylinder.004_spokes_0"},{"mesh":40,"name":"Cylinder.004_chrome_0"},{"mesh":41,"name":"Cylinder.004_tyre texture bake_0"},{"children":[64,65,66],"matrix":[100,0,0,0,0,-0.00001629206793918314,-99.99999999999868,0,0,99.99999999999868,-0.00001629206793918314,0,-59.31779098510742,33.384254455566406,-79.96731567382812,1],"name":"Cylinder.006"},{"mesh":42,"name":"Cylinder.006_spokes_0"},{"mesh":43,"name":"Cylinder.006_chrome_0"},{"mesh":44,"name":"Cylinder.006_tyre texture bake_0"},{"children":[68],"matrix":[100,0,0,0,0,-0.00001629206793918314,-99.99999999999868,0,0,99.99999999999868,-0.00001629206793918314,0,-0.5682412385940552,107.46775817871094,239.3394012451172,1],"name":"Body2"},{"mesh":45,"name":"Body2_blinn1_0"},{"children":[70,71],"matrix":[100,0,0,0,0,-0.00001629206793918314,-99.99999999999868,0,0,99.99999999999868,-0.00001629206793918314,0,22.98691749572754,43.28041458129883,248.128173828125,1],"name":"Cylinder.001"},{"mesh":46,"name":"Cylinder.001_chrome_0"},{"mesh":47,"name":"Cylinder.001_fog light_0"},{"children":[73],"matrix":[100,0,0,0,0,-0.00001629206793918314,-99.99999999999868,0,0,99.99999999999868,-0.00001629206793918314,0,74.25054168701172,61.24291229248047,171.7207489013672,1],"name":"Cube.003"},{"mesh":48,"name":"Cube.003_silver _0"},{"children":[75],"matrix":[100,0,0,0,0,-0.00001629206793918314,-99.99999999999868,0,0,99.99999999999868,-0.00001629206793918314,0,-73.64405059814453,56.93865966796875,171.55447387695312,1],"name":"Cube.008"},{"mesh":49,"name":"Cube.008_silver _0"},{"children":[77],"matrix":[100,0,0,0,0,-0.00001629206793918314,-99.99999999999868,0,0,99.99999999999868,-0.00001629206793918314,0,0.07433854043483734,62.95589065551758,265.8394775390625,1],"name":"Cube.016"},{"mesh":50,"name":"Cube.016_black_0"},{"children":[79,80,81],"matrix":[100,0,0,0,0,-0.00001629206793918314,-99.99999999999868,0,0,99.99999999999868,-0.00001629206793918314,0,-59.31779098510742,56.66053771972656,141.79476928710938,1],"name":"Cylinder.011"},{"mesh":51,"name":"Cylinder.011_spokes_0"},{"mesh":52,"name":"Cylinder.011_chrome_0"},{"mesh":53,"name":"Cylinder.011_tyre texture bake_0"},{"children":[83],"matrix":[100,0,0,0,0,-0.00001629206793918314,-99.99999999999868,0,0,99.99999999999868,-0.00001629206793918314,0,0.07062070071697235,72.35232543945312,112.55809020996094,1],"name":"Cube.018"},{"mesh":54,"name":"Cube.018_silver _0"},{"children":[85],"matrix":[100,0,0,0,0,-0.00001629206793918314,-99.99999999999868,0,0,99.99999999999868,-0.00001629206793918314,0,-0.6044927835464478,31.23613929748535,-160.08323669433594,1],"name":"Cube.017"},{"mesh":55,"name":"Cube.017_chrome_0"},{"children":[87],"matrix":[100,0,0,0,0,-0.00001629206793918314,-99.99999999999868,0,0,99.99999999999868,-0.00001629206793918314,0,-0.03941245377063751,103.03594970703125,108.08612060546875,1],"name":"Cube"},{"mesh":56,"name":"Cube_interior paint_0"},{"children":[89,90],"matrix":[100,0,0,0,0,-0.00001629206793918314,-99.99999999999868,0,0,99.99999999999868,-0.00001629206793918314,0,-0.03941245377063751,103.03594970703125,109.58667755126953,1],"name":"Cube.019"},{"mesh":57,"name":"Cube.019_chrome_0"},{"mesh":58,"name":"Cube.019_paint_0"},{"matrix":[100,0,0,0,0,-0.00001629206793918314,-99.99999999999868,0,0,99.99999999999868,-0.00001629206793918314,0,-0.03941245377063751,59.140438079833984,104.9541244506836,1],"name":"Plane"},{"name":"Plane_fabric_0"},{"children":[94],"matrix":[100,0,0,0,0,-0.00001629206793918314,-99.99999999999868,0,0,99.99999999999868,-0.00001629206793918314,0,-0.03941245377063751,45.173309326171875,42.64708709716797,1],"name":"Cube.020"},{"mesh":60,"name":"Cube.020_fabric_0"},{"children":[96],"matrix":[100,0,0,0,0,-0.00001629206793918314,-99.99999999999868,0,0,99.99999999999868,-0.00001629206793918314,0,-0.03941245377063751,45.173309326171875,-42.076107025146484,1],"name":"Cube.021"},{"mesh":61,"name":"Cube.021_fabric_0"},{"children":[98,99,100,101,102,103],"matrix":[100,0,0,0,0,-0.00001629206793918314,-99.99999999999868,0,0,99.99999999999868,-0.00001629206793918314,0,-63.42048645019531,67.38296508789062,10.80470085144043,1],"name":"Cube.022"},{"mesh":62,"name":"Cube.022_silver _0"},{"mesh":63,"name":"Cube.022_paint_0"},{"mesh":64,"name":"Cube.022_glass_0"},{"mesh":65,"name":"Cube.022_fabric_0"},{"mesh":66,"name":"Cube.022_wood_0"},{"mesh":67,"name":"Cube.022_chrome_0"},{"children":[105,106,107,108,109,110],"matrix":[100,0,0,0,0,-0.00001629206793918314,-99.99999999999868,0,0,99.99999999999868,-0.00001629206793918314,0,-62.11720657348633,67.76004028320312,10.655200958251953,1],"name":"Cube.023"},{"mesh":68,"name":"Cube.023_silver _0"},{"mesh":69,"name":"Cube.023_paint_0"},{"mesh":70,"name":"Cube.023_glass_0"},{"mesh":71,"name":"Cube.023_fabric_0"},{"mesh":72,"name":"Cube.023_wood_0"},{"mesh":73,"name":"Cube.023_chrome_0"},{"children":[112],"matrix":[100,0,0,0,0,-0.00001629206793918314,-99.99999999999868,0,0,99.99999999999868,-0.00001629206793918314,0,28.337970733642578,101.52384948730469,72.8987808227539,1],"name":"Torus"},{"mesh":74,"name":"Torus_paint_0"},{"children":[114],"matrix":[100,0,0,0,0,-0.00001629206793918314,-99.99999999999868,0,0,99.99999999999868,-0.00001629206793918314,0,28.337970733642578,80.3260269165039,111.8510971069336,1],"name":"Cylinder.012"},{"mesh":75,"name":"Cylinder.012_black_0"},{"children":[116],"matrix":[100,0,0,0,0,-0.00001629206793918314,-99.99999999999868,0,0,99.99999999999868,-0.00001629206793918314,0,0.07062070071697235,72.35232543945312,112.55809020996094,1],"name":"Cube.024"},{"mesh":76,"name":"Cube.024_black_0"},{"children":[118,119,120],"matrix":[100,0,0,0,0,-0.00001629206793918314,-99.99999999999868,0,0,99.99999999999868,-0.00001629206793918314,0,59.5942497253418,33.384254455566406,223.92205810546875,1],"name":"Cylinder.003"},{"mesh":77,"name":"Cylinder.003_spokes_0"},{"mesh":78,"name":"Cylinder.003_chrome_0"},{"mesh":79,"name":"Cylinder.003_tyre texture bake_0"},{"children":[122,123,124],"matrix":[100,0,0,0,0,-0.00001629206793918314,-99.99999999999868,0,0,99.99999999999868,-0.00001629206793918314,0,-59.31779098510742,33.384254455566406,223.92205810546875,1],"name":"Cylinder.005"},{"mesh":80,"name":"Cylinder.005_spokes_0"},{"mesh":81,"name":"Cylinder.005_chrome_0"},{"mesh":82,"name":"Cylinder.005_tyre texture bake_0"},{"children":[126,127,128],"matrix":[100,0,0,0,0,-0.00001629206793918314,-99.99999999999868,0,0,99.99999999999868,-0.00001629206793918314,0,59.5942497253418,55.4036750793457,140.30230712890625,1],"name":"Cylinder.007"},{"mesh":83,"name":"Cylinder.007_spokes_0"},{"mesh":84,"name":"Cylinder.007_chrome_0"},{"mesh":85,"name":"Cylinder.007_tyre texture bake_0"},{"matrix":[100,0,0,0,0,-0.00001629206793918314,-99.99999999999868,0,0,99.99999999999868,-0.00001629206793918314,0,0.1570470631122589,-5.698872089385986,48.09816360473633,1],"name":"Cylinder.013"},{"name":"Cylinder.013_ground_0"}],"samplers":[{"magFilter":9729,"minFilter":9987,"wrapS":10497,"wrapT":10497}],"scene":0,"scenes":[{"name":"Sketchfab_Scene","nodes":[0]}],"textures":[{"sampler":0,"source":0},{"sampler":0,"source":1},{"sampler":0,"source":2},{"sampler":0,"source":3},{"sampler":0,"source":4},{"sampler":0,"source":5},{"sampler":0,"source":6},{"sampler":0,"source":7},{"sampler":0,"source":8},{"sampler":0,"source":9},{"sampler":0,"source":10},{"sampler":0,"source":11},{"sampler":0,"source":12}],"extensionsRequired":[]}