{"accessors":[{"bufferView":2,"componentType":5126,"count":8057,"max":[8.78341007232666,81.23738098144531,69.58570098876953],"min":[-8.117888450622559,6.061539173126221,-13.396688461303711],"type":"VEC3"},{"bufferView":2,"byteOffset":96684,"componentType":5126,"count":8057,"max":[1,1,1],"min":[-1,-1,-1],"type":"VEC3"},{"bufferView":1,"componentType":5126,"count":8057,"max":[22.21622657775879,129.7525177001953],"min":[-20.269973754882812,-1],"type":"VEC2"},{"bufferView":0,"componentType":5125,"count":24003,"type":"SCALAR"},{"bufferView":2,"byteOffset":193368,"componentType":5126,"count":9424,"max":[-3.9275519847869873,77.81246948242188,68.4201431274414],"min":[-5.223607063293457,10.020621299743652,61.682586669921875],"type":"VEC3"},{"bufferView":2,"byteOffset":306456,"componentType":5126,"count":9424,"max":[0.9999983310699463,1,0.9999802112579346],"min":[-0.9999949932098389,-1,-0.9999843835830688],"type":"VEC3"},{"bufferView":1,"byteOffset":64456,"componentType":5126,"count":9424,"max":[2,71.41272735595703],"min":[-1,-1],"type":"VEC2"},{"bufferView":0,"byteOffset":96012,"componentType":5125,"count":28008,"type":"SCALAR"}],"asset":{"extras":{"author":"svdgwt (https://sketchfab.com/svdgwt)","license":"CC-BY-4.0 (http://creativecommons.org/licenses/by/4.0/)","source":"https://sketchfab.com/3d-models/free-french-balcony-iron-fence-39f735f9523c42589f1c9d8a441d038a","title":"Free French balcony iron fence"},"generator":"Sketchfab-12.59.0","version":"2.0"},"bufferViews":[{"buffer":0,"byteLength":208044,"name":"floatBufferViews","target":34963},{"buffer":0,"byteLength":139848,"byteOffset":208044,"byteStride":8,"name":"floatBufferViews","target":34962},{"buffer":0,"byteLength":419544,"byteOffset":347892,"byteStride":12,"name":"floatBufferViews","target":34962}],"buffers":[{"byteLength":767436,"uri":"scene.bin"}],"materials":[{"doubleSided":true,"name":"Steel_-_Satin","pbrMetallicRoughness":{"baseColorFactor":[0.6514056374198239,0.6038273388553378,0.5209955732043541,1],"metallicFactor":0,"roughnessFactor":0.6}},{"doubleSided":true,"name":"Steel_-_Satin.001","pbrMetallicRoughness":{"baseColorFactor":[0.651374896449826,0.6030431206748813,0.5233759667191957,1],"metallicFactor":0,"roughnessFactor":0.6}}],"meshes":[{"name":"Object_0","primitives":[{"attributes":{"NORMAL":1,"POSITION":0,"TEXCOORD_0":2},"indices":3,"material":0,"mode":4}]},{"name":"Object_1","primitives":[{"attributes":{"NORMAL":5,"POSITION":4,"TEXCOORD_0":6},"indices":7,"material":1,"mode":4}]}],"nodes":[{"children":[1],"matrix":[1,0,0,0,0,2.220446049250313e-16,-1,0,0,1,2.220446049250313e-16,0,0,0,0,1],"name":"Sketchfab_model"},{"children":[2,3],"name":"untitled222.obj.cleaner.materialmerger.gles"},{"mesh":0,"name":"Object_2"},{"mesh":1,"name":"Object_3"}],"scene":0,"scenes":[{"name":"Sketchfab_Scene","nodes":[0]}],"extensionsRequired":[]}