{"accessors":[{"bufferView":2,"componentType":5126,"count":1397,"max":[75.08050537109375,48.09961700439453,25.119632720947266],"min":[-75.08050537109375,-48.09961700439453,-25.119632720947266],"type":"VEC3"},{"bufferView":2,"byteOffset":16764,"componentType":5126,"count":1397,"max":[0.8664504885673523,0.9997859597206116,0.991098940372467],"min":[-0.8664528727531433,-0.9999763369560242,-0.989579975605011],"type":"VEC3"},{"bufferView":3,"componentType":5126,"count":1397,"max":[0.8165135979652405,0.955359160900116,0.9357402324676514,1],"min":[-0.9999999403953552,-0.8164970278739929,-0.9200196266174316,-1],"type":"VEC4"},{"bufferView":1,"componentType":5126,"count":1397,"max":[0.9989538788795471,0.9992170929908752],"min":[0.0001604251010576263,0.0017523323185741901],"type":"VEC2"},{"bufferView":1,"byteOffset":11176,"componentType":5126,"count":1397,"max":[0.9909517168998718,0.9946277141571045],"min":[0.011384462006390095,0.009329646825790405],"type":"VEC2"},{"bufferView":1,"byteOffset":22352,"componentType":5126,"count":1397,"max":[0.9989538788795471,0.9992170929908752],"min":[0.0001604251010576263,0.0017523323185741901],"type":"VEC2"},{"bufferView":1,"byteOffset":33528,"componentType":5126,"count":1397,"max":[0.9989538788795471,0.9992170929908752],"min":[0.0001604251010576263,0.0017523323185741901],"type":"VEC2"},{"bufferView":0,"componentType":5125,"count":1968,"type":"SCALAR"}],"asset":{"extras":{"author":"plaggy (https://sketchfab.com/plaggy)","license":"CC-BY-4.0 (http://creativecommons.org/licenses/by/4.0/)","source":"https://sketchfab.com/3d-models/cc0-awning-47e5fd8a6b194b48aad20425869d15ba","title":"CC0 - Awning"},"generator":"Sketchfab-16.14.0","version":"2.0"},"bufferViews":[{"buffer":0,"byteLength":7872,"name":"floatBufferViews","target":34963},{"buffer":0,"byteLength":44704,"byteOffset":7872,"byteStride":8,"name":"floatBufferViews","target":34962},{"buffer":0,"byteLength":33528,"byteOffset":52576,"byteStride":12,"name":"floatBufferViews","target":34962},{"buffer":0,"byteLength":22352,"byteOffset":86104,"byteStride":16,"name":"floatBufferViews","target":34962}],"buffers":[{"byteLength":108456,"uri":"scene.bin"}],"images":[{"uri":"textures/Awning_baseColor.webp","mimeType":"image/webp"},{"uri":"textures/Awning_metallicRoughness.webp","mimeType":"image/webp"},{"uri":"textures/Awning_normal.webp","mimeType":"image/webp"}],"materials":[{"doubleSided":true,"name":"Awning","normalTexture":{"index":2},"occlusionTexture":{"index":1},"pbrMetallicRoughness":{"baseColorTexture":{"index":0},"metallicRoughnessTexture":{"index":1}}}],"meshes":[{"name":"Awning_Awning_0","primitives":[{"attributes":{"NORMAL":1,"POSITION":0,"TANGENT":2,"TEXCOORD_0":3,"TEXCOORD_1":4,"TEXCOORD_2":5,"TEXCOORD_3":6},"indices":7,"material":0,"mode":4}]}],"nodes":[{"children":[1],"matrix":[1,0,0,0,0,2.220446049250313e-16,-1,0,0,1,2.220446049250313e-16,0,0,0,0,1],"name":"Sketchfab_model"},{"children":[2],"matrix":[1,0,0,0,0,0,1,0,0,-1,0,0,0,0,0,1],"name":"ede547db9f2543f2b9e79f570d4e8d66.fbx"},{"children":[3],"name":"RootNode"},{"children":[4],"matrix":[0.02539999969303608,0,0,0,0,5.639932896936113e-18,-0.02539999969303608,0,0,0.02539999969303608,5.639932896936113e-18,0,0,0,0,1],"name":"Awning"},{"mesh":0,"name":"Awning_Awning_0"}],"samplers":[{"magFilter":9729,"minFilter":9987,"wrapS":10497,"wrapT":10497}],"scene":0,"scenes":[{"name":"Sketchfab_Scene","nodes":[0]}],"textures":[{"sampler":0,"source":0},{"sampler":0,"source":1},{"sampler":0,"source":2}],"extensionsRequired":[]}