{"accessors":[{"bufferView":3,"componentType":5126,"count":302,"max":[0.08443408459424973,1.6880781650543213,0.14115095138549805],"min":[-0.12359940260648727,1.3143537044525146,-0.09207428246736526],"type":"VEC3"},{"bufferView":3,"byteOffset":3624,"componentType":5126,"count":302,"max":[0.9995917677879333,0.9893856048583984,0.9999170899391174],"min":[-0.9962989687919617,-0.9693140387535095,-0.9986482262611389],"type":"VEC3"},{"bufferView":4,"componentType":5126,"count":302,"max":[0.9991815686225891,0.999967634677887,0.9880234599113464,1],"min":[-0.9155964255332947,-0.9982976317405701,-0.7534863352775574,1],"type":"VEC4"},{"bufferView":2,"componentType":5126,"count":302,"max":[0.99658203125,0.990234375],"min":[0.007801055908203125,0.01360321044921875],"type":"VEC2"},{"bufferView":1,"componentType":5125,"count":1674,"type":"SCALAR"},{"bufferView":3,"byteOffset":7248,"componentType":5126,"count":664,"max":[0.08157835900783539,1.6555451154708862,0.136302649974823],"min":[-0.08542786538600922,1.3311755657196045,-0.06156173720955849],"type":"VEC3"},{"bufferView":3,"byteOffset":15216,"componentType":5126,"count":664,"max":[0.9996898770332336,0.9823957681655884,0.9999394416809082],"min":[-0.9788498282432556,-0.9990100264549255,-0.9537577033042908],"type":"VEC3"},{"bufferView":4,"byteOffset":4832,"componentType":5126,"count":664,"max":[0.9999994039535522,0.9712480306625366,0.9643689393997192,1],"min":[-0.9981447458267212,-0.999997079372406,-0.9990028142929077,-1],"type":"VEC4"},{"bufferView":2,"byteOffset":2416,"componentType":5126,"count":664,"max":[0.947265625,0.97607421875],"min":[0.003299713134765625,0.00469970703125],"type":"VEC2"},{"bufferView":1,"byteOffset":6696,"componentType":5125,"count":3726,"type":"SCALAR"},{"bufferView":3,"byteOffset":23184,"componentType":5126,"count":2380,"max":[0.6441023349761963,1.5147749185562134,0.1728665679693222],"min":[-0.6441023349761963,-0.00047627530875615776,-0.155575692653656],"type":"VEC3"},{"bufferView":3,"byteOffset":51744,"componentType":5126,"count":2380,"max":[0.9999332427978516,0.9549553394317627,0.9994245767593384],"min":[-0.999168872833252,-0.9877868294715881,-0.9999961256980896],"type":"VEC3"},{"bufferView":4,"byteOffset":15456,"componentType":5126,"count":2380,"max":[0.9989362955093384,0.9994806051254272,0.9999459385871887,1],"min":[-0.9999936819076538,-0.9997836351394653,-0.9999725222587585,-1],"type":"VEC4"},{"bufferView":2,"byteOffset":7728,"componentType":5126,"count":2380,"max":[1.9248046875,0.998046875],"min":[0.0017004013061523438,0.004199981689453125],"type":"VEC2"},{"bufferView":1,"byteOffset":21600,"componentType":5125,"count":10905,"type":"SCALAR"},{"bufferView":3,"byteOffset":80304,"componentType":5126,"count":202,"max":[0.12196449935436249,1.7319202423095703,0.17602567374706268],"min":[-0.1292642205953598,1.5609382390975952,-0.1155809685587883],"type":"VEC3"},{"bufferView":3,"byteOffset":82728,"componentType":5126,"count":202,"max":[0.9434835910797119,0.996772289276123,0.9983534812927246],"min":[-0.9986788034439087,-0.9995015263557434,-0.9448505640029907],"type":"VEC3"},{"bufferView":4,"byteOffset":53536,"componentType":5126,"count":202,"max":[0.9911090731620789,0.8532912731170654,0.9956961870193481,1],"min":[-0.9999919533729553,-0.5092705488204956,-0.986939549446106,-1],"type":"VEC4"},{"bufferView":2,"byteOffset":26768,"componentType":5126,"count":202,"max":[0.9892578125,0.986328125],"min":[0.00659942626953125,0.0247039794921875],"type":"VEC2"},{"bufferView":1,"byteOffset":65220,"componentType":5125,"count":864,"type":"SCALAR"},{"bufferView":5,"componentType":5126,"count":65,"max":[200.00003051757812,0.8171306848526001,1.0000001192092896,0,1.000003457069397,200.00001525878906,0.9295278787612915,0,0.9958614706993103,0.9995171427726746,200.00003051757812,0,0.863944411277771,1.0606993436813354,1.2838480472564697,1],"min":[-0.9208682775497437,-0.2570042908191681,-0.9966352581977844,0,-1.0000001192092896,-0.9995775818824768,-0.9295322895050049,0,-0.9967731833457947,-0.9998031258583069,-0.5176335573196411,0,-1.4641289710998535,-1.0679290294647217,-1.283841848373413,1],"type":"MAT4"},{"bufferView":0,"componentType":5123,"count":302,"type":"VEC4"},{"bufferView":4,"byteOffset":56768,"componentType":5126,"count":302,"max":[1,0.3996928632259369,0.2914295196533203,0.03951207548379898],"min":[0.3572976291179657,0,0,0],"type":"VEC4"},{"bufferView":0,"byteOffset":2416,"componentType":5123,"count":664,"type":"VEC4"},{"bufferView":4,"byteOffset":61600,"componentType":5126,"count":664,"max":[1,0.4943999946117401,0.14544400572776794,0],"min":[0.5055999755859375,0,0,0],"type":"VEC4"},{"bufferView":0,"byteOffset":7728,"componentType":5123,"count":2380,"type":"VEC4"},{"bufferView":4,"byteOffset":72224,"componentType":5126,"count":2380,"max":[1,0.5,0.27702370285987854,0.24474523961544037],"min":[0.2560942471027374,0,0,0],"type":"VEC4"},{"bufferView":0,"byteOffset":26768,"componentType":5123,"count":202,"type":"VEC4"},{"bufferView":4,"byteOffset":110304,"componentType":5126,"count":202,"max":[1,0.015118855983018875,0,0],"min":[0.9848811626434326,0,0,0],"type":"VEC4"}],"asset":{"extras":{"author":"fred346b (https://sketchfab.com/fred346b)","license":"CC-BY-4.0 (http://creativecommons.org/licenses/by/4.0/)","source":"https://sketchfab.com/3d-models/empire-of-sin-dotty-bacon-8411d040add845908b4a92e0d87cabae","title":"Empire of Sin: Dotty Bacon"},"generator":"Sketchfab-17.1.0","version":"2.0"},"bufferViews":[{"buffer":0,"byteLength":28384,"byteStride":8,"name":"shortBufferViews","target":34962},{"buffer":0,"byteLength":68676,"byteOffset":28384,"name":"floatBufferViews","target":34963},{"buffer":0,"byteLength":28384,"byteOffset":97060,"byteStride":8,"name":"floatBufferViews","target":34962},{"buffer":0,"byteLength":85152,"byteOffset":125444,"byteStride":12,"name":"floatBufferViews","target":34962},{"buffer":0,"byteLength":113536,"byteOffset":210596,"byteStride":16,"name":"floatBufferViews","target":34962},{"buffer":0,"byteLength":4160,"byteOffset":324132,"name":"floatBufferViews"}],"buffers":[{"byteLength":328292,"uri":"scene.bin"}],"extensionsUsed":["KHR_materials_specular"],"images":[{"uri":"textures/Dotty_Bacon_Hair_baseColor.webp","mimeType":"image/webp"},{"uri":"textures/Dotty_Bacon_Hair_metallicRoughness.webp","mimeType":"image/webp"},{"uri":"textures/Dotty_Bacon_Hair_normal.webp","mimeType":"image/webp"},{"uri":"textures/Dotty_Bacon_Hair_specularf0.webp","mimeType":"image/webp"},{"uri":"textures/Dotty_Bacon_Head_baseColor.webp","mimeType":"image/webp"},{"uri":"textures/Dotty_Bacon_Head_metallicRoughness.webp","mimeType":"image/webp"},{"uri":"textures/Dotty_Bacon_Head_normal.webp","mimeType":"image/webp"},{"uri":"textures/Dotty_Bacon_Head_specularf0.webp","mimeType":"image/webp"},{"uri":"textures/Dotty_Bacon_Body_baseColor.webp","mimeType":"image/webp"},{"uri":"textures/Dotty_Bacon_Body_metallicRoughness.webp","mimeType":"image/webp"},{"uri":"textures/Dotty_Bacon_Body_normal.webp","mimeType":"image/webp"},{"uri":"textures/Dotty_Bacon_Body_specularf0.webp","mimeType":"image/webp"},{"uri":"textures/Dotty_Bacon_Hat_baseColor.webp","mimeType":"image/webp"},{"uri":"textures/Dotty_Bacon_Hat_metallicRoughness.webp","mimeType":"image/webp"},{"uri":"textures/Dotty_Bacon_Hat_normal.webp","mimeType":"image/webp"},{"uri":"textures/Dotty_Bacon_Hat_specularf0.webp","mimeType":"image/webp"}],"materials":[{"alphaMode":"BLEND","doubleSided":true,"extensions":{"KHR_materials_specular":{"specularColorFactor":[1,1,1],"specularFactor":1,"specularTexture":{"index":3}}},"name":"Dotty_Bacon_Hair","normalTexture":{"index":2},"pbrMetallicRoughness":{"baseColorTexture":{"index":0},"metallicRoughnessTexture":{"index":1}}},{"doubleSided":true,"extensions":{"KHR_materials_specular":{"specularColorFactor":[1,1,1],"specularFactor":1,"specularTexture":{"index":7}}},"name":"Dotty_Bacon_Head","normalTexture":{"index":6},"pbrMetallicRoughness":{"baseColorTexture":{"index":4},"metallicRoughnessTexture":{"index":5}}},{"doubleSided":true,"extensions":{"KHR_materials_specular":{"specularColorFactor":[1,1,1],"specularFactor":1,"specularTexture":{"index":11}}},"name":"Dotty_Bacon_Body","normalTexture":{"index":10},"pbrMetallicRoughness":{"baseColorTexture":{"index":8},"metallicRoughnessTexture":{"index":9}}},{"doubleSided":true,"extensions":{"KHR_materials_specular":{"specularColorFactor":[1,1,1],"specularFactor":1,"specularTexture":{"index":15}}},"name":"Dotty_Bacon_Hat","normalTexture":{"index":14},"pbrMetallicRoughness":{"baseColorTexture":{"index":12},"metallicRoughnessTexture":{"index":13}}}],"meshes":[{"name":"body_Dotty Bacon Hair_0","primitives":[{"attributes":{"JOINTS_0":21,"NORMAL":1,"POSITION":0,"TANGENT":2,"TEXCOORD_0":3,"TEXCOORD_1":3,"WEIGHTS_0":22},"indices":4,"material":0,"mode":4}]},{"name":"body_Dotty Bacon Head_0","primitives":[{"attributes":{"JOINTS_0":23,"NORMAL":6,"POSITION":5,"TANGENT":7,"TEXCOORD_0":8,"TEXCOORD_1":8,"WEIGHTS_0":24},"indices":9,"material":1,"mode":4}]},{"name":"body_Dotty Bacon Body_0","primitives":[{"attributes":{"JOINTS_0":25,"NORMAL":11,"POSITION":10,"TANGENT":12,"TEXCOORD_0":13,"TEXCOORD_1":13,"WEIGHTS_0":26},"indices":14,"material":2,"mode":4}]},{"name":"hat_Dotty Bacon Hat_0","primitives":[{"attributes":{"JOINTS_0":27,"NORMAL":16,"POSITION":15,"TANGENT":17,"TEXCOORD_0":18,"TEXCOORD_1":18,"WEIGHTS_0":28},"indices":19,"material":3,"mode":4}]}],"nodes":[{"children":[1],"matrix":[0.5414631962776184,0,0,0,0,1.2022898149890846e-16,-0.5414631962776184,0,0,0.5414631962776184,1.2022898149890846e-16,0,0,0,0,1],"name":"Sketchfab_model"},{"children":[2],"matrix":[0.009999999776482582,0,0,0,0,0,0.009999999776482582,0,0,-0.009999999776482582,0,0,0,0,0,1],"name":"0327f9d4eef24e87bc79d53ae1ff8a96.fbx"},{"children":[3,76,78],"name":"RootNode"},{"children":[4],"matrix":[200,0,0,0,0,199.99999999999943,-0.000015099580252808659,0,0,0.000015099580252808659,199.99999999999943,0,0,0,0,1],"name":"Armature"},{"children":[5,71,72,73,75,70,74],"name":"Object_4"},{"children":[6],"name":"_rootJoint"},{"children":[7,69],"name":"DottyBacon_04","scale":[1,0.9999999403953552,1]},{"children":[8,14,60,63],"name":"Root_M_05","rotation":[0.4810431897640228,0.5182638764381409,0.4810432493686676,0.5182638168334961],"scale":[1,0.9999998211860657,1],"translation":[-6.106747560700922e-16,0.9495000243186951,0.023008067160844803]},{"children":[9],"name":"Hip_R_06","rotation":[-0.05426063388586044,0.9964219927787781,-0.05063609406352043,0.04043539613485336],"scale":[1,0.9999996423721313,1],"translation":[-0.07547315955162048,-0.012199034914374352,-0.09200063347816467]},{"children":[10],"name":"Knee_R_07","rotation":[5.5882809490981344e-9,4.6801861941503375e-8,-0.01112409494817257,0.9999381303787231],"scale":[0.9999998211860657,0.9999998807907104,1],"translation":[0.3364151120185852,-0.002940921578556299,-0.015987958759069443]},{"children":[11],"name":"Ankle_R_08","rotation":[0.05330497771501541,0.04071478918194771,0.02406083606183529,0.9974578619003296],"scale":[1.000000238418579,0.9999999403953552,1.000000238418579],"translation":[0.4424038827419281,-0.010307462885975838,-0.0162955429404974]},{"children":[12],"name":"Toes_R_09","rotation":[-0.05100741609930992,0.035614095628261566,0.7125787138938904,0.6988286375999451],"scale":[0.9999997615814209,0.9999999403953552,0.9999999403953552],"translation":[0.08849337697029114,0.10286442190408707,-0.004382461309432983]},{"children":[13],"name":"ToesEnd_R_010","rotation":[-2.6193452962175456e-10,1.71203282661736e-8,-5.820766091346741e-11,1],"scale":[0.9999999403953552,0.9999999403953552,1],"translation":[0.08770031481981277,6.984919309616089e-10,9.225914254784584e-9]},{"name":"ToesEnd_R_end_054","rotation":[-1.6263032587282567e-18,2.7755575615628914e-17,4.513898307157584e-35,1],"translation":[-2.7755575615628914e-17,0.0877002403140068,0]},{"children":[15],"name":"Spine1_M_011","rotation":[2.8586064626523466e-9,7.22637116812308e-10,-0.0643315538764,0.9979286789894104],"scale":[0.9999998807907104,0.9999999403953552,1],"translation":[0.09400216490030289,-0.007855197414755821,4.108966056293184e-9]},{"children":[16,36,40],"name":"Chest_M_012","rotation":[-3.1686038237666025e-9,-3.3776931251949804e-10,0.07069451361894608,0.9974980354309082],"scale":[1.0000001192092896,1.0000001192092896,1],"translation":[0.1259814202785492,0.01298038475215435,5.689271720399347e-9]},{"children":[17],"name":"Scapula_R_013","rotation":[-0.04230526089668274,0.8111650347709656,-0.10777555406093597,0.573241651058197],"scale":[0.9999998807907104,0.9999998211860657,1],"translation":[0.18975511193275452,-0.017161425203084946,-0.05110817030072212]},{"children":[18],"name":"Shoulder_R_014","rotation":[0.004171449225395918,0.22718662023544312,-0.017877202481031418,0.9736782312393188],"scale":[0.9999999403953552,1,0.9999998807907104],"translation":[0.10824581980705261,0.019384808838367462,0.001645190641283989]},{"children":[19],"name":"Elbow_R_015","rotation":[2.810851640333567e-8,2.904546647641837e-8,0.10943776369094849,0.9939937591552734],"scale":[1,0.9999999403953552,1],"translation":[0.2509482502937317,0.019240494817495346,0.026944711804389954]},{"children":[20,25,30,35],"name":"Wrist_R_016","rotation":[-0.1295815259218216,-0.00048316913307644427,-0.10278268158435822,0.9862272143363953],"scale":[0.9999998807907104,0.9999999403953552,0.9999998807907104],"translation":[0.23533201217651367,0.02021913230419159,0.017129503190517426]},{"children":[21],"name":"MiddleFinger1_R_017","rotation":[0.0028853011317551136,0.033218864351511,0.00996166467666626,0.9993942975997925],"scale":[1,1.0000001192092896,0.9999998807907104],"translation":[0.06188918650150299,-0.006429117172956467,0.008393639698624611]},{"children":[22],"name":"MiddleFinger2_R_018","rotation":[-0.0013825682690367103,0.023344334214925766,0.017469000071287155,0.9995738863945007],"scale":[1,1,1.000000238418579],"translation":[0.04216013476252556,0.001398896798491478,-0.002543951850384474]},{"children":[23],"name":"MiddleFinger3_R_019","rotation":[0.0006518462905660272,-0.020117685198783875,0.034797247499227524,0.9991917014122009],"scale":[0.9999998211860657,0.9999997615814209,0.9999998807907104],"translation":[0.02412184327840805,0.00047219544649124146,-0.0015065466286614537]},{"children":[24],"name":"MiddleFinger4_R_020","rotation":[1.3387762010097504e-8,-2.387241693213582e-8,-8.568167686462402e-8,1],"translation":[0.02170190028846264,2.270098775625229e-9,-8.710776455700397e-8]},{"name":"MiddleFinger4_R_end_055","rotation":[-2.6020852139652106e-18,-1.919037845299343e-17,-4.993500002293077e-35,1],"translation":[0,0.0217018723487854,0]},{"children":[26],"name":"ThumbFinger1_R_021","rotation":[-0.5793069005012512,-0.3868492543697357,0.46428731083869934,0.5469812154769897],"scale":[1,1.0000001192092896,0.9999999403953552],"translation":[-0.0002971863141283393,0.0260158758610487,-0.00010872504208236933]},{"children":[27],"name":"ThumbFinger2_R_022","rotation":[0.04241122677922249,0.08011312037706375,0.03065507858991623,0.995411217212677],"scale":[1.0000001192092896,0.9999998211860657,1.0000001192092896],"translation":[0.030858416110277176,0.0034826546907424927,-0.006100015714764595]},{"children":[28],"name":"ThumbFinger3_R_023","rotation":[-0.008725807070732117,-0.01529498677700758,0.000781290524173528,0.9998446702957153],"scale":[1,1,0.9999998807907104],"translation":[0.024564869701862335,0.0005856649950146675,-0.00015069544315338135]},{"children":[29],"name":"ThumbFinger4_R_024","rotation":[-4.7497451305389404e-8,-7.450580596923828e-8,2.421438694000244e-8,1],"translation":[0.02563062310218811,-1.8626449271863521e-9,-1.4901161193847656e-8]},{"name":"ThumbFinger4_R_end_056","rotation":[3.469446951953614e-18,-2.7755575615628914e-17,-6.938893903907228e-17,1],"translation":[1.1102230246251565e-16,0.025630662217736244,0]},{"children":[31],"name":"IndexFinger1_R_025","rotation":[-0.08220649510622025,-0.043109361082315445,0.14355896413326263,0.9852789044380188],"scale":[0.9999999403953552,1.0000001192092896,0.9999997615814209],"translation":[0.06677128374576569,0.03444672003388405,0.012278620153665543]},{"children":[32],"name":"IndexFinger2_R_026","rotation":[-0.000885017157997936,0.03389318659901619,0.01758338138461113,0.9992703795433044],"scale":[0.9999999403953552,1.0000001192092896,0.9999998807907104],"translation":[0.03402860090136528,0.000209844671189785,-0.0032980828545987606]},{"children":[33],"name":"IndexFinger3_R_027","rotation":[-0.010256647132337093,-0.01888883486390114,-0.010075605474412441,0.9997183084487915],"scale":[1.0000001192092896,1,1],"translation":[0.024126408621668816,0.000678258016705513,-0.0031423931941390038]},{"children":[34],"name":"IndexFinger4_R_028","rotation":[5.213078111410141e-7,8.000061484381149e-7,-5.31814293935895e-7,1],"scale":[1,1,0.9999999403953552],"translation":[0.02610643580555916,1.3969838619232178e-8,-8.102506399154663e-8]},{"name":"IndexFinger4_R_end_057","rotation":[-9.62964972193618e-34,-6.938893903907228e-17,-1.3877787807814457e-17,1],"translation":[0,0.026106292381882668,2.220446049250313e-16]},{"name":"Wrist_R_Attach_03","rotation":[9.313225746154785e-10,-7.450580596923828e-9,-1.862645371275562e-9,1],"scale":[1,1.000000238418579,1],"translation":[0.06999993324279785,2.2351741790771484e-8,-0.05000007152557373]},{"children":[37],"name":"Neck_M_029","rotation":[-7.453526684741973e-9,-1.093331758461602e-9,0.1718488186597824,0.985123336315155],"scale":[0.9999999403953552,0.9999998807907104,1],"translation":[0.2539876401424408,0.014929394237697124,1.129799276355925e-8]},{"children":[38],"name":"Head_M_030","rotation":[-1.4264714152186116e-14,1.197433041610907e-9,3.2782554626464844e-7,1],"translation":[0.09940851479768753,-0.008961264975368977,4.2012819889691855e-9]},{"children":[39],"name":"HeadEnd_M_031","rotation":[1.547183075795535e-15,5.368493205537561e-9,-1.4901161193847656e-8,1],"translation":[0.23750412464141846,1.4901161193847656e-8,1.0606362899068245e-8]},{"name":"HeadEnd_M_end_058","rotation":[-9.926167350636332e-24,-4.0531850015098356e-23,2.7755575615628914e-17,1],"translation":[2.220446049250313e-16,0.23750413954257965,-5.293955920339377e-23]},{"children":[41],"name":"Scapula_L_032","rotation":[0.8111655712127686,0.042305003851652145,-0.5732409954071045,-0.10777618736028671],"scale":[0.999999463558197,0.9999997615814209,0.9999939799308777],"translation":[0.18975499272346497,-0.01716143637895584,0.051108185201883316]},{"children":[42],"name":"Shoulder_L_033","rotation":[0.004171370528638363,0.22718651592731476,-0.017877312377095222,0.9736782312393188],"scale":[0.9999998807907104,1.0000001192092896,0.9999999403953552],"translation":[-0.10824587941169739,-0.019384849816560745,-0.0016457298770546913]},{"children":[43],"name":"Elbow_L_034","rotation":[1.3866866765965824e-7,-0.0000011458901099103969,0.10943787544965744,0.9939936399459839],"scale":[1.000000238418579,0.9999999403953552,0.9999998211860657],"translation":[-0.2509481906890869,-0.019240479916334152,-0.02694501169025898]},{"children":[44,49,54,59],"name":"Wrist_L_035","rotation":[-0.13069763779640198,-0.009447561576962471,-0.10171250253915787,0.9861458539962769],"translation":[-0.23533210158348083,-0.02021896094083786,-0.01712912879884243]},{"children":[45],"name":"MiddleFinger1_L_036","rotation":[0.0028848934452980757,0.0332186333835125,0.009961052797734737,0.9993942975997925],"scale":[0.9999998807907104,1.000000238418579,1],"translation":[-0.062033168971538544,0.006417891010642052,-0.007264082785695791]},{"children":[46],"name":"MiddleFinger2_L_037","rotation":[-0.0013823489425703883,0.023345619440078735,0.01746879145503044,0.9995738863945007],"scale":[0.9999998807907104,0.9999998807907104,1],"translation":[-0.04210679233074188,-0.0014078039675951004,0.003308824496343732]},{"children":[47],"name":"MiddleFinger3_L_038","rotation":[0.0007640160620212555,-0.020114313811063766,0.029255583882331848,0.9993692636489868],"scale":[1,0.9999998807907104,1],"translation":[-0.024090439081192017,-0.0004808157682418823,0.0019431955879554152]},{"children":[48],"name":"MiddleFinger4_L_039","rotation":[1.1175870895385742e-8,7.289054337888956e-8,2.9103830456733704e-10,1],"translation":[-0.021701911464333534,-7.2177499532699585e-9,6.53672032058239e-8]},{"name":"MiddleFinger4_L_end_059","rotation":[-8.673617379884035e-19,-3.054739620977909e-17,-1.734723475976807e-18,1],"translation":[0,0.021701812744140625,0]},{"children":[50],"name":"ThumbFinger1_L_040","rotation":[-0.5793067216873169,-0.3868487477302551,0.4642866551876068,0.5469823479652405],"scale":[1.0000001192092896,0.9999999403953552,0.9999997615814209],"translation":[0.00030501990113407373,-0.02601587027311325,0.00009341471013613045]},{"children":[51],"name":"ThumbFinger2_L_041","rotation":[0.042410898953676224,0.08011271059513092,0.030654946342110634,0.9954113364219666],"scale":[0.9999998211860657,1,1],"translation":[-0.030854403972625732,-0.003731554839760065,0.005971916019916534]},{"children":[52],"name":"ThumbFinger3_L_042","rotation":[-0.008726485073566437,-0.015295306220650673,0.0007808306836523116,0.9998447299003601],"scale":[1.000000238418579,0.9999997019767761,0.9999999403953552],"translation":[-0.024560097604990005,-0.0007734117098152637,0.0000749640166759491]},{"children":[53],"name":"ThumbFinger4_L_043","rotation":[-1.7508864402770996e-7,-2.0489096641540527e-8,-1.8440186977386475e-7,1],"translation":[-0.025630638003349304,-6.146728992462158e-8,8.195638656616211e-8]},{"name":"ThumbFinger4_L_end_060","rotation":[6.245004513516506e-17,3.4666738998970245e-33,5.551115123125783e-17,1],"translation":[0,0.025630732998251915,5.551115123125783e-17]},{"children":[55],"name":"IndexFinger1_L_044","rotation":[-0.08220723271369934,-0.04310904070734978,0.14355826377868652,0.9852789640426636],"scale":[0.9999999403953552,0.9999999403953552,1],"translation":[-0.06697594374418259,-0.034457601606845856,-0.011075008660554886]},{"children":[56],"name":"IndexFinger2_L_045","rotation":[-0.0008849254227243364,0.033893436193466187,0.017583534121513367,0.9992703795433044],"scale":[0.9999999403953552,0.9999998211860657,0.9999999403953552],"translation":[-0.03396672010421753,-0.0003289232263341546,0.0038763200864195824]},{"children":[57],"name":"IndexFinger3_L_046","rotation":[-0.010256410576403141,-0.01888909377157688,-0.0100761279463768,0.9997183084487915],"scale":[1,1,0.9999999403953552],"translation":[-0.02406778559088707,-0.0007787272334098816,0.0035438714548945427]},{"children":[58],"name":"IndexFinger4_L_047","rotation":[-1.4784744983842302e-8,9.12696123123169e-8,4.0279701352119446e-8,1],"scale":[1,1.0000001192092896,1],"translation":[-0.026106229051947594,-5.21540641784668e-8,1.862645149230957e-8]},{"name":"IndexFinger4_L_end_061","rotation":[-1.3877787807814457e-17,3.469446951953614e-18,4.81482486096809e-35,1],"translation":[-2.7755575615628914e-17,0.026106296107172966,2.220446049250313e-16]},{"name":"Wrist_L_Attach_02","rotation":[-1.862645149230957e-9,-2.596664203102783e-17,9.313225746154785e-10,1],"translation":[-0.06999996304512024,-3.725290298461914e-8,0.049999892711639404]},{"children":[61],"name":"Attach_M_048","rotation":[1.1916212461215991e-9,-3.0842809195519294e-8,0.7329357862472534,0.6802978515625],"scale":[0.9999998807907104,0.9999999403953552,1],"translation":[0.18053190410137177,0.3441045880317688,7.891305386920067e-9]},{"children":[62],"name":"AttachEnd_M_049","rotation":[8.167887888396383e-15,-1.4211002098934826e-14,-3.331780936967639e-18,1],"translation":[0.08161205053329468,6.56304450785683e-8,-3.832747896836963e-9]},{"name":"AttachEnd_M_end_062","rotation":[1.1693599953592241e-23,-1.9852334701272664e-23,0,1],"translation":[5.551115123125783e-17,0.0816119909286499,0]},{"children":[64],"name":"Hip_L_050","rotation":[0.9964219331741333,0.05426064506173134,-0.04043670743703842,-0.05063631758093834],"scale":[0.999997079372406,0.9999997019767761,0.9999969601631165],"translation":[-0.07547316700220108,-0.01219903863966465,0.09200061857700348]},{"children":[65],"name":"Knee_L_051","rotation":[-7.322978490265086e-8,6.636083682565186e-9,-0.011124172247946262,0.9999381303787231],"scale":[1,0.9999998211860657,1],"translation":[-0.33641600608825684,0.0029408868867903948,0.01598992384970188]},{"children":[66],"name":"Ankle_L_052","rotation":[0.0533052496612072,0.04071483761072159,0.02406083419919014,0.99745774269104],"scale":[1.0000001192092896,1,1],"translation":[-0.44240525364875793,0.01030770130455494,0.01629813387989998]},{"children":[67],"name":"Toes_L_053","rotation":[-0.054868653416633606,0.0394049808382988,0.7122912406921387,0.6986256837844849],"scale":[0.9999997615814209,0.9999999403953552,0.9999998807907104],"translation":[-0.08849368244409561,-0.10286436975002289,0.0043829623609781265]},{"children":[68],"name":"ToesEnd_L_00","rotation":[1.3649696484208107e-8,-1.0312942322343588e-7,1.2645614333450794e-7,1],"translation":[-0.08770032227039337,-8.847564458847046e-8,-4.042231012135744e-7]},{"name":"ToesEnd_L_end_063","rotation":[2.168404344971009e-19,-6.938893903907228e-18,1.504632769052528e-36,1],"translation":[0,0.087700255215168,2.7755575615628914e-17]},{"name":"DottyBacon_01","translation":[0,-5.960464477539063e-8,-7.105428204633949e-15]},{"matrix":[200.0000238418579,0,0,0,0,200.00000858306703,-0.000015099581598071328,0,0,0.000015099582750078069,200.0000238418579,0,0,0,0,1],"name":"Object_70"},{"mesh":0,"name":"Object_71","skin":0},{"mesh":1,"name":"Object_72","skin":0},{"mesh":2,"name":"Object_73","skin":0},{"matrix":[200.0000238418579,0,0,0,0,200.00000858306703,-0.000015099581598071328,0,0,0.000015099582750078069,200.0000238418579,0,0,0,0,1],"name":"Object_74"},{"mesh":3,"name":"Object_75","skin":0},{"children":[77],"matrix":[-65.1558127516791,-44.52713915455176,-61.417049289096546,0,-32.401349332924404,89.53957282709818,-30.5420854760369,0,68.59207001076241,0.000008666908837178815,-72.76761921184274,0,735.88916015625,495.8309326171875,692.5791015625,1],"name":"Camera"},{"name":"Object_77"},{"children":[79],"matrix":[-29.086477364379697,-5.518905590722295,-95.51711910171437,0,56.63932069164076,79.46722539115298,-21.839126361216156,0,77.11007920637729,-60.452475336912016,-19.988344364310564,0,370.0379943847656,590.38623046875,695.6312866210938,1],"name":"Light"},{"children":[80],"matrix":[1,0,0,0,0,2.220446049250313e-16,1,0,0,-1,2.220446049250313e-16,0,0,0,0,1],"name":"Object_79"},{"name":"Object_80"}],"samplers":[{"magFilter":9729,"minFilter":9987,"wrapS":10497,"wrapT":10497}],"scene":0,"scenes":[{"name":"Sketchfab_Scene","nodes":[0]}],"skins":[{"inverseBindMatrices":20,"joints":[5,6,7,8,9,10,11,12,13,14,15,16,17,18,19,20,21,22,23,24,25,26,27,28,29,30,31,32,33,34,35,36,37,38,39,40,41,42,43,44,45,46,47,48,49,50,51,52,53,54,55,56,57,58,59,60,61,62,63,64,65,66,67,68,69],"skeleton":5}],"textures":[{"sampler":0,"source":0},{"sampler":0,"source":1},{"sampler":0,"source":2},{"sampler":0,"source":3},{"sampler":0,"source":4},{"sampler":0,"source":5},{"sampler":0,"source":6},{"sampler":0,"source":7},{"sampler":0,"source":8},{"sampler":0,"source":9},{"sampler":0,"source":10},{"sampler":0,"source":11},{"sampler":0,"source":12},{"sampler":0,"source":13},{"sampler":0,"source":14},{"sampler":0,"source":15}],"extensionsRequired":[]}